<svg width="60" height="61" viewBox="0 0 60 61" fill="none" xmlns="http://www.w3.org/2000/svg">
<g clip-path="url(#clip0_629_4600)">
<path d="M51.4286 37.2327C51.4286 35.0149 50.9122 32.8276 49.9204 30.8439C48.9286 28.8603 47.4885 27.1348 45.7143 25.8041V11.5184H34.2857V0.0898438H0V31.5184C0 33.7917 0.903059 35.9719 2.51051 37.5793C4.11797 39.1868 6.29814 40.0898 8.57143 40.0898H23.1429C23.6119 42.3769 24.6343 44.5141 26.1206 46.3144C27.6069 48.1148 29.5117 49.5235 31.6685 50.4172C33.8253 51.311 36.1682 51.6625 38.4923 51.441C40.8164 51.2196 43.0508 50.4319 45 49.147L55.1143 59.2613L59.1429 55.2327L49.0286 45.1184C50.586 42.7828 51.4208 40.04 51.4286 37.2327V37.2327ZM40 17.2327V23.2327C38.1147 22.8479 36.171 22.8479 34.2857 23.2327V17.2327H40ZM23.1429 34.3756H8.57143C7.81367 34.3756 7.08694 34.0745 6.55112 33.5387C6.01531 33.0029 5.71429 32.2762 5.71429 31.5184V5.80413H28.5714V25.8041C25.7741 27.9008 23.8427 30.9504 23.1429 34.3756V34.3756ZM28.5714 37.2327C28.5714 35.5374 29.0741 33.8802 30.016 32.4707C30.9578 31.0611 32.2965 29.9625 33.8627 29.3137C35.4289 28.665 37.1524 28.4952 38.8151 28.826C40.4778 29.1567 42.005 29.973 43.2038 31.1718C44.4025 32.3705 45.2189 33.8978 45.5496 35.5605C45.8803 37.2232 45.7106 38.9466 45.0618 40.5128C44.4131 42.0791 43.3145 43.4177 41.9049 44.3596C40.4953 45.3014 38.8381 45.8041 37.1429 45.8041C34.8696 45.8041 32.6894 44.9011 31.0819 43.2936C29.4745 41.6862 28.5714 39.506 28.5714 37.2327V37.2327Z" fill="#0397D6"/>
<path d="M25.7132 11.5176H8.57031V17.2319H25.7132V11.5176Z" fill="#0397D6"/>
<path d="M25.7132 22.9473H8.57031V28.6616H25.7132V22.9473Z" fill="#0397D6"/>
</g>
<defs>
<clipPath id="clip0_629_4600">
<rect width="60" height="60" fill="white" transform="translate(0 0.0898438)"/>
</clipPath>
</defs>
</svg>
