<svg width="60" height="60" viewBox="0 0 60 60" fill="none" xmlns="http://www.w3.org/2000/svg">
<path d="M16 0C12.8174 0 9.76515 1.26428 7.51472 3.51472C5.26428 5.76516 4 8.8174 4 12V23.032C5.24426 22.1983 6.58805 21.5237 8 21.024V12C8 9.87827 8.84285 7.84344 10.3431 6.34315C11.8434 4.84285 13.8783 4 16 4H48C50.1217 4 52.1566 4.84285 53.6568 6.34315C55.1571 7.84344 56 9.87827 56 12V44C56 45.492 55.592 46.888 54.88 48.08L36.204 29.728C35.3189 28.858 34.1858 28.2838 32.9608 28.0847C31.7357 27.8855 30.4791 28.0712 29.364 28.616C30.056 29.748 30.628 30.964 31.06 32.244C31.4351 32.0441 31.8642 31.9689 32.285 32.0293C32.7057 32.0897 33.0963 32.2826 33.4 32.58L52.048 50.9C50.8212 51.6218 49.4234 52.0017 48 52H36.484L38.244 53.76C38.896 54.412 39.368 55.18 39.66 56H48C51.1826 56 54.2348 54.7357 56.4853 52.4853C58.7357 50.2348 60 47.1826 60 44V12C60 8.8174 58.7357 5.76516 56.4853 3.51472C54.2348 1.26428 51.1826 0 48 0H16ZM42 24C43.5913 24 45.1174 23.3679 46.2426 22.2426C47.3679 21.1174 48 19.5913 48 18C48 16.4087 47.3679 14.8826 46.2426 13.7574C45.1174 12.6321 43.5913 12 42 12C40.4087 12 38.8826 12.6321 37.7574 13.7574C36.6321 14.8826 36 16.4087 36 18C36 19.5913 36.6321 21.1174 37.7574 22.2426C38.8826 23.3679 40.4087 24 42 24ZM42 20C41.4696 20 40.9609 19.7893 40.5858 19.4142C40.2107 19.0391 40 18.5304 40 18C40 17.4696 40.2107 16.9609 40.5858 16.5858C40.9609 16.2107 41.4696 16 42 16C42.5304 16 43.0391 16.2107 43.4142 16.5858C43.7893 16.9609 44 17.4696 44 18C44 18.5304 43.7893 19.0391 43.4142 19.4142C43.0391 19.7893 42.5304 20 42 20ZM25.212 46.384C27.3317 43.5494 28.2989 40.0171 27.9192 36.498C27.5395 32.9789 25.8409 29.7343 23.1653 27.4171C20.4897 25.0999 17.0357 23.8822 13.4985 24.009C9.96124 24.1358 6.60332 25.5977 4.10051 28.1005C1.5977 30.6033 0.135793 33.9612 0.00899437 37.4985C-0.117804 41.0357 1.09992 44.4897 3.4171 47.1653C5.73428 49.8409 8.97891 51.5395 12.498 51.9192C16.0171 52.299 19.5494 51.3317 22.384 49.212L32.584 59.412C32.959 59.7875 33.4679 59.9987 33.9986 59.9991C34.5293 59.9995 35.0385 59.789 35.414 59.414C35.7895 59.039 36.0007 58.5301 36.0011 57.9994C36.0015 57.4687 35.791 56.9595 35.416 56.584L25.216 46.384H25.212ZM14 48C11.3478 48 8.80429 46.9464 6.92893 45.0711C5.05357 43.1957 4 40.6522 4 38C4 35.3478 5.05357 32.8043 6.92893 30.9289C8.80429 29.0536 11.3478 28 14 28C16.6522 28 19.1957 29.0536 21.0711 30.9289C22.9464 32.8043 24 35.3478 24 38C24 40.6522 22.9464 43.1957 21.0711 45.0711C19.1957 46.9464 16.6522 48 14 48Z" fill="#0397D6"/>
</svg>
