<svg width="40" height="30" viewBox="0 0 40 30" fill="none" xmlns="http://www.w3.org/2000/svg">
<path d="M38.5714 0H1.42857C0.638393 0 0 0.609375 0 1.36364V28.6364C0 29.3906 0.638393 30 1.42857 30H38.5714C39.3616 30 40 29.3906 40 28.6364V1.36364C40 0.609375 39.3616 0 38.5714 0ZM36.7857 4.72159V26.9318H3.21429V4.72159L1.98214 3.8054L3.73661 1.65341L5.64732 3.07244H34.3571L36.2679 1.65341L38.0223 3.8054L36.7857 4.72159ZM34.3571 3.06818L20 13.7216L5.64286 3.06818L3.73214 1.64915L1.97768 3.80114L3.20982 4.71733L18.4598 16.0355C18.8984 16.3607 19.4379 16.5373 19.9933 16.5373C20.5487 16.5373 21.0882 16.3607 21.5268 16.0355L36.7857 4.72159L38.0179 3.8054L36.2634 1.65341L34.3571 3.06818Z" fill="#3A3A3A"/>
</svg>
