<svg width="60" height="60" viewBox="0 0 60 60" fill="none" xmlns="http://www.w3.org/2000/svg">
<path d="M51.4286 37.1429C51.4286 34.9251 50.9122 32.7377 49.9204 30.7541C49.1528 29.2188 48.1166 27.8382 46.8649 26.6756C46.173 26.033 45.7143 25.1586 45.7143 24.2143V8.57143C45.7143 6.99347 44.4351 5.71429 42.8571 5.71429C41.2792 5.71429 40 4.4351 40 2.85714C40 1.27919 38.7208 0 37.1429 0C35.5649 0 34.2857 1.27919 34.2857 2.85714C34.2857 4.4351 33.0065 5.71429 31.4286 5.71429H14.2857C12.7078 5.71429 11.4286 4.4351 11.4286 2.85714C11.4286 1.27919 10.1494 0 8.57143 0C6.99347 0 5.71429 1.27919 5.71429 2.85714C5.71429 4.4351 4.4351 5.71429 2.85714 5.71429C1.27919 5.71429 0 6.99347 0 8.57143V42.7143C0 44.3711 1.34315 45.7143 3 45.7143H24.2202C25.1612 45.7143 26.033 46.1699 26.6752 46.8576C28.7887 49.1206 31.5915 50.6462 34.6687 51.1812C37.4322 51.6616 40.2571 51.3153 42.7985 50.2134C44.1021 49.6481 45.6628 49.7771 46.6675 50.7818L53.0429 57.1571C54.1553 58.2696 55.959 58.2696 57.0714 57.1571C58.1839 56.0447 58.1839 54.241 57.0714 53.1286L50.7235 46.7807C49.7065 45.7636 49.5876 44.1792 50.1766 42.867C50.9813 41.074 51.4111 39.1258 51.4286 37.1429ZM8.71428 40C7.05743 40 5.71429 38.6568 5.71429 37V14.4286C5.71429 12.7717 7.05743 11.4286 8.71428 11.4286H37C38.6569 11.4286 40 12.7717 40 14.4286V19.4691C40 21.367 38.2409 22.7708 36.346 22.877C34.8897 22.9585 33.4472 23.263 32.0702 23.7863C30.0103 24.5691 28.1659 25.8152 26.6756 27.4203C26.033 28.1125 25.1584 28.5714 24.2139 28.5714H22.8571C21.2792 28.5714 20 29.8506 20 31.4286V32.873C20 33.6532 20.6325 34.2857 21.4127 34.2857C22.3064 34.2857 22.9718 35.1069 22.9002 35.9977C22.8695 36.3788 22.8542 36.7608 22.8542 37.1429C22.8542 38.6288 21.7523 40 20.2663 40H8.71428ZM28.5714 37.1429C28.5714 35.4476 29.0741 33.7904 30.016 32.3808C30.9578 30.9713 32.2965 29.8726 33.8627 29.2239C35.4289 28.5751 37.1524 28.4054 38.8151 28.7361C40.4777 29.0669 42.005 29.8832 43.2038 31.0819C44.4025 32.2807 45.2189 33.808 45.5496 35.4707C45.8803 37.1333 45.7106 38.8568 45.0618 40.423C44.4131 41.9892 43.3144 43.3279 41.9049 44.2697C40.4953 45.2116 38.8381 45.7143 37.1429 45.7143C34.8696 45.7143 32.6894 44.8112 31.0819 43.2038C29.4745 41.5963 28.5714 39.4161 28.5714 37.1429Z" fill="#0397D6"/>
<path d="M15.142 17.1426H13.4277C12.3232 17.1426 11.4277 18.038 11.4277 19.1426V20.8569C11.4277 21.9614 12.3232 22.8569 13.4277 22.8569H15.142C16.2466 22.8569 17.142 21.9614 17.142 20.8569V19.1426C17.142 18.038 16.2466 17.1426 15.142 17.1426Z" fill="#0397D6"/>
<path d="M23.7143 17.1426H22C20.8954 17.1426 20 18.038 20 19.1426V20.8569C20 21.9614 20.8954 22.8569 22 22.8569H23.7143C24.8189 22.8569 25.7143 21.9614 25.7143 20.8569V19.1426C25.7143 18.038 24.8189 17.1426 23.7143 17.1426Z" fill="#0397D6"/>
<path d="M32.2866 17.1426H30.5723C29.4677 17.1426 28.5723 18.038 28.5723 19.1426V20.8569C28.5723 21.9614 29.4677 22.8569 30.5723 22.8569H32.2866C33.3911 22.8569 34.2866 21.9614 34.2866 20.8569V19.1426C34.2866 18.038 33.3911 17.1426 32.2866 17.1426Z" fill="#0397D6"/>
<path d="M15.142 28.5723H13.4277C12.3232 28.5723 11.4277 29.4677 11.4277 30.5723V32.2866C11.4277 33.3911 12.3232 34.2866 13.4277 34.2866H15.142C16.2466 34.2866 17.142 33.3911 17.142 32.2866V30.5723C17.142 29.4677 16.2466 28.5723 15.142 28.5723Z" fill="#0397D6"/>
</svg>
