<?xml version="1.0" standalone="no"?>
<!DOCTYPE svg PUBLIC "-//W3C//DTD SVG 20010904//EN"
 "http://www.w3.org/TR/2001/REC-SVG-20010904/DTD/svg10.dtd">
<svg version="1.0" xmlns="http://www.w3.org/2000/svg"
 width="814.000000pt" height="814.000000pt" viewBox="0 0 814.000000 814.000000"
 preserveAspectRatio="xMidYMid meet">
<metadata>
Created by potrace 1.14, written by Peter Selinger 2001-2017
</metadata>
<g transform="translate(0.000000,814.000000) scale(0.100000,-0.100000)"
fill="#000000" stroke="none">
<path d="M4018 8134 c-2 -1 -25 -5 -52 -8 -27 -4 -57 -11 -68 -17 -10 -5 -18
-8 -18 -5 0 11 -140 -70 -186 -107 -125 -103 -205 -272 -207 -441 -1 -49 -4
-56 -22 -57 -11 0 -27 -2 -35 -4 -15 -3 -52 -11 -100 -20 -14 -2 -68 -16 -120
-30 -52 -14 -106 -27 -120 -31 -63 -14 -360 -121 -374 -135 -6 -5 -16 -9 -23
-9 -7 0 -50 -18 -95 -41 l-83 -40 -15 23 c-21 33 -119 130 -160 159 -42 30
-129 68 -185 82 -22 5 -83 10 -136 11 -83 2 -108 -1 -180 -25 -275 -94 -439
-359 -396 -639 4 -25 8 -49 9 -55 4 -29 60 -148 91 -192 l35 -50 -36 -34 c-19
-19 -62 -65 -95 -104 -32 -38 -65 -74 -71 -80 -6 -5 -23 -26 -36 -45 -13 -19
-30 -41 -37 -48 -7 -8 -27 -35 -45 -60 -17 -26 -34 -49 -37 -52 -13 -12 -71
-101 -71 -110 0 -6 -4 -10 -8 -10 -5 0 -15 -12 -22 -27 -8 -16 -29 -51 -47
-79 -18 -28 -33 -56 -33 -62 0 -6 -3 -12 -7 -14 -5 -1 -19 -24 -33 -50 -13
-27 -25 -48 -26 -48 -1 0 -20 6 -42 14 -101 36 -261 39 -347 6 -14 -5 -25 -7
-25 -4 0 4 -7 0 -16 -7 -9 -7 -22 -14 -29 -15 -30 -4 -114 -63 -171 -119 -70
-69 -111 -133 -145 -225 -31 -88 -36 -246 -10 -340 18 -63 71 -172 97 -197 7
-7 21 -23 31 -36 26 -32 117 -107 130 -107 6 0 13 -3 15 -7 3 -7 55 -32 131
-62 22 -8 26 -15 22 -33 -19 -75 -30 -270 -29 -498 0 -234 8 -353 28 -462 5
-28 -5 -40 -37 -45 -66 -10 -216 -113 -278 -190 -27 -34 -99 -156 -98 -166 0
-1 -2 -9 -4 -17 -41 -129 -35 -287 14 -397 10 -24 19 -45 19 -48 0 -16 61 -97
110 -146 116 -116 242 -170 405 -172 74 -1 127 7 184 28 24 8 45 14 46 13 1
-2 14 -24 27 -49 44 -79 53 -94 59 -99 3 -3 8 -13 12 -22 6 -16 156 -246 177
-271 6 -7 24 -30 41 -52 46 -62 130 -165 159 -196 8 -8 39 -41 68 -71 28 -31
52 -60 52 -64 0 -4 -15 -30 -34 -58 -70 -107 -98 -199 -98 -326 0 -30 2 -66 5
-80 3 -14 8 -43 12 -65 15 -80 86 -200 159 -269 182 -171 428 -210 659 -104
37 17 67 35 67 39 0 5 4 9 10 9 20 0 98 75 137 132 29 42 11 45 158 -21 39
-18 79 -36 90 -40 11 -5 36 -16 55 -24 80 -34 344 -118 415 -132 39 -8 60 -13
60 -15 0 -1 7 -3 15 -5 28 -6 75 -15 105 -21 104 -18 100 -15 101 -69 0 -28 4
-68 8 -90 5 -22 10 -51 12 -64 3 -13 12 -37 20 -53 9 -17 17 -39 20 -51 2 -11
7 -23 11 -26 5 -3 24 -28 42 -56 37 -54 127 -134 188 -167 85 -46 136 -60 254
-65 102 -5 126 -3 189 16 100 31 173 74 247 147 35 34 63 64 63 67 0 4 14 28
30 54 47 73 78 186 79 289 l1 51 78 13 c95 16 84 14 162 35 36 9 75 18 86 21
12 2 53 14 90 26 38 12 71 22 74 23 14 3 60 19 105 35 47 17 65 23 90 30 6 1
26 11 45 21 19 11 39 19 44 19 5 0 35 13 67 30 33 16 59 26 59 22 0 -4 4 -2 8
3 4 6 19 16 34 22 26 12 29 10 55 -25 114 -153 278 -236 468 -236 164 0 263
36 391 144 61 52 150 184 158 235 1 5 5 15 8 21 14 21 20 71 23 167 4 140 -22
221 -118 367 -16 25 -16 26 41 85 31 33 81 89 111 125 30 36 57 67 60 70 4 3
18 21 31 40 14 19 32 44 42 54 10 11 18 23 18 26 0 4 9 17 19 29 10 12 43 59
72 104 30 45 56 84 59 87 3 3 11 16 18 30 7 14 21 39 32 55 11 17 23 37 27 45
52 100 52 100 78 90 36 -14 76 -22 108 -24 15 0 27 -3 27 -6 0 -12 166 0 218
16 136 39 253 122 329 234 34 51 71 127 77 162 3 13 5 23 7 23 4 0 10 55 14
130 7 155 -52 299 -170 419 -71 72 -151 123 -232 147 l-43 12 6 51 c3 28 8 67
10 86 18 138 23 420 11 625 -3 61 -7 110 -7 110 -3 0 -7 29 -14 88 l-6 58 37
15 c165 66 284 167 344 291 19 37 34 71 35 76 1 4 2 8 3 10 2 2 5 14 15 62 1
6 4 15 7 20 7 13 4 182 -5 220 -13 59 -66 185 -77 185 -4 0 -11 9 -14 20 -4
11 -36 50 -73 86 -111 110 -270 173 -423 168 -58 -2 -145 -20 -190 -39 -13 -5
-26 11 -60 72 -112 205 -331 507 -492 678 -61 65 -65 71 -52 90 25 34 87 145
89 158 1 6 5 18 9 25 5 6 6 12 4 12 -3 0 1 20 8 44 15 50 17 194 3 245 -5 18
-11 41 -13 50 -4 23 -51 121 -72 153 -22 32 -79 93 -119 128 -38 33 -159 96
-204 106 -19 4 -42 10 -50 12 -8 3 -62 5 -120 6 -79 2 -111 -2 -130 -14 -13
-8 -27 -14 -30 -13 -8 4 -72 -19 -110 -40 -71 -39 -124 -85 -184 -159 l-38
-47 -31 16 c-18 10 -34 18 -37 18 -3 0 -27 11 -55 24 -152 69 -472 180 -595
205 -14 3 -43 10 -65 15 -22 5 -56 12 -75 15 -70 11 -95 17 -101 24 -4 4 -9
41 -12 82 -12 143 -57 250 -152 358 -32 37 -161 132 -179 132 -6 0 -23 6 -38
14 -36 19 -120 36 -196 40 -34 1 -63 2 -64 0z m948 -1395 c25 -223 149 -486
306 -649 62 -65 190 -170 207 -170 6 0 11 -4 11 -9 0 -12 194 -106 270 -130
192 -61 423 -73 593 -32 20 5 37 6 37 2 0 -3 -19 -44 -43 -91 -24 -47 -47 -96
-51 -110 -5 -14 -10 -29 -12 -35 -40 -115 -56 -219 -57 -375 -1 -140 10 -218
50 -344 41 -129 127 -292 201 -379 54 -64 158 -164 215 -206 69 -52 101 -71
189 -113 l67 -31 -72 -35 c-250 -122 -451 -334 -560 -592 -40 -94 -72 -210
-83 -298 -9 -65 -9 -260 -1 -312 23 -139 60 -254 119 -372 22 -43 38 -81 36
-84 -3 -2 -18 0 -34 5 -69 23 -273 32 -384 18 -135 -18 -388 -105 -439 -151
-10 -9 -21 -16 -24 -16 -10 0 -105 -69 -146 -105 -52 -47 -151 -149 -151 -157
0 -3 -6 -13 -13 -20 -26 -27 -77 -102 -77 -114 0 -7 -4 -14 -8 -16 -27 -11
-122 -264 -138 -368 -5 -30 -9 -59 -10 -65 -1 -5 -2 -21 -3 -34 -1 -23 -7 -19
-63 39 -68 69 -198 170 -247 191 -17 8 -31 17 -31 21 0 5 -6 8 -14 8 -8 0 -30
9 -48 19 -30 18 -163 66 -213 77 -56 13 -160 28 -202 28 -18 1 -33 5 -33 9 0
5 -5 5 -10 2 -6 -4 -50 -8 -98 -10 -81 -4 -102 -6 -174 -21 -15 -3 -30 -5 -33
-5 -2 0 -24 -7 -47 -15 -24 -9 -47 -17 -53 -18 -44 -9 -148 -58 -230 -108 -16
-10 -37 -21 -45 -25 -8 -3 -17 -9 -20 -12 -3 -3 -27 -24 -55 -45 -27 -22 -74
-64 -103 -94 -29 -30 -56 -52 -58 -49 -3 3 -7 22 -9 44 -6 65 -24 144 -51 223
-28 81 -94 223 -106 228 -4 2 -8 8 -8 14 0 6 -14 27 -30 48 -17 21 -30 40 -30
43 0 11 -131 151 -176 187 -169 136 -317 207 -539 256 -83 18 -246 24 -341 12
-94 -12 -106 -15 -126 -23 -11 -4 -18 -3 -18 3 0 14 33 76 43 80 4 2 7 12 7
23 0 10 4 19 9 19 5 0 11 10 14 23 3 12 16 54 30 92 76 217 82 476 15 690 -12
39 -22 75 -24 80 -1 6 -8 24 -15 40 -7 17 -13 32 -14 35 -6 24 -74 146 -110
195 -62 87 -108 138 -195 212 -98 83 -98 83 -109 83 -5 0 -11 3 -13 8 -4 9
-67 45 -135 78 -29 13 -53 30 -53 36 0 6 3 8 6 5 8 -8 135 60 219 116 88 59
232 209 296 307 54 84 107 186 114 218 2 10 14 50 28 90 14 39 24 72 21 72 -3
0 0 8 5 18 22 42 33 281 17 402 -11 92 -51 231 -81 291 -9 16 -15 30 -15 31
-1 18 -14 48 -22 48 -5 0 -6 5 -3 10 3 6 3 10 -2 10 -8 0 -33 47 -33 61 0 4
17 3 38 -2 57 -14 149 -23 232 -23 82 0 219 12 233 21 4 3 22 7 38 10 17 2 48
11 69 18 21 7 41 11 44 8 3 -4 6 -1 6 5 0 7 6 12 14 12 28 0 234 105 256 130
3 3 17 13 32 23 26 16 84 66 132 113 170 166 300 429 331 669 3 27 8 51 10 53
1 2 35 -27 73 -65 84 -81 80 -78 159 -131 103 -70 300 -158 373 -168 8 -1 29
-4 45 -8 104 -20 139 -23 258 -21 73 1 134 4 137 5 6 3 8 4 73 14 26 5 50 12
53 17 3 5 9 7 14 4 16 -10 217 74 315 132 65 39 148 107 224 185 25 26 47 46
48 44 1 -1 5 -27 9 -57z"/>
<path d="M3918 5805 c-1 -1 -30 -6 -63 -10 -33 -3 -94 -13 -135 -22 -41 -8
-79 -16 -85 -17 -5 -1 -14 -4 -20 -8 -5 -3 -26 -9 -45 -13 -79 -15 -365 -143
-425 -189 -11 -9 -45 -32 -75 -53 -30 -20 -56 -40 -58 -45 -2 -4 -8 -8 -13 -8
-6 0 -24 -12 -40 -27 -61 -57 -195 -190 -226 -225 -46 -52 -156 -214 -193
-283 -49 -94 -57 -110 -93 -195 -25 -58 -78 -234 -81 -270 -1 -9 -5 -21 -10
-28 -4 -6 -5 -12 -3 -12 2 0 0 -21 -5 -47 -27 -145 -29 -473 -2 -564 3 -10 6
-30 8 -45 7 -48 45 -190 72 -266 62 -172 189 -396 300 -528 106 -125 312 -304
429 -373 52 -30 243 -125 267 -132 13 -4 37 -13 53 -20 33 -15 125 -43 165
-51 14 -3 43 -10 65 -15 22 -5 54 -12 70 -14 17 -2 55 -7 85 -12 30 -4 120 -8
200 -8 176 0 267 9 399 41 36 9 72 17 80 19 37 7 192 65 262 97 73 34 210 112
263 151 125 89 238 193 331 302 22 26 48 56 58 66 9 11 17 23 17 27 0 5 8 17
18 28 15 17 41 55 80 119 86 142 192 416 208 540 1 11 3 20 4 20 3 0 9 40 26
170 5 40 5 282 0 320 -12 95 -18 132 -21 145 -2 8 -7 31 -10 50 -3 19 -8 43
-11 52 -3 9 -7 26 -9 37 -19 99 -172 449 -210 481 -8 7 -15 17 -15 22 0 11
-108 155 -158 211 -61 68 -133 135 -207 195 -38 32 -71 60 -73 65 -2 4 -7 7
-12 7 -5 0 -39 21 -77 46 -72 48 -260 142 -328 164 -22 7 -44 15 -50 19 -5 3
-14 6 -20 8 -5 1 -55 13 -110 28 -55 14 -120 28 -145 31 -25 3 -56 7 -70 10
-27 6 -356 14 -362 9z"/>
</g>
</svg>
