<svg width="27" height="34" viewBox="0 0 27 34" fill="none" xmlns="http://www.w3.org/2000/svg">
<path d="M23.7999 21.76C25.5673 21.76 27.0589 20.1293 25.8138 18.875C25.0543 18.1099 24.0241 17.68 22.95 17.68H4.05C2.97587 17.68 1.94574 18.1099 1.18622 18.875C0.426695 19.6402 0 20.6779 0 21.76V23.12C0 28.4811 5.022 34 13.5 34C15.0125 34 16.415 33.8242 17.6987 33.5051C20.408 32.8314 19.4584 29.92 16.6666 29.92H14.18C13.8044 29.92 13.5 30.2244 13.5 30.6C13.5 30.9756 13.1949 31.2816 12.8197 31.2661C6.31396 30.9983 2.7 26.9015 2.7 23.12V21.76C2.7 21.3993 2.84223 21.0534 3.09541 20.7983C3.34858 20.5433 3.69196 20.4 4.05 20.4H12.82C13.1956 20.4 13.5 20.7044 13.5 21.08C13.5 21.4556 13.8044 21.76 14.18 21.76H23.7999ZM26.426 26.2706C26.2149 26.8437 25.6409 27.2 25.0302 27.2H14.86C14.1089 27.2 13.5 26.5911 13.5 25.84C13.5 25.0889 14.1089 24.48 14.86 24.48H25.025C26.0064 24.48 26.7652 25.3497 26.426 26.2706ZM20.925 7.48C20.925 6.68905 20.2273 6.12 19.4363 6.12H14.86C14.1089 6.12 13.5 6.72889 13.5 7.48C13.5 8.23111 14.1089 8.84 14.86 8.84H19.4362C20.2283 8.84 20.925 8.27213 20.925 7.48ZM13.5 0C14.6654 0 15.7687 0.270464 16.7507 0.752729C18.3108 1.51891 17.4322 3.4 15.6941 3.4H13.84C13.6522 3.4 13.5 3.24778 13.5 3.06C13.5 2.87222 13.3476 2.71872 13.1603 2.73231C12.0313 2.81425 10.9646 3.30251 10.1589 4.11417C9.27281 5.00684 8.775 6.21757 8.775 7.48C8.775 8.74243 9.27281 9.95315 10.1589 10.8458C10.9646 11.6575 12.0313 12.1458 13.1603 12.2277C13.3476 12.2413 13.5 12.0878 13.5 11.9C13.5 11.7122 13.6522 11.56 13.84 11.56H15.8725C17.5336 11.56 18.3823 13.3583 16.9088 14.1253C15.7658 14.7203 14.489 15.0058 13.2035 14.954C11.9179 14.9022 10.6678 14.5148 9.57567 13.8297C8.48352 13.1446 7.58681 12.1854 6.97344 11.0461C6.36007 9.90677 6.05109 8.62644 6.07679 7.33061C6.10248 6.03477 6.46197 4.7679 7.12002 3.65416C7.77807 2.54043 8.71208 1.61807 9.83052 0.977475C10.949 0.336884 12.2134 5.36759e-05 13.5 0Z" fill="white"/>
</svg>
