<svg width="23" height="24" viewBox="0 0 23 24" fill="none" xmlns="http://www.w3.org/2000/svg">
<path d="M11.1 0.428711C12.0962 0.428649 13.0546 0.79163 13.7787 1.44319C14.5028 2.09476 14.9376 2.9855 14.994 3.93271L15 4.143H21.3C21.528 4.14306 21.7475 4.22556 21.9141 4.37382C22.0808 4.52208 22.1821 4.72505 22.1976 4.94172C22.2132 5.15838 22.1418 5.37259 21.9979 5.54105C21.854 5.70952 21.6483 5.81968 21.4224 5.84928L21.3 5.85728H20.3448L18.8088 20.7373C18.7318 21.4791 18.3805 22.1707 17.8176 22.6887C17.2546 23.2066 16.5167 23.5171 15.7356 23.5647L15.5244 23.5716H6.6756C5.89255 23.5715 5.13503 23.3063 4.53841 22.8233C3.94178 22.3403 3.54494 21.671 3.4188 20.935L3.3912 20.7361L1.854 5.85728H0.9C0.682515 5.85727 0.47239 5.78226 0.308483 5.64612C0.144577 5.50998 0.0379779 5.32192 0.00839996 5.11671L0 5.00014C9.17148e-06 4.79301 0.0787712 4.59289 0.22172 4.43679C0.36467 4.28069 0.562136 4.17917 0.7776 4.151L0.9 4.143H7.2C7.2 3.15791 7.61089 2.21316 8.34228 1.5166C9.07368 0.820036 10.0657 0.428711 11.1 0.428711ZM18.5364 5.85728H3.6624L5.1828 20.5681C5.21647 20.8964 5.36835 21.2034 5.61267 21.4371C5.85699 21.6709 6.1787 21.8169 6.5232 21.8504L6.6756 21.8573H15.5244C16.2444 21.8573 16.8552 21.3716 16.9944 20.7121L17.0184 20.5681L18.5352 5.85728H18.5364ZM13.2 9.00014C13.4175 9.00015 13.6276 9.07516 13.7915 9.2113C13.9554 9.34744 14.062 9.53551 14.0916 9.74071L14.1 9.85728V17.8573C14.0999 18.0745 14.0133 18.2835 13.8576 18.4422C13.702 18.6009 13.4888 18.6974 13.2613 18.7122C13.0338 18.727 12.8089 18.659 12.632 18.5219C12.4552 18.3849 12.3395 18.189 12.3084 17.9739L12.3 17.8573V9.85728C12.3 9.62995 12.3948 9.41194 12.5636 9.25119C12.7324 9.09045 12.9613 9.00014 13.2 9.00014ZM9 9.00014C9.21748 9.00015 9.42761 9.07516 9.59152 9.2113C9.75542 9.34744 9.86202 9.53551 9.8916 9.74071L9.9 9.85728V17.8573C9.89993 18.0745 9.81331 18.2835 9.65763 18.4422C9.50196 18.6009 9.28884 18.6974 9.06134 18.7122C8.83385 18.727 8.60893 18.659 8.43204 18.5219C8.25515 18.3849 8.13948 18.189 8.1084 17.9739L8.1 17.8573V9.85728C8.1 9.62995 8.19482 9.41194 8.3636 9.25119C8.53239 9.09045 8.7613 9.00014 9 9.00014ZM11.1 2.143C10.573 2.14302 10.0652 2.33176 9.67753 2.67177C9.28984 3.01178 9.05057 3.4782 9.0072 3.97843L9 4.143H13.2C13.2 3.61256 12.9788 3.10386 12.5849 2.72878C12.1911 2.35371 11.657 2.143 11.1 2.143Z" fill="#FF0000"/>
</svg>
