<svg width="116" height="101" viewBox="0 0 116 101" fill="none" xmlns="http://www.w3.org/2000/svg">
<rect y="0.480469" width="115.115" height="100.033" rx="10" fill="#CAF5B9"/>
<path d="M49.4338 71.507C50.5111 71.507 51.5443 71.1381 52.306 70.4814C53.0678 69.8247 53.4958 68.9341 53.4958 68.0054V46.9954C53.4958 46.0667 53.0678 45.1761 52.306 44.5194C51.5443 43.8627 50.5111 43.4938 49.4338 43.4938C48.3565 43.4938 47.3233 43.8627 46.5615 44.5194C45.7998 45.1761 45.3718 46.0667 45.3718 46.9954V68.0054C45.3718 68.9341 45.7998 69.8247 46.5615 70.4814C47.3233 71.1381 48.3565 71.507 49.4338 71.507ZM90.0535 29.4871H73.8056V25.9855C73.8056 23.1994 72.5217 20.5274 70.2364 18.5573C67.9511 16.5872 64.8516 15.4805 61.6197 15.4805H53.4958C50.2639 15.4805 47.1643 16.5872 44.879 18.5573C42.5937 20.5274 41.3098 23.1994 41.3098 25.9855V29.4871H25.062C23.9847 29.4871 22.9515 29.856 22.1897 30.5127C21.428 31.1694 21 32.0601 21 32.9888C21 33.9175 21.428 34.8081 22.1897 35.4648C22.9515 36.1215 23.9847 36.4904 25.062 36.4904H29.1239V75.0087C29.1239 77.7948 30.4078 80.4668 32.6931 82.4369C34.9784 84.4069 38.0779 85.5137 41.3098 85.5137H73.8056C77.0375 85.5137 80.137 84.4069 82.4223 82.4369C84.7076 80.4668 85.9915 77.7948 85.9915 75.0087V36.4904H90.0535C91.1308 36.4904 92.164 36.1215 92.9257 35.4648C93.6875 34.8081 94.1155 33.9175 94.1155 32.9888C94.1155 32.0601 93.6875 31.1694 92.9257 30.5127C92.164 29.856 91.1308 29.4871 90.0535 29.4871ZM49.4338 25.9855C49.4338 25.0568 49.8617 24.1661 50.6235 23.5094C51.3853 22.8527 52.4185 22.4838 53.4958 22.4838H61.6197C62.697 22.4838 63.7302 22.8527 64.4919 23.5094C65.2537 24.1661 65.6817 25.0568 65.6817 25.9855V29.4871H49.4338V25.9855ZM77.8676 75.0087C77.8676 75.9374 77.4396 76.8281 76.6779 77.4848C75.9161 78.1414 74.8829 78.5104 73.8056 78.5104H41.3098C40.2325 78.5104 39.1994 78.1414 38.4376 77.4848C37.6758 76.8281 37.2479 75.9374 37.2479 75.0087V36.4904H77.8676V75.0087ZM65.6817 71.507C66.759 71.507 67.7921 71.1381 68.5539 70.4814C69.3157 69.8247 69.7436 68.9341 69.7436 68.0054V46.9954C69.7436 46.0667 69.3157 45.1761 68.5539 44.5194C67.7921 43.8627 66.759 43.4938 65.6817 43.4938C64.6044 43.4938 63.5712 43.8627 62.8094 44.5194C62.0477 45.1761 61.6197 46.0667 61.6197 46.9954V68.0054C61.6197 68.9341 62.0477 69.8247 62.8094 70.4814C63.5712 71.1381 64.6044 71.507 65.6817 71.507Z" fill="#4AAA42"/>
</svg>
