<svg width="650" height="755" viewBox="0 0 650 755" fill="none" xmlns="http://www.w3.org/2000/svg">
<path d="M325 754.999C504.493 754.999 650 672.374 650 570.452C650 468.529 504.493 385.904 325 385.904C145.507 385.904 0 468.529 0 570.452C0 672.374 145.507 754.999 325 754.999Z" fill="#F5F5F5"/>
<path d="M460.247 686.812L217.647 546.794C215.513 545.565 213.741 543.796 212.508 541.664C211.276 539.533 210.627 537.114 210.627 534.652C210.627 532.19 211.276 529.772 212.508 527.64C213.741 525.509 215.513 523.739 217.647 522.51L241.579 507.425C245.71 505.047 250.394 503.795 255.161 503.795C259.929 503.795 264.612 505.047 268.744 507.425L511.376 647.46C513.51 648.689 515.283 650.458 516.515 652.59C517.748 654.721 518.397 657.14 518.397 659.602C518.397 662.064 517.748 664.482 516.515 666.614C515.283 668.745 513.51 670.515 511.376 671.744L487.444 686.812C483.312 689.203 478.621 690.462 473.846 690.462C469.071 690.462 464.38 689.203 460.247 686.812V686.812Z" fill="#E0E0E0"/>
<path d="M91.375 559.159C120.451 559.159 144.022 545.63 144.022 528.94C144.022 512.25 120.451 498.721 91.375 498.721C62.2992 498.721 38.7285 512.25 38.7285 528.94C38.7285 545.63 62.2992 559.159 91.375 559.159Z" fill="#E6E6E6"/>
<path d="M546.275 566.084L569.365 579.355C569.365 579.355 557.573 542.311 563.857 504.969C566.232 490.857 571.328 483.85 573.109 480.075C574.891 476.3 588.695 452.971 576.408 442.288C564.12 431.605 535.538 453.087 537.088 510.575C537.793 529.391 540.88 548.043 546.275 566.084V566.084Z" fill="#4AAA42"/>
<path opacity="0.5" d="M546.275 566.084L569.365 579.355C569.365 579.355 557.573 542.311 563.857 504.969C566.232 490.857 571.328 483.85 573.109 480.075C574.891 476.3 588.695 452.971 576.408 442.288C564.12 431.605 535.538 453.087 537.088 510.575C537.793 529.391 540.88 548.043 546.275 566.084V566.084Z" fill="black"/>
<path d="M557.013 573.074C556.845 573.077 556.68 573.029 556.541 572.934C556.402 572.839 556.296 572.704 556.238 572.546C556.156 572.299 547.332 548.196 547.612 509.453C547.892 470.711 568.262 449.674 568.459 449.476C568.536 449.399 568.627 449.338 568.728 449.296C568.828 449.254 568.936 449.232 569.045 449.232C569.154 449.232 569.262 449.254 569.362 449.296C569.463 449.338 569.554 449.399 569.631 449.476C569.708 449.553 569.769 449.644 569.811 449.744C569.853 449.845 569.874 449.953 569.874 450.062C569.874 450.17 569.853 450.278 569.811 450.379C569.769 450.479 569.708 450.57 569.631 450.647C569.433 450.845 549.542 471.255 549.261 509.47C548.981 547.685 557.689 571.755 557.788 571.986C557.863 572.191 557.852 572.418 557.759 572.616C557.667 572.814 557.499 572.967 557.294 573.041C557.203 573.069 557.108 573.08 557.013 573.074V573.074Z" fill="white"/>
<path d="M555.906 571.754L587.474 589.889C590.763 591.833 594.664 592.466 598.4 591.662C602.135 590.859 605.43 588.677 607.628 585.553C609.718 582.303 610.6 578.423 610.119 574.59C608.602 558.203 601.477 554.427 610.201 547.124C618.926 539.82 621.203 539.309 620.708 532.286C620.213 525.263 615.413 522.197 613.137 519.427C610.861 516.657 604.561 510.854 608.849 502.281C613.137 493.708 618.992 485.416 610.119 481.624C604.825 479.349 596.001 482.382 590.195 488.68C584.39 494.978 579.606 499.511 574.048 501.028C568.49 502.545 556.912 502.792 557.406 512.371C557.901 521.949 560.441 525.23 558.165 529.5C553.877 537.479 535.223 542.013 555.906 571.754Z" fill="#4AAA42"/>
<path d="M571.51 581.514C571.304 581.508 571.108 581.428 570.956 581.289C570.805 581.149 570.709 580.96 570.685 580.756C570.685 580.196 565.836 523.615 604.76 485.96C604.921 485.828 605.125 485.761 605.333 485.773C605.541 485.785 605.736 485.875 605.88 486.025C606.024 486.176 606.106 486.375 606.11 486.583C606.113 486.791 606.037 486.992 605.898 487.147C567.535 524.258 572.285 580.047 572.334 580.608C572.353 580.824 572.285 581.039 572.146 581.205C572.007 581.372 571.808 581.477 571.592 581.498L571.51 581.514Z" fill="white"/>
<path d="M577.761 532.814C577.553 532.815 577.353 532.737 577.2 532.596C577.047 532.456 576.953 532.263 576.936 532.056C576.591 527.671 575.355 523.403 573.305 519.511C571.255 515.619 568.433 512.186 565.012 509.42C564.922 509.358 564.846 509.278 564.788 509.186C564.73 509.094 564.69 508.992 564.672 508.884C564.654 508.777 564.657 508.667 564.681 508.561C564.705 508.455 564.75 508.355 564.814 508.266C564.875 508.177 564.953 508.102 565.043 508.044C565.134 507.986 565.235 507.946 565.341 507.928C565.447 507.91 565.556 507.912 565.661 507.937C565.765 507.961 565.864 508.005 565.952 508.068C569.598 510.958 572.604 514.574 574.778 518.686C576.953 522.799 578.25 527.318 578.586 531.957C578.604 532.177 578.535 532.396 578.393 532.566C578.25 532.736 578.047 532.843 577.827 532.864L577.761 532.814Z" fill="white"/>
<path d="M575.072 542.524C574.872 542.526 574.679 542.456 574.527 542.326C574.364 542.18 574.264 541.976 574.248 541.758C574.233 541.539 574.303 541.323 574.445 541.156C574.841 540.694 584.588 529.945 607.432 532.797C607.648 532.826 607.844 532.939 607.977 533.112C608.11 533.285 608.169 533.504 608.141 533.72C608.112 533.938 607.999 534.135 607.827 534.271C607.654 534.406 607.435 534.469 607.217 534.446C585.281 531.693 575.764 542.145 575.666 542.244C575.59 542.328 575.499 542.396 575.397 542.444C575.295 542.492 575.184 542.52 575.072 542.524V542.524Z" fill="white"/>
<path d="M452.855 670.08L239.498 546.944C224.439 538.255 212.234 514.944 212.234 494.88V38.2099C212.234 18.1461 224.439 8.93028 239.498 17.6186L452.855 140.755C467.913 149.443 480.118 172.754 480.118 192.818V649.488C480.118 669.536 467.913 678.768 452.855 670.08Z" fill="#455A64"/>
<path d="M477.429 126.394L264.055 3.25845C257.623 -0.450964 251.719 -0.879609 247.051 1.3955C246.479 1.68155 245.928 2.00654 245.402 2.36819L221.486 16.2661C226.302 13.381 232.603 13.5953 239.513 17.585L452.87 140.721C467.929 149.409 480.134 172.721 480.134 192.785V649.455C480.134 660.072 476.72 667.59 471.277 671.151L494.879 657.418C500.899 654.219 504.775 646.388 504.775 635.161V178.491C504.775 158.394 492.487 135.083 477.429 126.394Z" fill="#37474F"/>
<path d="M480.119 192.784V649.454C480.119 660.071 476.705 667.589 471.262 671.15L494.88 657.417C500.9 654.218 504.776 646.387 504.776 635.16V178.49L480.201 192.751L480.119 192.784Z" fill="#263238"/>
<path d="M504.692 213.92L480.117 228.098V239.177L504.692 224.982V213.92Z" fill="#37474F"/>
<path d="M493.924 287.596C491.73 288.866 489.949 287.514 489.949 284.596V260.773C489.971 259.284 490.343 257.821 491.033 256.501C491.723 255.181 492.713 254.041 493.924 253.173V253.173C496.118 251.904 497.899 253.173 497.899 256.174V279.996C497.877 281.485 497.506 282.949 496.815 284.269C496.125 285.588 495.135 286.728 493.924 287.596V287.596Z" fill="#37474F"/>
<path d="M489.93 284.663V260.775C489.953 259.286 490.324 257.822 491.014 256.503C491.704 255.183 492.695 254.043 493.905 253.175C494.267 252.922 494.688 252.767 495.128 252.727C495.568 252.686 496.01 252.761 496.412 252.944L493.427 251.411C493.019 251.214 492.566 251.129 492.114 251.164C491.662 251.199 491.227 251.352 490.854 251.608C489.642 252.477 488.65 253.616 487.957 254.936C487.264 256.255 486.889 257.719 486.863 259.209V283.015C486.801 283.616 486.892 284.223 487.129 284.78C487.365 285.336 487.739 285.824 488.215 286.197V286.197L491.332 287.845C490.836 287.488 490.444 287.005 490.198 286.445C489.951 285.886 489.859 285.271 489.93 284.663V284.663Z" fill="#455A64"/>
<path d="M493.924 345.25C491.73 346.52 489.949 345.25 489.949 342.25V318.427C489.973 316.938 490.344 315.476 491.035 314.156C491.725 312.836 492.714 311.696 493.924 310.827V310.827C496.118 309.558 497.899 310.827 497.899 313.844V337.65C497.879 339.14 497.509 340.604 496.819 341.924C496.128 343.245 495.137 344.384 493.924 345.25V345.25Z" fill="#37474F"/>
<path d="M489.931 342.25V318.427C489.955 316.939 490.326 315.476 491.017 314.156C491.707 312.836 492.696 311.696 493.906 310.827C494.27 310.579 494.691 310.427 495.13 310.387C495.568 310.346 496.01 310.419 496.413 310.597V310.597L493.428 309.047C493.022 308.842 492.567 308.752 492.114 308.787C491.66 308.822 491.225 308.98 490.855 309.245C489.64 310.11 488.646 311.249 487.953 312.569C487.259 313.889 486.886 315.354 486.863 316.845V340.717C486.8 341.318 486.891 341.926 487.127 342.483C487.364 343.04 487.739 343.527 488.216 343.899V343.899L491.333 345.547C490.817 345.182 490.412 344.68 490.164 344.097C489.917 343.515 489.836 342.876 489.931 342.25Z" fill="#455A64"/>
<path d="M445.399 153.563L235.736 32.5208C234.861 32.0176 233.87 31.7519 232.86 31.75C231.851 31.7481 230.858 32.0102 229.981 32.5101C229.104 33.01 228.373 33.7304 227.861 34.5999C227.349 35.4694 227.073 36.4577 227.061 37.4667V494.879C227.061 510.145 237.897 528.89 251.124 536.523L455.641 654.614C456.611 655.172 457.71 655.465 458.829 655.464C459.948 655.463 461.048 655.168 462.016 654.609C462.985 654.049 463.79 653.245 464.35 652.277C464.91 651.308 465.206 650.21 465.207 649.091V187.904C465.289 175.308 456.35 159.861 445.399 153.563Z" fill="#4AAA42"/>
<path opacity="0.9" d="M445.399 153.563L235.736 32.5208C234.861 32.0176 233.87 31.7519 232.86 31.75C231.851 31.7481 230.858 32.0102 229.981 32.5101C229.104 33.01 228.373 33.7304 227.861 34.5999C227.349 35.4694 227.073 36.4577 227.061 37.4667V494.879C227.061 510.145 237.897 528.89 251.124 536.523L455.641 654.614C456.611 655.172 457.71 655.465 458.829 655.464C459.948 655.463 461.048 655.168 462.016 654.609C462.985 654.049 463.79 653.245 464.35 652.277C464.91 651.308 465.206 650.21 465.207 649.091V187.904C465.289 175.308 456.35 159.861 445.399 153.563Z" fill="white"/>
<path d="M298.445 64.125L301.694 77.7921L371.197 117.854L383.204 111.457L298.445 64.125Z" fill="#455A64"/>
<path d="M318.88 77.3321C318.88 79.6072 317.231 80.514 315.318 79.3929C314.291 78.7113 313.438 77.7984 312.828 76.7276C312.218 75.6567 311.867 74.4578 311.805 73.227C311.805 70.9684 313.454 70.0452 315.367 71.1827C316.394 71.8608 317.247 72.7706 317.857 73.8388C318.467 74.907 318.818 76.1036 318.88 77.3321V77.3321Z" fill="#263238"/>
<path d="M365.705 106.265C365.324 106.262 364.95 106.166 364.616 105.985L329.122 86.2014C328.621 85.9073 328.255 85.4289 328.102 84.8685C327.949 84.308 328.021 83.71 328.303 83.2021C328.585 82.6942 329.055 82.3167 329.612 82.1501C330.168 81.9835 330.768 82.0412 331.283 82.3107L366.793 102.094C367.225 102.334 367.564 102.71 367.759 103.164C367.953 103.618 367.991 104.124 367.866 104.601C367.741 105.079 367.461 105.502 367.07 105.803C366.679 106.104 366.198 106.267 365.705 106.265V106.265Z" fill="#263238"/>
<path d="M271.032 127.713C268.871 126.46 267.305 127.548 267.305 130.301C267.305 131.678 267.645 133.034 268.295 134.247C268.945 135.461 269.886 136.495 271.032 137.258C271.646 137.631 272.351 137.828 273.069 137.828C273.787 137.828 274.492 137.631 275.106 137.258L278.553 143.49C277.34 144.159 275.965 144.478 274.582 144.411C273.199 144.344 271.861 143.894 270.719 143.111C267.918 141.398 265.583 139.022 263.921 136.193C262.258 133.363 261.318 130.168 261.186 126.889C261.186 120.772 265.292 118.645 270.95 121.943C274.144 123.999 276.761 126.836 278.553 130.186L275.106 132.923C274.256 130.843 272.846 129.04 271.032 127.713Z" fill="#4AAA42"/>
<path d="M298.395 148.371C298.395 154.537 294.223 156.614 288.499 153.317C285.619 151.596 283.209 149.191 281.482 146.315C279.756 143.439 278.767 140.181 278.604 136.83C278.604 130.665 282.776 128.587 288.499 131.885C291.387 133.597 293.803 136.001 295.53 138.879C297.258 141.756 298.242 145.018 298.395 148.371V148.371ZM284.723 140.507C284.751 141.922 285.116 143.311 285.787 144.558C286.458 145.805 287.416 146.874 288.582 147.678C290.627 148.865 292.276 147.678 292.276 144.876C292.271 143.492 291.932 142.13 291.289 140.905C290.646 139.68 289.718 138.627 288.582 137.836C286.504 136.633 284.723 137.655 284.723 140.507Z" fill="#4AAA42"/>
<path d="M305.042 141.826L312.167 156.663V145.98L317.56 149.096V169.885L312.612 167.017L305.52 152.311V162.928L300.094 159.796V138.957L305.042 141.826Z" fill="#4AAA42"/>
<path d="M335.191 159.219V164.659L330.045 161.692V177.057L324.091 173.611V158.246L318.979 155.295V149.871L335.191 159.219Z" fill="#4AAA42"/>
<path d="M346.802 183.784L340.04 179.876L339.116 182.283L333.014 178.755L340.617 162.352L346.736 165.88L354.059 190.906L347.709 187.246L346.802 183.784ZM345.334 178.014L343.487 170.908L341.59 175.854L345.334 178.014Z" fill="#4AAA42"/>
<path d="M363.511 181.08C361.35 179.844 359.783 180.915 359.783 183.685C359.786 185.061 360.127 186.416 360.777 187.629C361.428 188.842 362.366 189.877 363.511 190.642C364.129 191.011 364.836 191.206 365.556 191.206C366.276 191.206 366.982 191.011 367.601 190.642L371.048 196.874C369.83 197.535 368.454 197.849 367.069 197.783C365.685 197.716 364.346 197.27 363.197 196.495C360.394 194.781 358.058 192.402 356.395 189.569C354.732 186.736 353.794 183.538 353.664 180.256C353.664 174.139 357.787 172.013 363.428 175.31C366.619 177.376 369.239 180.211 371.048 183.553L367.601 186.273C366.732 184.205 365.318 182.41 363.511 181.08Z" fill="#4AAA42"/>
<path d="M387.309 189.307V194.731L382.163 191.763V207.178L376.209 203.732V188.367L371.096 185.416V179.992L387.309 189.307Z" fill="#4AAA42"/>
<path d="M404.907 214.826C406.375 215.667 407.497 215.007 407.497 212.947V200.961L413.467 204.39V216.376C413.467 221.899 410.169 223.547 404.891 220.53C402.348 219.119 400.211 217.078 398.683 214.605C397.155 212.131 396.289 209.306 396.166 206.402V194.416L402.137 197.862V209.847C402.16 210.84 402.424 211.811 402.907 212.679C403.389 213.546 404.076 214.283 404.907 214.826V214.826Z" fill="#4AAA42"/>
<path d="M423.084 214.893C422.407 214.514 421.979 214.498 421.979 215.124C421.979 217.729 431.297 221.488 431.297 229.022C431.297 233.638 427.784 233.655 423.727 231.314C420.16 229.129 417.088 226.227 414.705 222.79L416.915 218.9C418.729 221.706 421.057 224.145 423.776 226.088C424.651 226.599 425.211 226.599 425.211 225.857C425.211 223.153 415.876 219.559 415.876 212.256C415.876 208.101 418.911 207.31 423.595 209.947C426.612 211.772 429.268 214.136 431.429 216.921L429.269 220.911C427.484 218.639 425.404 216.615 423.084 214.893V214.893Z" fill="#4AAA42"/>
<path d="M241.034 230.159C247.726 221.943 251.094 211.519 250.475 200.942C249.855 190.366 245.293 180.406 237.687 173.027C230.082 165.648 219.986 161.386 209.391 161.082C198.797 160.778 188.473 164.454 180.457 171.385C172.44 178.316 167.314 187.999 166.089 198.522C164.864 209.046 167.629 219.646 173.838 228.232C180.048 236.817 189.252 242.765 199.633 244.901C210.014 247.037 220.82 245.207 229.917 239.771L250.567 248.739L241.034 230.159Z" fill="#4AAA42"/>
<path opacity="0.4" d="M241.034 230.159C247.726 221.943 251.094 211.519 250.475 200.942C249.855 190.366 245.293 180.406 237.687 173.027C230.082 165.648 219.986 161.386 209.391 161.082C198.797 160.778 188.473 164.454 180.457 171.385C172.44 178.316 167.314 187.999 166.089 198.522C164.864 209.046 167.629 219.646 173.838 228.232C180.048 236.817 189.252 242.765 199.633 244.901C210.014 247.037 220.82 245.207 229.917 239.771L250.567 248.739L241.034 230.159Z" fill="black"/>
<path d="M192.476 201.143C192.476 200.5 192.014 200.137 191.173 200.137C189.222 200.393 187.4 201.252 185.961 202.594L183.619 198.043C186.084 196.189 189.062 195.141 192.146 195.043C196.105 195.043 199.106 197.12 199.106 200.22C199.106 202.429 197.457 204.556 195.346 206.682L192.394 209.6H199.37V214.447H184.378V210.474L191.058 203.566C191.777 202.93 192.274 202.081 192.476 201.143V201.143Z" fill="white"/>
<path d="M211.577 195.324L207.025 206.238H208.889V202.562H214.628V206.238H216.806V210.739H214.628V214.448H208.889V210.739H200.725V206.65L205.673 195.324H211.577Z" fill="white"/>
<path d="M234.518 204.936V214.449H228.383V206.7C228.418 206.448 228.399 206.191 228.326 205.946C228.254 205.702 228.13 205.476 227.962 205.284C227.795 205.092 227.589 204.938 227.357 204.832C227.125 204.727 226.873 204.672 226.618 204.672C225.414 204.672 224.655 205.612 224.655 207.063V214.449H218.52V194.236H224.655V201.672C225.135 200.913 225.804 200.293 226.596 199.871C227.388 199.449 228.277 199.24 229.174 199.265C229.91 199.246 230.641 199.382 231.32 199.665C231.999 199.948 232.61 200.371 233.115 200.906C233.619 201.441 234.005 202.077 234.247 202.771C234.488 203.466 234.581 204.203 234.518 204.936V204.936Z" fill="white"/>
<path d="M434.582 358.125V562.967C434.586 565.284 433.978 567.56 432.822 569.568C431.665 571.576 430 573.244 427.993 574.403C425.987 575.563 423.71 576.174 421.392 576.175C419.075 576.176 416.798 575.567 414.79 574.408L304.417 510.705L284.856 499.429C278.12 495.536 272.525 489.943 268.629 483.211C264.733 476.479 262.674 468.842 262.656 461.065V256.207C262.653 253.89 263.26 251.613 264.417 249.605C265.573 247.598 267.239 245.93 269.245 244.77C271.252 243.61 273.528 242.999 275.846 242.998C278.164 242.997 280.441 243.607 282.448 244.765L412.415 319.761C419.154 323.648 424.75 329.24 428.641 335.974C432.532 342.708 434.581 350.348 434.582 358.125V358.125Z" fill="#4AAA42"/>
<path opacity="0.5" d="M434.582 358.125V562.967C434.586 565.284 433.978 567.56 432.822 569.568C431.665 571.576 430 573.244 427.993 574.403C425.987 575.563 423.71 576.174 421.392 576.175C419.075 576.176 416.798 575.567 414.79 574.408L304.417 510.705L284.856 499.429C278.12 495.536 272.525 489.943 268.629 483.211C264.733 476.479 262.674 468.842 262.656 461.065V256.207C262.653 253.89 263.26 251.613 264.417 249.605C265.573 247.598 267.239 245.93 269.245 244.77C271.252 243.61 273.528 242.999 275.846 242.998C278.164 242.997 280.441 243.607 282.448 244.765L412.415 319.761C419.154 323.648 424.75 329.24 428.641 335.974C432.532 342.708 434.581 350.348 434.582 358.125V358.125Z" fill="white"/>
<path d="M371 479.332C371 479.332 391.666 513.591 376.74 552.218L304.367 510.705L371 479.332Z" fill="#263238"/>
<path d="M403.958 325.412C405.522 312.716 396.493 301.155 383.791 299.592C371.088 298.028 359.523 307.054 357.959 319.751C356.395 332.447 365.424 344.008 378.126 345.571C390.828 347.135 402.394 338.109 403.958 325.412Z" fill="#263238"/>
<path d="M381.078 257.609C381.078 257.609 388.187 246.068 390.364 246.909C392.541 247.75 388.945 258.746 388.945 258.746C388.945 258.746 399.699 260.988 397.703 263.692C395.708 266.396 382.563 265.753 382.563 265.753L381.078 257.609Z" fill="#263238"/>
<path d="M386.026 287.35C381.078 324.51 349.741 324.51 349.741 324.51L284.097 295.626C284.097 295.626 279.149 291.29 277.632 281.332C277.05 277.253 277.05 273.113 277.632 269.034C277.632 269.034 277.632 268.951 277.632 268.918C279.727 253.289 291.42 236.49 316.886 231.329C322.467 230.203 328.148 229.651 333.841 229.681C336.595 229.671 339.348 229.809 342.088 230.093C361.88 232.038 375.75 241.271 382.364 255.63C383.852 258.871 384.959 262.274 385.663 265.769C387.005 272.89 387.128 280.188 386.026 287.35Z" fill="#263238"/>
<path d="M228.432 359.23C228.432 359.23 205.127 358.422 196.154 381.124C196.154 381.124 206.05 387.801 219.03 381.124C232.011 374.447 228.432 359.23 228.432 359.23Z" fill="#4AAA42"/>
<path opacity="0.5" d="M228.432 359.23C228.432 359.23 205.127 358.422 196.154 381.124C196.154 381.124 206.05 387.801 219.03 381.124C232.011 374.447 228.432 359.23 228.432 359.23Z" fill="black"/>
<path d="M227.773 370.161C227.773 370.161 221.175 341.508 217.695 341.162C214.215 340.815 213.539 349.899 213.819 355.027L205.573 337.287C205.311 336.736 204.939 336.244 204.48 335.842C204.021 335.44 203.485 335.136 202.904 334.949C202.322 334.762 201.709 334.696 201.102 334.755C200.494 334.814 199.905 334.997 199.371 335.292C191.125 339.826 176.66 353.609 207.156 387.686L227.773 370.161Z" fill="#945959"/>
<path d="M312.218 350.344L307.27 349.701C302.283 349.04 297.211 349.718 292.573 351.665C287.935 353.612 283.9 356.758 280.881 360.78L251.44 399.951L228.35 359.23C228.35 359.23 225.579 386.927 196.072 381.124L227.756 434.424C229.761 437.798 232.552 440.638 235.891 442.703C239.23 444.767 243.019 445.995 246.935 446.282C250.851 446.568 254.778 445.905 258.382 444.349C261.986 442.792 265.161 440.388 267.637 437.342L294.752 404.023L312.218 350.344Z" fill="#4AAA42"/>
<path d="M375.058 441.761C368.461 458.478 367.735 461.742 371.759 470.101C374.562 476.274 376.771 482.7 378.357 489.291C378.357 489.291 347.778 523.549 304.252 510.723L284.691 499.446C280.623 497.101 276.959 494.118 273.839 490.61L279.793 446.229C280.092 443.893 279.856 441.519 279.1 439.288L272.849 420.972C269.799 412.026 269.345 402.399 271.54 393.206C273.735 384.013 278.489 375.628 285.252 369.023L306.264 348.498L361.451 355.554L369.698 357.912C375.096 359.472 379.75 362.928 382.805 367.644C385.859 372.359 387.108 378.018 386.323 383.581C383.618 403.035 379.198 431.259 375.058 441.761Z" fill="#4AAA42"/>
<path opacity="0.5" d="M375.058 441.761C368.461 458.478 367.735 461.742 371.759 470.101C374.562 476.274 376.771 482.7 378.357 489.291C378.357 489.291 347.778 523.549 304.252 510.723L284.691 499.446C280.623 497.101 276.959 494.118 273.839 490.61L279.793 446.229C280.092 443.893 279.856 441.519 279.1 439.288L272.849 420.972C269.799 412.026 269.345 402.399 271.54 393.206C273.735 384.013 278.489 375.628 285.252 369.023L306.264 348.498L361.451 355.554L369.698 357.912C375.096 359.472 379.75 362.928 382.805 367.644C385.859 372.359 387.108 378.018 386.323 383.581C383.618 403.035 379.198 431.259 375.058 441.761Z" fill="black"/>
<path d="M341.773 391.824L330.722 382.41C329.552 381.41 328.141 380.731 326.628 380.442C325.115 380.153 323.553 380.263 322.096 380.762L308.737 385.361L306.939 377.877C306.658 376.712 306.145 375.616 305.429 374.656C304.713 373.695 303.811 372.889 302.775 372.287C301.739 371.685 300.592 371.298 299.403 371.151C298.214 371.004 297.007 371.099 295.856 371.43L290.066 373.079L299.863 354.318C303.062 348.207 307.99 343.173 314.031 339.843L317.874 337.732L349.624 339.381C349.624 339.381 361.449 344.327 361.449 355.455L341.773 391.725" fill="#4AAA42"/>
<path d="M349.758 353.443L317.926 378.238V299.285H349.758V353.443Z" fill="#945959"/>
<path d="M318.42 346.932L308.738 385.427L349.625 353.444L318.42 346.932Z" fill="#945959"/>
<path d="M317.925 341.21C325.003 338.583 331.473 334.545 336.942 329.342C342.412 324.138 346.766 317.878 349.74 310.941V299.285H317.908L317.925 341.21Z" fill="#703838"/>
<path d="M324.787 240.775C312.714 240.775 287.051 247.502 284.082 279.089C281.113 310.677 283.983 335.143 300.278 337.517C316.573 339.891 354.442 328.07 359.522 287.184C364.602 246.298 336.547 240.775 324.787 240.775Z" fill="#945959"/>
<path d="M305.786 292.461V311.074L294.867 307.727L305.786 292.461Z" fill="#703838"/>
<path d="M317.926 299.466C320.021 299.466 321.72 297.769 321.72 295.675C321.72 293.58 320.021 291.883 317.926 291.883C315.831 291.883 314.133 293.58 314.133 295.675C314.133 297.769 315.831 299.466 317.926 299.466Z" fill="#263238"/>
<path d="M296.749 293.037C296.746 293.786 296.52 294.518 296.102 295.139C295.683 295.76 295.089 296.244 294.396 296.528C293.702 296.813 292.94 296.885 292.205 296.737C291.471 296.589 290.796 296.227 290.267 295.696C289.739 295.165 289.379 294.489 289.234 293.754C289.089 293.019 289.165 292.257 289.452 291.565C289.74 290.874 290.226 290.282 290.85 289.866C291.473 289.45 292.206 289.229 292.956 289.229C293.455 289.229 293.95 289.327 294.411 289.519C294.872 289.71 295.291 289.991 295.644 290.345C295.996 290.699 296.275 291.119 296.465 291.581C296.655 292.043 296.751 292.538 296.749 293.037V293.037Z" fill="#263238"/>
<path d="M288.319 285.124L295.74 280.722C295.74 280.722 292.904 277.771 290.067 279.535C287.23 281.299 288.319 285.124 288.319 285.124Z" fill="#263238"/>
<path d="M300.656 318.623C304.271 318.887 307.868 317.923 310.866 315.887C310.866 315.887 311.575 321.278 307.056 322.3C302.536 323.322 300.656 318.623 300.656 318.623Z" fill="#703838"/>
<path d="M294.174 251.526C294.174 251.526 298.709 295.132 358.036 296.5C358.036 296.5 375.964 253.158 340.536 239.079C305.109 224.999 294.174 251.526 294.174 251.526Z" fill="#263238"/>
<path d="M375.503 289.97L368.213 285.75C365.442 284.101 361.615 284.332 357.376 286.772C348.965 291.619 342.137 303.439 342.137 313.15C342.137 318.013 343.786 321.393 346.623 323.042L353.781 327.163L354.193 327.394L354.441 327.542C357.146 328.861 360.758 328.548 364.732 326.256C373.144 321.311 379.972 309.589 379.972 299.878C379.923 294.966 378.224 291.569 375.503 289.97Z" fill="#4AAA42"/>
<path d="M375.445 314.802C381.393 304.504 381.393 293.373 375.445 289.94C369.497 286.507 359.853 292.073 353.905 302.371C347.957 312.669 347.957 323.8 353.905 327.233C359.853 330.666 369.496 325.1 375.445 314.802Z" fill="#4AAA42"/>
<path opacity="0.5" d="M375.445 314.802C381.393 304.504 381.393 293.373 375.445 289.94C369.497 286.507 359.853 292.073 353.905 302.371C347.957 312.669 347.957 323.8 353.905 327.233C359.853 330.666 369.496 325.1 375.445 314.802Z" fill="black"/>
<path d="M378.422 299.121L373.474 296.236C371.594 295.115 368.971 295.263 366.068 296.929C363.036 298.909 360.512 301.576 358.702 304.712C356.891 307.848 355.844 311.366 355.645 314.981C355.645 318.278 356.816 320.636 358.712 321.724L363.66 324.543C363.748 324.607 363.842 324.662 363.941 324.708L364.106 324.807C365.265 325.247 366.515 325.395 367.746 325.24C368.977 325.085 370.151 324.631 371.165 323.917C374.195 321.937 376.717 319.274 378.528 316.141C380.338 313.008 381.387 309.493 381.588 305.881C381.457 302.534 380.302 300.209 378.422 299.121Z" fill="#4AAA42"/>
<path d="M381.458 305.847C381.256 309.459 380.208 312.974 378.397 316.107C376.586 319.24 374.064 321.904 371.034 323.883C365.261 327.18 360.594 324.509 360.594 317.865C360.789 314.249 361.837 310.731 363.651 307.597C365.466 304.462 367.995 301.801 371.034 299.829C376.79 296.499 381.458 299.186 381.458 305.847Z" fill="#4AAA42"/>
<path opacity="0.3" d="M381.458 305.847C381.256 309.459 380.208 312.974 378.397 316.107C376.586 319.24 374.064 321.904 371.034 323.883C365.261 327.18 360.594 324.509 360.594 317.865C360.789 314.249 361.837 310.731 363.651 307.597C365.466 304.462 367.995 301.801 371.034 299.829C376.79 296.499 381.458 299.186 381.458 305.847Z" fill="black"/>
<path d="M352.857 232.269C348.129 228.618 342.338 226.61 336.364 226.548H334.896C328.847 226.483 322.806 227.035 316.869 228.197C317.958 228.197 319.046 228.197 320.168 228.197H316.869V231.263H319.937C330.51 231.623 340.528 236.077 347.875 243.686C355.222 251.294 359.321 261.459 359.306 272.034V285.008C359.306 285.521 359.413 286.029 359.622 286.497C359.83 286.966 360.134 287.386 360.515 287.729C360.896 288.073 361.345 288.333 361.833 288.491C362.321 288.65 362.837 288.705 363.347 288.652H363.727L367.025 287.63C366.805 287.699 366.579 287.743 366.349 287.762C367.332 287.628 368.232 287.138 368.877 286.384C369.522 285.63 369.867 284.665 369.846 283.673V271.638C369.813 249.86 360.395 238.154 352.857 232.269Z" fill="#4AAA42"/>
<path d="M332.092 336.61C330.732 336.61 329.388 336.317 328.15 335.752L317.842 330.988C317.681 330.93 317.533 330.84 317.409 330.722C317.284 330.605 317.186 330.463 317.119 330.305C317.052 330.147 317.019 329.977 317.022 329.806C317.024 329.635 317.062 329.466 317.133 329.311C317.204 329.155 317.307 329.016 317.434 328.902C317.562 328.787 317.712 328.701 317.875 328.648C318.037 328.595 318.21 328.576 318.38 328.593C318.55 328.61 318.715 328.662 318.865 328.746L329.173 333.51C330.488 334.121 331.96 334.307 333.386 334.041C334.811 333.775 336.117 333.071 337.123 332.026L347.019 321.805C347.251 321.573 347.565 321.443 347.893 321.443C348.221 321.443 348.535 321.573 348.767 321.805C348.995 322.039 349.122 322.352 349.122 322.679C349.122 323.005 348.995 323.319 348.767 323.553L338.871 333.774C337.99 334.678 336.936 335.395 335.771 335.883C334.606 336.37 333.355 336.617 332.092 336.61V336.61Z" fill="#4AAA42"/>
<path opacity="0.5" d="M332.092 336.61C330.732 336.61 329.388 336.317 328.15 335.752L317.842 330.988C317.681 330.93 317.533 330.84 317.409 330.722C317.284 330.605 317.186 330.463 317.119 330.305C317.052 330.147 317.019 329.977 317.022 329.806C317.024 329.635 317.062 329.466 317.133 329.311C317.204 329.155 317.307 329.016 317.434 328.902C317.562 328.787 317.712 328.701 317.875 328.648C318.037 328.595 318.21 328.576 318.38 328.593C318.55 328.61 318.715 328.662 318.865 328.746L329.173 333.51C330.488 334.121 331.96 334.307 333.386 334.041C334.811 333.775 336.117 333.071 337.123 332.026L347.019 321.805C347.251 321.573 347.565 321.443 347.893 321.443C348.221 321.443 348.535 321.573 348.767 321.805C348.995 322.039 349.122 322.352 349.122 322.679C349.122 323.005 348.995 323.319 348.767 323.553L338.871 333.774C337.99 334.678 336.936 335.395 335.771 335.883C334.606 336.37 333.355 336.617 332.092 336.61V336.61Z" fill="black"/>
<path d="M320.548 327.527C320.548 328.479 320.266 329.41 319.736 330.201C319.207 330.993 318.455 331.61 317.575 331.974C316.695 332.339 315.727 332.434 314.792 332.248C313.858 332.063 313 331.604 312.327 330.931C311.653 330.258 311.194 329.4 311.009 328.466C310.823 327.532 310.918 326.564 311.283 325.685C311.647 324.805 312.264 324.053 313.056 323.524C313.848 322.995 314.78 322.713 315.732 322.713C317.009 322.713 318.234 323.22 319.137 324.123C320.041 325.026 320.548 326.25 320.548 327.527V327.527Z" fill="#4AAA42"/>
<path opacity="0.5" d="M320.548 327.527C320.548 328.479 320.266 329.41 319.736 330.201C319.207 330.993 318.455 331.61 317.575 331.974C316.695 332.339 315.727 332.434 314.792 332.248C313.858 332.063 313 331.604 312.327 330.931C311.653 330.258 311.194 329.4 311.009 328.466C310.823 327.532 310.918 326.564 311.283 325.685C311.647 324.805 312.264 324.053 313.056 323.524C313.848 322.995 314.78 322.713 315.732 322.713C317.009 322.713 318.234 323.22 319.137 324.123C320.041 325.026 320.548 326.25 320.548 327.527V327.527Z" fill="black"/>
<path d="M369.812 271.639V283.674C369.833 284.665 369.488 285.63 368.843 286.384C368.198 287.138 367.299 287.629 366.315 287.762C365.772 287.82 365.222 287.763 364.703 287.594C364.183 287.426 363.704 287.15 363.298 286.785C362.892 286.419 362.568 285.972 362.346 285.473C362.124 284.974 362.01 284.434 362.01 283.888V271.639C362.02 265.792 360.846 260.005 358.559 254.624C356.272 249.243 352.92 244.381 348.705 240.328C344.489 236.276 339.497 233.118 334.028 231.045C328.56 228.971 322.729 228.025 316.885 228.263C322.822 227.102 328.862 226.549 334.912 226.615H336.347C342.321 226.676 348.112 228.685 352.84 232.335C360.394 238.155 369.812 249.86 369.812 271.639Z" fill="#4AAA42"/>
<path opacity="0.5" d="M369.812 271.639V283.674C369.833 284.665 369.488 285.63 368.843 286.384C368.198 287.138 367.299 287.629 366.315 287.762C365.772 287.82 365.222 287.763 364.703 287.594C364.183 287.426 363.704 287.15 363.298 286.785C362.892 286.419 362.568 285.972 362.346 285.473C362.124 284.974 362.01 284.434 362.01 283.888V271.639C362.02 265.792 360.846 260.005 358.559 254.624C356.272 249.243 352.92 244.381 348.705 240.328C344.489 236.276 339.497 233.118 334.028 231.045C328.56 228.971 322.729 228.025 316.885 228.263C322.822 227.102 328.862 226.549 334.912 226.615H336.347C342.321 226.676 348.112 228.685 352.84 232.335C360.394 238.155 369.812 249.86 369.812 271.639Z" fill="black"/>
<path d="M351.274 498.439C351.274 498.439 343.291 520.416 371.824 530.307C371.824 530.307 381.143 516.624 371.824 505.43C362.506 494.235 351.274 498.439 351.274 498.439Z" fill="#4AAA42"/>
<path opacity="0.7" d="M351.274 498.439C351.274 498.439 343.291 520.416 371.824 530.307C371.824 530.307 381.143 516.624 371.824 505.43C362.506 494.235 351.274 498.439 351.274 498.439Z" fill="black"/>
<path d="M361.285 499.445C361.285 499.445 333.412 509.65 333.56 513.607C333.709 517.564 345.402 514.86 345.402 514.86L341.131 517.663C336.632 520.597 333.148 524.845 331.152 529.83V529.83C330.717 530.929 330.702 532.15 331.11 533.259C331.517 534.369 332.319 535.29 333.362 535.847L343.951 541.452C344.549 541.769 345.204 541.963 345.879 542.023C346.553 542.082 347.232 542.006 347.877 541.799C348.521 541.591 349.117 541.257 349.63 540.815C350.142 540.373 350.561 539.833 350.862 539.227V539.227C351.452 538.061 352.268 537.024 353.261 536.175C354.255 535.326 355.407 534.682 356.651 534.281C362.407 532.368 373.144 526.862 377.449 511.794L361.285 499.445Z" fill="#945959"/>
<path d="M369.647 357.877C369.647 357.877 354.803 366.12 362.687 391.146C370.571 416.172 385.365 454.998 385.365 454.998L351.273 498.439C354.916 498.878 358.424 500.08 361.57 501.966C364.716 503.853 367.429 506.381 369.532 509.386C371.545 512.442 372.804 515.932 373.202 519.57C373.601 523.208 373.128 526.888 371.824 530.307L414.146 475.902C418.06 470.875 420.658 464.951 421.706 458.667C422.755 452.384 422.219 445.938 420.149 439.913L402.007 386.959C399.789 380.49 396.104 374.622 391.24 369.815C386.375 365.007 380.464 361.389 373.968 359.245L369.647 357.877Z" fill="#4AAA42"/>
<path d="M119.081 210.045L53.4877 172.126C52.7329 171.603 51.8595 171.277 50.9466 171.176C50.0338 171.075 49.1102 171.204 48.2594 171.549V171.549C48.08 171.632 47.9089 171.731 47.7481 171.846L33.4814 180.205H33.5803C31.7826 181.227 30.6445 183.601 30.6445 186.997V259.932C30.6445 266.098 34.3885 273.27 39.0231 275.94L104.617 313.859C105.449 314.461 106.44 314.805 107.466 314.849C108.492 314.893 109.509 314.634 110.39 314.106C110.345 314.124 110.305 314.152 110.274 314.189L124.442 305.945C126.289 304.956 127.46 302.549 127.46 299.104V226.053C127.46 219.887 123.782 212.716 119.081 210.045Z" fill="#4AAA42"/>
<path d="M125.117 216.952C123.79 214.131 121.699 211.738 119.081 210.045L53.4868 172.126C52.732 171.603 51.8586 171.277 50.9457 171.176C50.0329 171.075 49.1092 171.204 48.2584 171.549V171.549C48.0791 171.632 47.908 171.731 47.7472 171.846L33.4805 180.205C34.3532 179.759 35.3317 179.561 36.3091 179.634C37.2865 179.707 38.2251 180.047 39.0222 180.617L104.616 218.535C107.323 220.304 109.469 222.81 110.801 225.756L125.117 216.952Z" fill="#4AAA42"/>
<path d="M112.995 307.446C112.995 310.744 111.939 313.035 110.273 314.041L124.441 305.798C126.288 304.809 127.459 302.402 127.459 298.956V226.054C127.39 222.88 126.588 219.766 125.117 216.953L110.801 225.757C112.176 228.487 112.925 231.489 112.995 234.544V307.446Z" fill="#4AAA42"/>
<path opacity="0.3" d="M125.117 216.952C123.79 214.131 121.699 211.738 119.081 210.045L53.4868 172.126C52.732 171.603 51.8586 171.277 50.9457 171.176C50.0329 171.075 49.1092 171.204 48.2584 171.549V171.549C48.0791 171.632 47.908 171.731 47.7472 171.846L33.4805 180.205C34.3532 179.759 35.3317 179.561 36.3091 179.634C37.2865 179.707 38.2251 180.047 39.0222 180.617L104.616 218.535C107.323 220.304 109.469 222.81 110.801 225.756L125.117 216.952Z" fill="black"/>
<path opacity="0.6" d="M112.995 307.446C112.995 310.744 111.939 313.035 110.273 314.041L124.441 305.798C126.288 304.809 127.459 302.402 127.459 298.956V226.054C127.39 222.88 126.588 219.766 125.117 216.953L110.801 225.757C112.176 228.487 112.925 231.489 112.995 234.544V307.446Z" fill="black"/>
<path d="M93.7638 255.432C93.7638 264.879 90.0198 268.094 84.4121 264.846C82.8652 263.965 81.5125 262.781 80.4354 261.365C79.3583 259.948 78.5791 258.328 78.1447 256.603C76.4954 258.631 73.9389 258.762 70.3434 256.685C64.4388 253.272 59.7877 245.145 59.7877 237.248C59.7877 229.351 64.3893 226.631 70.3434 230.06C73.3647 231.84 75.8052 234.457 77.3695 237.594V234.478L83.5875 238.072V255.152C83.4949 256.051 83.6504 256.958 84.0371 257.774C84.4238 258.591 85.027 259.286 85.7811 259.785C87.8757 261.005 89.1622 258.944 89.1622 252.827C89.1622 242.128 82.301 230.785 72.1576 224.933C62.0143 219.08 55.1696 223.152 55.1696 234.165C55.3025 240.009 56.9134 245.724 59.8521 250.777C62.7909 255.83 66.9619 260.058 71.9762 263.065C74.6988 264.742 77.7906 265.727 80.9815 265.934L82.4494 271.622C78.7339 271.322 75.1435 270.141 71.9762 268.176C58.7816 260.543 50.0566 245.178 50.0566 231.263C50.0566 217.349 58.864 212.304 72.1576 219.987C85.0059 227.389 93.7638 242.21 93.7638 255.432ZM77.4685 247.502C77.5005 245.412 76.9902 243.349 75.9872 241.514C74.9842 239.679 73.5227 238.136 71.7453 237.033C68.4466 235.105 66.0881 236.456 66.0881 240.941C66.0457 243.035 66.544 245.104 67.5349 246.949C68.5259 248.795 69.976 250.354 71.7453 251.475C75.0439 253.338 77.4685 252.135 77.4685 247.502Z" fill="#4AAA42"/>
<g opacity="0.9">
<path opacity="0.9" d="M93.7638 255.432C93.7638 264.879 90.0198 268.094 84.4121 264.846C82.8652 263.965 81.5125 262.781 80.4354 261.365C79.3583 259.948 78.5791 258.328 78.1447 256.603C76.4954 258.631 73.9389 258.762 70.3434 256.685C64.4388 253.272 59.7877 245.145 59.7877 237.248C59.7877 229.351 64.3893 226.631 70.3434 230.06C73.3647 231.84 75.8052 234.457 77.3695 237.594V234.478L83.5875 238.072V255.152C83.4949 256.051 83.6504 256.958 84.0371 257.774C84.4238 258.591 85.027 259.286 85.7811 259.785C87.8757 261.005 89.1622 258.944 89.1622 252.827C89.1622 242.128 82.301 230.785 72.1576 224.933C62.0143 219.08 55.1696 223.152 55.1696 234.165C55.3025 240.009 56.9134 245.724 59.8521 250.777C62.7909 255.83 66.9619 260.058 71.9762 263.065C74.6988 264.742 77.7906 265.727 80.9815 265.934L82.4494 271.622C78.7339 271.322 75.1435 270.141 71.9762 268.176C58.7816 260.543 50.0566 245.178 50.0566 231.263C50.0566 217.349 58.864 212.304 72.1576 219.987C85.0059 227.389 93.7638 242.21 93.7638 255.432ZM77.4685 247.502C77.5005 245.412 76.9902 243.349 75.9872 241.514C74.9842 239.679 73.5227 238.136 71.7453 237.033C68.4466 235.105 66.0881 236.456 66.0881 240.941C66.0457 243.035 66.544 245.104 67.5349 246.949C68.5259 248.795 69.976 250.354 71.7453 251.475C75.0439 253.338 77.4685 252.135 77.4685 247.502Z" fill="white"/>
</g>
<path d="M119.081 339.924L53.4877 302.006C52.7339 301.48 51.8595 301.153 50.9455 301.055C50.0315 300.957 49.1076 301.091 48.2594 301.445V301.445C48.08 301.528 47.9089 301.627 47.7481 301.742L33.4814 310.1H33.5803C31.7826 311.122 30.6445 313.496 30.6445 316.876V389.778C30.6445 395.961 34.3885 403.116 39.0231 405.787L104.617 443.705C105.447 444.311 106.439 444.658 107.466 444.702C108.493 444.746 109.51 444.485 110.39 443.952L110.274 444.051L124.442 435.726C126.289 434.753 127.46 432.428 127.46 428.884V355.916C127.46 349.75 123.782 342.595 119.081 339.924Z" fill="#4AAA42"/>
<path d="M125.117 346.832C123.795 344.008 121.702 341.614 119.081 339.924L53.4868 302.006C52.733 301.48 51.8586 301.153 50.9446 301.055C50.0306 300.957 49.1067 301.091 48.2584 301.445V301.445C48.0791 301.528 47.908 301.627 47.7472 301.742L33.4805 310.1C34.3512 309.65 35.3293 309.449 36.307 309.519C37.2848 309.589 38.2243 309.927 39.0222 310.496L104.616 348.414C107.328 350.186 109.474 352.698 110.801 355.652V355.652L125.117 346.832Z" fill="#4AAA42"/>
<path d="M112.995 437.309C112.995 440.606 111.939 442.898 110.273 443.986L124.441 435.66C126.288 434.687 127.459 432.363 127.459 428.818V355.916C127.39 352.748 126.588 349.639 125.117 346.832L110.801 355.636C112.175 358.36 112.925 361.356 112.995 364.406V437.309Z" fill="#4AAA42"/>
<path opacity="0.3" d="M125.117 346.832C123.795 344.008 121.702 341.614 119.081 339.924L53.4868 302.006C52.733 301.48 51.8586 301.153 50.9446 301.055C50.0306 300.957 49.1067 301.091 48.2584 301.445V301.445C48.0791 301.528 47.908 301.627 47.7472 301.742L33.4805 310.1C34.3512 309.65 35.3293 309.449 36.307 309.519C37.2848 309.589 38.2243 309.927 39.0222 310.496L104.616 348.414C107.328 350.186 109.474 352.698 110.801 355.652V355.652L125.117 346.832Z" fill="black"/>
<path opacity="0.6" d="M112.995 437.309C112.995 440.606 111.939 442.898 110.273 443.986L124.441 435.66C126.288 434.687 127.459 432.363 127.459 428.818V355.916C127.39 352.748 126.588 349.639 125.117 346.832L110.801 355.636C112.175 358.36 112.925 361.356 112.995 364.406V437.309Z" fill="black"/>
<path d="M64.487 372.518L48.6699 346.832V381.635L64.487 372.518Z" fill="#4AAA42"/>
<path d="M79.1836 379.92L94.9677 407.237V372.484L79.1836 379.92Z" fill="#4AAA42"/>
<path d="M51.0645 345.662L67.3103 372.04C67.3791 372.098 67.4401 372.164 67.4918 372.238C67.5061 372.303 67.5061 372.371 67.4918 372.436L72.3243 380.283L76.4146 378.354C76.4783 378.285 76.5503 378.224 76.629 378.173C76.7903 378.079 76.9707 378.023 77.1568 378.008L93.6501 370.276L51.0645 345.662Z" fill="#4AAA42"/>
<path d="M76.7938 381.041L72.3736 383.118C72.2033 383.198 72.0171 383.237 71.8293 383.234C71.6016 383.236 71.3772 383.18 71.1778 383.07C70.9784 382.96 70.8107 382.801 70.6912 382.607L65.8587 374.76L49.9922 383.926L92.6933 408.557L76.7938 381.041Z" fill="#4AAA42"/>
<g opacity="0.9">
<path opacity="0.9" d="M64.4889 372.518L48.6719 346.832V381.635L64.4889 372.518Z" fill="white"/>
<path opacity="0.9" d="M79.1836 379.92L94.9677 407.237V372.484L79.1836 379.92Z" fill="white"/>
<path opacity="0.9" d="M51.0625 345.662L67.3084 372.04C67.3772 372.098 67.4381 372.164 67.4898 372.238C67.5041 372.303 67.5041 372.371 67.4898 372.436L72.3223 380.283L76.4127 378.354C76.4764 378.285 76.5484 378.224 76.6271 378.173C76.7883 378.079 76.9687 378.023 77.1549 378.008L93.6481 370.276L51.0625 345.662Z" fill="white"/>
<path opacity="0.9" d="M76.7918 381.041L72.3716 383.118C72.2013 383.198 72.0152 383.237 71.8273 383.234C71.5997 383.236 71.3752 383.18 71.1758 383.07C70.9764 382.96 70.8088 382.801 70.6893 382.607L65.8568 374.76L49.9902 383.926L92.6913 408.557L76.7918 381.041Z" fill="white"/>
</g>
<path d="M119.081 80.2325L53.4877 42.3141C52.7339 41.7882 51.8595 41.4611 50.9455 41.3632C50.0315 41.2652 49.1076 41.3995 48.2594 41.7536V41.7536C48.08 41.8363 47.9089 41.9357 47.7481 42.0503L33.4814 50.4089H33.5803C31.7826 51.4145 30.6445 53.805 30.6445 57.1847V130.087C30.6445 136.253 34.3885 143.424 39.0231 146.095L104.617 184.014C105.447 184.619 106.439 184.966 107.466 185.01C108.493 185.054 109.51 184.793 110.39 184.261L110.274 184.343L124.442 176.1C126.289 175.128 127.46 172.803 127.46 169.258V96.1748C127.46 90.0089 123.782 82.8374 119.081 80.2325Z" fill="#4AAA42"/>
<path d="M125.117 87.0908C123.795 84.2622 121.703 81.8627 119.081 80.1666L53.4868 42.3141C52.733 41.7882 51.8586 41.4611 50.9446 41.3632C50.0306 41.2652 49.1067 41.3995 48.2584 41.7536V41.7536C48.0791 41.8363 47.908 41.9357 47.7472 42.0503L33.4805 50.4089C34.3512 49.9588 35.3293 49.7576 36.307 49.8274C37.2848 49.8972 38.2243 50.2353 39.0222 50.8045L104.616 88.723C107.328 90.4947 109.474 93.0064 110.801 95.9605V95.9605L125.117 87.0908Z" fill="#4AAA42"/>
<path d="M112.995 177.503C112.995 180.8 111.939 183.091 110.273 184.097L124.441 175.854C126.288 174.881 127.459 172.557 127.459 169.012V96.1757C127.39 93.0078 126.588 89.8989 125.117 87.0918L110.801 95.8955C112.175 98.6197 112.925 101.616 112.995 104.666V177.503Z" fill="#4AAA42"/>
<path opacity="0.3" d="M125.117 87.0908C123.795 84.2622 121.703 81.8627 119.081 80.1666L53.4868 42.3141C52.733 41.7882 51.8586 41.4611 50.9446 41.3632C50.0306 41.2652 49.1067 41.3995 48.2584 41.7536V41.7536C48.0791 41.8363 47.908 41.9357 47.7472 42.0503L33.4805 50.4089C34.3512 49.9588 35.3293 49.7576 36.307 49.8274C37.2848 49.8972 38.2243 50.2353 39.0222 50.8045L104.616 88.723C107.328 90.4947 109.474 93.0064 110.801 95.9605V95.9605L125.117 87.0908Z" fill="black"/>
<path opacity="0.6" d="M112.995 177.503C112.995 180.8 111.939 183.091 110.273 184.097L124.441 175.854C126.288 174.881 127.459 172.557 127.459 169.012V96.1757C127.39 93.0078 126.588 89.8989 125.117 87.0918L110.801 95.8955C112.175 98.6197 112.925 101.616 112.995 104.666V177.503Z" fill="black"/>
<path d="M91.5364 146.177C89.0129 142.022 86.4729 137.934 83.9494 133.746C83.5492 132.953 82.9897 132.251 82.3057 131.684C81.6218 131.116 80.8283 130.696 79.9746 130.449C78.7541 130.202 77.5336 129.922 76.2801 129.559C75.8337 129.373 75.4582 129.049 75.208 128.636C71.0788 121.571 67.796 114.046 65.4275 106.214C65.3771 106.047 65.3628 105.871 65.3856 105.697C65.4083 105.524 65.4676 105.357 65.5594 105.209C66.3346 104.434 67.2088 103.725 68.0005 103.032C68.7921 102.34 69.2045 100.741 68.6272 98.6635C67.4067 94.2617 66.2357 89.8598 65.0152 85.4745C64.779 84.2285 64.2187 83.0666 63.3906 82.1057C62.5626 81.1449 61.496 80.419 60.2981 80.001C57.6383 79.2619 54.8147 79.3656 52.2164 80.2978C51.2103 80.677 50.6825 81.5837 50.666 83.1499C51.0948 86.1669 51.3752 89.1509 51.9525 92.2174C56.0208 114.331 65.8068 134.664 81.3105 153.217C81.7153 153.832 82.259 154.343 82.8979 154.71C83.5368 155.076 84.2529 155.288 84.9885 155.327C87.5553 155.266 90.0212 154.316 91.9652 152.64C93.4331 151.321 93.2846 148.98 91.5364 146.177Z" fill="#4AAA42"/>
<path d="M91.3394 123.707C90.9944 118.965 89.6868 114.343 87.4965 110.122C85.8611 106.825 83.7799 103.769 81.3115 101.038C80.6683 100.313 80.124 100.082 79.7941 100.626C79.4642 101.17 79.7941 101.945 80.4209 102.654L81.0641 103.396C85.6228 108.656 88.4958 115.163 89.3107 122.075C89.3027 122.579 89.3525 123.082 89.4592 123.575C89.6663 124.142 89.999 124.655 90.4323 125.075C90.7786 125.323 91.1745 125.075 91.4549 125.075C91.3559 124.399 91.3724 124.053 91.3394 123.707Z" fill="#4AAA42"/>
<path d="M76.3979 110.172C78.4691 112.45 79.7276 115.348 79.977 118.416C80.0856 118.882 80.2576 119.331 80.4882 119.751C81.4943 120.575 81.9891 120.295 81.9891 119.256C81.6365 115.323 80.0092 111.613 77.3545 108.689C76.7278 108.046 76.2165 107.848 75.9196 108.392C75.8128 108.703 75.8013 109.038 75.8865 109.355C75.9717 109.672 76.1498 109.957 76.3979 110.172Z" fill="#4AAA42"/>
<g opacity="0.9">
<path opacity="0.9" d="M91.5383 146.177C89.0148 142.022 86.4749 137.934 83.9514 133.746C83.5511 132.953 82.9916 132.251 82.3077 131.684C81.6238 131.116 80.8302 130.696 79.9765 130.449C78.756 130.202 77.5355 129.922 76.282 129.559C75.8356 129.373 75.4601 129.049 75.21 128.636C71.0807 121.571 67.7979 114.046 65.4295 106.214C65.3791 106.047 65.3648 105.871 65.3875 105.697C65.4103 105.524 65.4695 105.357 65.5614 105.209C66.3366 104.434 67.2107 103.725 68.0024 103.032C68.7941 102.34 69.2064 100.741 68.6291 98.6635C67.4086 94.2617 66.2376 89.8598 65.0171 85.4745C64.781 84.2285 64.2207 83.0666 63.3926 82.1057C62.5645 81.1449 61.4979 80.419 60.3 80.001C57.6403 79.2619 54.8167 79.3656 52.2183 80.2978C51.2123 80.677 50.6845 81.5837 50.668 83.1499C51.0968 86.1669 51.3772 89.1509 51.9544 92.2174C56.0228 114.331 65.8088 134.664 81.3125 153.217C81.7172 153.832 82.261 154.343 82.8999 154.71C83.5388 155.076 84.2549 155.288 84.9905 155.327C87.5572 155.266 90.0232 154.316 91.9671 152.64C93.435 151.321 93.2866 148.98 91.5383 146.177Z" fill="white"/>
<path opacity="0.9" d="M91.3394 123.707C90.9944 118.965 89.6868 114.343 87.4965 110.122C85.8611 106.825 83.7799 103.769 81.3115 101.038C80.6683 100.313 80.124 100.082 79.7941 100.626C79.4642 101.17 79.7941 101.945 80.4209 102.654L81.0641 103.396C85.6228 108.656 88.4958 115.163 89.3107 122.075C89.3027 122.579 89.3525 123.082 89.4592 123.575C89.6663 124.142 89.999 124.655 90.4323 125.075C90.7786 125.323 91.1745 125.075 91.4549 125.075C91.3559 124.399 91.3724 124.053 91.3394 123.707Z" fill="white"/>
<path opacity="0.9" d="M76.396 110.17C78.4671 112.448 79.7256 115.346 79.975 118.414C80.0836 118.88 80.2556 119.329 80.4863 119.749C81.4924 120.573 81.9872 120.293 81.9872 119.254C81.6345 115.321 80.0072 111.611 77.3526 108.687C76.7258 108.044 76.2145 107.846 75.9177 108.39C75.8109 108.701 75.7993 109.036 75.8846 109.353C75.9698 109.671 76.1478 109.955 76.396 110.17Z" fill="white"/>
</g>
<path d="M455.629 36.5122L471.083 45.2994V39.8259C471.083 39.4467 471.083 39.0511 471.083 38.6719C471.083 38.2927 471.083 37.93 471.083 37.5673V37.3695C471.644 30.132 477.136 27.3458 483.832 31.2201C486.864 33.0839 489.462 35.574 491.452 38.5235C492.953 28.6317 500.985 25.1366 510.7 30.7255C521.486 36.9573 530.228 52.1577 530.228 64.5553V76.2606C530.212 77.1969 530.444 78.1209 530.898 78.9397C531.353 79.7586 532.014 80.4437 532.817 80.9262L541.922 86.2513C543.886 87.4158 545.515 89.0701 546.649 91.0526C547.782 93.035 548.381 95.2776 548.387 97.5609C548.387 98.5081 548.138 99.4388 547.664 100.259C547.19 101.079 546.508 101.76 545.687 102.233C544.866 102.706 543.935 102.955 542.987 102.954C542.039 102.952 541.109 102.702 540.289 102.226L455.86 53.4436C453.62 52.1434 451.76 50.28 450.463 48.0386C449.167 45.7971 448.48 43.2557 448.471 40.6667C448.47 39.8287 448.689 39.0052 449.107 38.2787C449.525 37.5523 450.127 36.9484 450.852 36.5276C451.577 36.1068 452.4 35.8838 453.238 35.8811C454.077 35.8784 454.901 36.0961 455.629 36.5122V36.5122Z" fill="#E6E6E6"/>
<path d="M573.44 34.22L584.671 40.6662V36.6435C584.671 36.3632 584.671 36.083 584.671 35.8027C584.671 35.5224 584.671 35.2587 584.671 34.9949V34.896C585.084 29.6368 589.075 27.609 593.941 30.4282C596.144 31.7776 598.033 33.5819 599.482 35.7203C600.587 28.5652 606.426 25.9769 613.485 30.049C621.336 34.5827 627.686 45.5956 627.686 54.6465V63.1699C627.692 63.8381 627.871 64.4933 628.207 65.0713C628.542 65.6493 629.022 66.1303 629.599 66.4672L636.196 70.3415C637.632 71.1853 638.821 72.3904 639.646 73.8367C640.471 75.2829 640.902 76.9199 640.897 78.5846C640.896 79.2664 640.717 79.9362 640.378 80.5279C640.039 81.1196 639.552 81.6129 638.964 81.959C638.377 82.3051 637.709 82.4922 637.027 82.5018C636.345 82.5114 635.672 82.3432 635.075 82.0138L573.604 46.5353C571.976 45.5934 570.623 44.2401 569.682 42.6111C568.741 40.982 568.246 39.1345 568.244 37.2535C568.243 36.6447 568.402 36.0463 568.704 35.518C569.007 34.9897 569.443 34.5501 569.969 34.243C570.495 33.936 571.092 33.7722 571.701 33.7682C572.31 33.7642 572.91 33.92 573.44 34.22V34.22Z" fill="#E6E6E6"/>
</svg>
