<svg width="116" height="101" viewBox="0 0 116 101" fill="none" xmlns="http://www.w3.org/2000/svg">
<rect y="0.445312" width="115.239" height="100.034" rx="10" fill="#DCEDF5"/>
<path d="M47.0992 53.9636H56.9292C57.4637 53.9663 57.9937 53.8779 58.4886 53.7037C58.9835 53.5294 59.4336 53.2726 59.8132 52.9481L74.355 40.4122C75.1116 39.7561 75.5362 38.8686 75.5362 37.9435C75.5362 37.0184 75.1116 36.1309 74.355 35.4748L64.5251 27.0708C63.764 26.4186 62.7345 26.0526 61.6614 26.0526C60.5882 26.0526 59.5587 26.4186 58.7977 27.0708L44.2558 39.6068C43.4905 40.2533 43.0525 41.1343 43.0372 42.0579V50.4619C43.0372 51.3906 43.4652 52.2813 44.227 52.938C44.9887 53.5947 46.0219 53.9636 47.0992 53.9636ZM51.1612 43.4586L61.6817 34.4944L65.7436 37.996L55.2638 46.9603H51.2018L51.1612 43.4586ZM94.1774 57.4653H90.1155V22.4486H94.1774C95.2547 22.4486 96.2879 22.0797 97.0497 21.423C97.8115 20.7663 98.2394 19.8757 98.2394 18.947C98.2394 18.0183 97.8115 17.1276 97.0497 16.4709C96.2879 15.8142 95.2547 15.4453 94.1774 15.4453H21.062C19.9847 15.4453 18.9515 15.8142 18.1897 16.4709C17.428 17.1276 17 18.0183 17 18.947C17 19.8757 17.428 20.7663 18.1897 21.423C18.9515 22.0797 19.9847 22.4486 21.062 22.4486H25.1239V57.4653H21.062C19.9847 57.4653 18.9515 57.8342 18.1897 58.4909C17.428 59.1476 17 60.0382 17 60.9669C17 61.8956 17.428 62.7863 18.1897 63.443C18.9515 64.0996 19.9847 64.4686 21.062 64.4686H53.5577V68.4955L35.0758 79.0005C34.3175 79.4051 33.7348 80.0135 33.4175 80.732C33.1003 81.4504 33.066 82.2389 33.3202 82.9757C33.5743 83.7126 34.1026 84.3569 34.8237 84.8092C35.5447 85.2615 36.4184 85.4967 37.3099 85.4785C38.1084 85.4864 38.8898 85.2782 39.5439 84.8833L53.5577 76.8995V81.9769C53.5577 82.9056 53.9857 83.7962 54.7475 84.4529C55.5092 85.1096 56.5424 85.4785 57.6197 85.4785C58.697 85.4785 59.7302 85.1096 60.4919 84.4529C61.2537 83.7962 61.6817 82.9056 61.6817 81.9769V76.8995L75.6955 84.8833C76.3496 85.2782 77.131 85.4864 77.9296 85.4785C78.7974 85.4728 79.6403 85.2275 80.3347 84.7788C81.0291 84.33 81.5385 83.7013 81.7883 82.9849C82.0381 82.2684 82.0151 81.5018 81.7227 80.7973C81.4304 80.0929 80.884 79.4878 80.1636 79.0705L61.6817 68.5655V64.4686H94.1774C95.2547 64.4686 96.2879 64.0996 97.0497 63.443C97.8115 62.7863 98.2394 61.8956 98.2394 60.9669C98.2394 60.0382 97.8115 59.1476 97.0497 58.4909C96.2879 57.8342 95.2547 57.4653 94.1774 57.4653ZM81.9915 57.4653H33.2479V22.4486H81.9915V57.4653Z" fill="#0397D6"/>
</svg>
