<svg width="700" height="525" viewBox="0 0 700 525" fill="none" xmlns="http://www.w3.org/2000/svg">
<path d="M700 461.361H0V461.714H700V461.361Z" fill="#EBEBEB"/>
<path d="M331.802 398.513H61.4761C59.3584 398.509 57.3287 397.66 55.8325 396.151C54.3364 394.643 53.4961 392.598 53.4961 390.467V7.9759C53.5145 5.85654 54.363 3.83009 55.8571 2.33671C57.3513 0.843329 59.3705 0.00363057 61.4761 0H331.802C333.922 0 335.956 0.847739 337.455 2.35672C338.954 3.86571 339.796 5.91233 339.796 8.04635V390.467C339.796 392.601 338.954 394.647 337.455 396.156C335.956 397.665 333.922 398.513 331.802 398.513V398.513ZM61.4761 0.281835C59.4512 0.285568 57.5105 1.09783 56.08 2.54035C54.6495 3.98286 53.8461 5.93774 53.8461 7.9759V390.467C53.8461 392.505 54.6495 394.46 56.08 395.902C57.5105 397.345 59.4512 398.157 61.4761 398.161H331.802C333.828 398.157 335.77 397.345 337.203 395.903C338.636 394.461 339.442 392.506 339.446 390.467V7.9759C339.442 5.93645 338.636 3.9816 337.203 2.53949C335.77 1.09738 333.828 0.28556 331.802 0.281835H61.4761Z" fill="#EBEBEB"/>
<path d="M634.635 398.513H364.295C362.176 398.509 360.145 397.66 358.646 396.152C357.148 394.644 356.304 392.599 356.301 390.467V7.9759C356.323 5.85526 357.174 3.82882 358.671 2.33583C360.167 0.842836 362.188 0.00359097 364.295 0H634.635C636.738 0.00733401 638.754 0.848671 640.245 2.34166C641.736 3.83464 642.582 5.85897 642.601 7.9759V390.467C642.601 392.596 641.762 394.638 640.269 396.146C638.776 397.654 636.75 398.505 634.635 398.513V398.513ZM364.295 0.281835C362.269 0.28556 360.326 1.09738 358.894 2.53949C357.461 3.9816 356.654 5.93645 356.651 7.9759V390.467C356.654 392.506 357.461 394.461 358.894 395.903C360.326 397.345 362.269 398.157 364.295 398.161H634.635C636.661 398.157 638.603 397.345 640.036 395.903C641.469 394.461 642.275 392.506 642.279 390.467V7.9759C642.275 5.93645 641.469 3.9816 640.036 2.53949C638.603 1.09738 636.661 0.28556 634.635 0.281835H364.295Z" fill="#EBEBEB"/>
<path d="M108.193 474.777H71.793V475.13H108.193V474.777Z" fill="#EBEBEB"/>
<path d="M266.253 470.959H203.211V471.311H266.253V470.959Z" fill="#EBEBEB"/>
<path d="M194.696 487.867H109.59V488.219H194.696V487.867Z" fill="#EBEBEB"/>
<path d="M628.207 485.502H601.285V485.854H628.207V485.502Z" fill="#EBEBEB"/>
<path d="M588.808 485.502H511.402V485.854H588.808V485.502Z" fill="#EBEBEB"/>
<path d="M464.129 479.555H359.871V479.907H464.129V479.555Z" fill="#EBEBEB"/>
<path d="M267.163 226.088L249.453 461.419H420.253L437.963 226.088H267.163ZM374.557 392.37C373.731 401.763 369.476 410.515 362.613 416.936C355.751 423.356 346.769 426.99 337.401 427.134C332.966 427.203 328.566 426.331 324.488 424.573C320.41 422.815 316.747 420.212 313.736 416.933C310.725 413.654 308.435 409.773 307.015 405.543C305.595 401.313 305.077 396.829 305.495 392.384L311.725 309.666C312.551 300.275 316.804 291.524 323.664 285.104C330.523 278.684 339.502 275.049 348.867 274.902C353.305 274.83 357.709 275.702 361.79 277.459C365.871 279.217 369.538 281.821 372.551 285.101C375.565 288.382 377.857 292.265 379.279 296.498C380.7 300.731 381.219 305.218 380.801 309.666L374.557 392.37Z" fill="#E6E6E6"/>
<path d="M474.43 461.362H225.398L226.84 445.918H475.858L474.43 461.362Z" fill="#E6E6E6"/>
<path d="M570.108 374.007H592.2C592.496 374.007 592.789 373.947 593.061 373.829C593.333 373.712 593.578 373.539 593.781 373.323C593.984 373.106 594.141 372.85 594.243 372.57C594.344 372.291 594.387 371.993 594.37 371.696L594.286 370.117C594.251 369.5 593.984 368.92 593.539 368.494C593.095 368.067 592.506 367.826 591.892 367.82H569.8C569.504 367.818 569.211 367.877 568.939 367.993C568.666 368.108 568.42 368.279 568.216 368.494C568.011 368.709 567.852 368.964 567.749 369.243C567.646 369.523 567.601 369.82 567.616 370.117L567.7 371.696C567.736 372.316 568.004 372.9 568.451 373.329C568.898 373.758 569.49 374.001 570.108 374.007V374.007Z" fill="#E0E0E0"/>
<path d="M533.245 374.007H555.295C555.591 374.009 555.885 373.95 556.158 373.833C556.431 373.716 556.677 373.544 556.88 373.327C557.084 373.11 557.241 372.853 557.342 372.573C557.442 372.292 557.484 371.993 557.465 371.696L557.381 370.117C557.345 369.5 557.078 368.92 556.634 368.494C556.19 368.067 555.601 367.826 554.987 367.82H532.937C532.641 367.818 532.348 367.877 532.075 367.993C531.803 368.108 531.557 368.279 531.352 368.494C531.148 368.709 530.989 368.964 530.886 369.243C530.783 369.523 530.738 369.82 530.753 370.117L530.837 371.696C530.876 372.315 531.145 372.897 531.591 373.326C532.038 373.754 532.628 373.997 533.245 374.007V374.007Z" fill="#E0E0E0"/>
<path d="M609.32 372.261H94.6376C91.745 372.231 88.9715 371.096 86.8772 369.088C84.7829 367.079 83.5236 364.345 83.3536 361.439L67.8556 50.266C67.7689 48.8692 67.9694 47.4694 68.4445 46.1541C68.9197 44.8389 69.6594 43.6364 70.6173 42.622C71.5752 41.6076 72.7308 40.8029 74.0117 40.2585C75.2926 39.714 76.6713 39.4414 78.0616 39.4577H592.744C595.635 39.4848 598.408 40.6159 600.503 42.6222C602.598 44.6286 603.858 47.3606 604.028 50.266L619.526 361.439C619.612 362.836 619.412 364.237 618.937 365.553C618.462 366.869 617.722 368.072 616.765 369.088C615.807 370.103 614.652 370.909 613.371 371.455C612.09 372.001 610.711 372.276 609.32 372.261V372.261Z" fill="#E0E0E0"/>
<path d="M615.625 372.261H100.957C98.0544 372.241 95.2673 371.113 93.1595 369.104C91.0518 367.095 89.7806 364.355 89.6033 361.438L74.2033 50.2658C74.1167 48.8713 74.3164 47.4739 74.7899 46.1606C75.2634 44.8472 76.0005 43.6461 76.9554 42.6321C77.9103 41.6181 79.0624 40.8129 80.34 40.2667C81.6176 39.7205 82.9933 39.445 84.3813 39.4574H599.049C601.951 39.4734 604.738 40.5988 606.846 42.6056C608.954 44.6124 610.226 47.3506 610.403 50.2658L625.803 361.438C625.89 362.834 625.69 364.232 625.217 365.546C624.743 366.86 624.006 368.062 623.052 369.077C622.097 370.092 620.945 370.898 619.668 371.446C618.39 371.994 617.014 372.271 615.625 372.261Z" fill="#E6E6E6"/>
<path d="M103.965 350.546L89.6011 61.1729C89.5493 60.2977 89.6767 59.4211 89.9755 58.5976C90.2743 57.7741 90.738 57.0211 91.338 56.3855C91.9379 55.75 92.6613 55.2453 93.4631 54.9028C94.2649 54.5603 95.1281 54.3874 95.9991 54.3948H588.967C590.78 54.4097 592.52 55.1185 593.833 56.3773C595.146 57.6361 595.934 59.3506 596.037 61.1729L610.401 350.546C610.455 351.42 610.329 352.296 610.032 353.12C609.735 353.943 609.273 354.697 608.674 355.332C608.075 355.968 607.352 356.473 606.551 356.816C605.75 357.158 604.887 357.331 604.017 357.324H111.035C109.223 357.306 107.485 356.596 106.173 355.337C104.86 354.079 104.071 352.367 103.965 350.546V350.546Z" fill="#F5F5F5"/>
<path d="M119.924 69.1902C119.973 69.9606 119.866 70.7332 119.607 71.4599C119.348 72.1866 118.943 72.8521 118.418 73.4149C117.893 73.9778 117.258 74.426 116.554 74.7319C115.85 75.0378 115.091 75.1948 114.324 75.1932C112.72 75.1747 111.182 74.5451 110.021 73.4312C108.86 72.3173 108.161 70.8019 108.066 69.1902C108.018 68.4208 108.127 67.6498 108.387 66.9248C108.647 66.1997 109.052 65.536 109.577 64.9747C110.102 64.4134 110.735 63.9664 111.439 63.6613C112.142 63.3563 112.9 63.1997 113.666 63.2012C115.269 63.2128 116.809 63.8383 117.971 64.9505C119.133 66.0628 119.831 67.5786 119.924 69.1902V69.1902Z" fill="white"/>
<path d="M146.9 69.1902C146.95 69.9606 146.842 70.7332 146.583 71.4599C146.324 72.1866 145.92 72.8521 145.394 73.4149C144.869 73.9778 144.235 74.426 143.531 74.7319C142.826 75.0378 142.067 75.1948 141.3 75.1932C139.696 75.1747 138.159 74.5451 136.998 73.4312C135.836 72.3173 135.138 70.8019 135.042 69.1902C134.994 68.4208 135.104 67.6498 135.364 66.9248C135.624 66.1997 136.028 65.536 136.553 64.9747C137.078 64.4134 137.712 63.9664 138.415 63.6613C139.118 63.3563 139.876 63.1997 140.642 63.2012C142.246 63.2128 143.785 63.8383 144.947 64.9505C146.11 66.0628 146.808 67.5786 146.9 69.1902V69.1902Z" fill="white"/>
<path d="M173.894 69.1902C173.944 69.9606 173.836 70.7332 173.577 71.4599C173.318 72.1866 172.913 72.8521 172.388 73.4149C171.863 73.9778 171.229 74.426 170.525 74.7319C169.82 75.0378 169.061 75.1948 168.294 75.1932C166.69 75.1778 165.153 74.5488 163.993 73.4339C162.834 72.319 162.139 70.8018 162.05 69.1902C162.002 68.4208 162.112 67.6498 162.371 66.9248C162.631 66.1997 163.036 65.536 163.561 64.9747C164.086 64.4134 164.72 63.9664 165.423 63.6613C166.126 63.3563 166.884 63.1997 167.65 63.2012C169.25 63.2197 170.784 63.8478 171.943 64.9591C173.101 66.0703 173.799 67.5822 173.894 69.1902V69.1902Z" fill="white"/>
<g opacity="0.6">
<path opacity="0.6" d="M155.238 357.324H226.288L291.248 54.3945H220.198L155.238 357.324Z" fill="white"/>
<path opacity="0.6" d="M461 357.324H478.99L543.95 54.3945H525.96L461 357.324Z" fill="white"/>
<path opacity="0.6" d="M242.086 357.324H342.886L407.846 54.3945H307.046L242.086 357.324Z" fill="white"/>
</g>
<path d="M350.001 524.999C499.916 524.999 621.447 517.857 621.447 509.047C621.447 500.238 499.916 493.096 350.001 493.096C200.085 493.096 78.5547 500.238 78.5547 509.047C78.5547 517.857 200.085 524.999 350.001 524.999Z" fill="#F5F5F5"/>
<path d="M504.84 293.178H504.336C467.04 290.106 441.336 257.949 440.3 256.652C439.346 255.338 438.933 253.703 439.15 252.089C439.367 250.476 440.196 249.01 441.464 247.998C442.731 246.987 444.339 246.508 445.949 246.664C447.559 246.819 449.047 247.596 450.1 248.831C450.394 249.212 472.36 276.465 502.782 280.354C512.582 270.49 520.982 244.449 520.044 236.572C520.044 236.487 520.044 236.417 520.044 236.346C519.848 233.81 519.372 225.073 521.85 219.929C522.667 218.607 523.941 217.636 525.427 217.203C526.913 216.771 528.505 216.907 529.897 217.586C531.288 218.266 532.381 219.44 532.963 220.882C533.545 222.325 533.577 223.933 533.05 225.397C532.434 226.693 532.14 231.358 532.434 235.261C533.834 248.225 522.634 280.946 508.634 291.896C507.543 292.729 506.21 293.18 504.84 293.178V293.178Z" fill="#263238"/>
<path d="M208.347 259.033C195.464 258.876 182.757 256.001 171.046 250.593C159.336 245.185 148.883 237.364 140.363 227.637C139.401 226.558 138.839 225.177 138.772 223.728C138.706 222.28 139.139 220.853 139.999 219.689C150.107 206.006 167.999 173.694 170.799 163.167C169.47 160.629 167.463 158.515 165.003 157.066C164.019 156.604 163.172 155.892 162.546 155C161.92 154.108 161.536 153.066 161.433 151.979L160.425 141.663C160.327 140.038 160.859 138.437 161.909 137.197C162.958 135.958 164.445 135.175 166.055 135.015C167.665 134.855 169.275 135.328 170.546 136.337C171.816 137.345 172.65 138.81 172.871 140.423L173.571 147.596C177.709 150.795 180.987 154.985 183.105 159.785C183.525 160.79 183.679 161.887 183.553 162.97C182.265 174.145 164.247 206.513 153.159 222.874C179.045 248.845 209.985 246.477 211.343 246.351C212.974 246.237 214.585 246.77 215.83 247.837C217.076 248.903 217.857 250.418 218.007 252.057C218.157 253.696 217.664 255.328 216.633 256.606C215.602 257.883 214.115 258.704 212.491 258.892C212.127 258.92 210.685 259.033 208.347 259.033Z" fill="#263238"/>
<path d="M410.018 508.838H393.218C392.254 508.838 391.303 508.614 390.439 508.183C389.575 507.753 388.822 507.127 388.237 506.355C387.653 505.583 387.254 504.685 387.072 503.732C386.889 502.78 386.927 501.797 387.184 500.862C391.566 485.023 393.722 472.129 395.332 451.949C389.396 423.766 383.81 398.105 383.754 397.851C383.451 396.24 383.783 394.573 384.682 393.205C385.58 391.837 386.973 390.875 388.565 390.524C390.157 390.174 391.822 390.462 393.206 391.328C394.59 392.193 395.583 393.568 395.976 395.16C395.976 395.414 401.744 421.737 407.75 450.23C407.878 450.822 407.916 451.431 407.862 452.034C406.462 470.156 404.628 482.683 401.324 496.254H409.976C411.583 496.33 413.099 497.027 414.209 498.198C415.319 499.37 415.938 500.927 415.938 502.546C415.938 504.165 415.319 505.722 414.209 506.893C413.099 508.065 411.583 508.761 409.976 508.838H410.018Z" fill="#263238"/>
<path d="M280.449 508.838H270.985C270.091 508.841 269.206 508.65 268.392 508.278C267.577 507.906 266.851 507.362 266.264 506.683C265.677 506.004 265.242 505.205 264.989 504.342C264.736 503.479 264.671 502.57 264.797 501.679C266.407 490.124 274.597 469.085 283.417 447.933C286.539 420.032 289.087 396.076 289.115 395.794C289.184 394.954 289.42 394.137 289.809 393.39C290.198 392.644 290.731 391.984 291.378 391.448C292.025 390.913 292.772 390.514 293.575 390.275C294.378 390.036 295.22 389.961 296.052 390.055C296.884 390.15 297.689 390.411 298.419 390.824C299.149 391.237 299.789 391.793 300.301 392.46C300.813 393.126 301.188 393.89 301.402 394.704C301.616 395.519 301.665 396.369 301.547 397.203C301.547 397.443 298.915 421.948 295.737 450.259C295.672 450.851 295.521 451.43 295.289 451.978C289.087 466.957 282.003 484.6 278.769 496.282H280.449C281.295 496.242 282.14 496.375 282.933 496.673C283.727 496.971 284.452 497.428 285.064 498.016C285.677 498.604 286.165 499.311 286.498 500.095C286.831 500.878 287.003 501.722 287.003 502.574C287.003 503.426 286.831 504.27 286.498 505.053C286.165 505.837 285.677 506.544 285.064 507.132C284.452 507.72 283.727 508.177 282.933 508.475C282.14 508.773 281.295 508.906 280.449 508.866V508.838Z" fill="#263238"/>
<path d="M285.893 78.9141L213.009 152.29C209.341 233.613 209.635 319.036 213.009 407.603H454.033C449.259 293.319 448.811 183.305 454.033 78.9141H285.893Z" fill="white"/>
<path d="M454.035 408.842H213.011C212.687 408.843 212.374 408.717 212.14 408.491C211.905 408.265 211.766 407.957 211.751 407.63C208.265 315.654 208.265 229.695 211.751 152.19C211.77 151.876 211.905 151.579 212.129 151.359L285.013 77.9836C285.129 77.8672 285.267 77.7749 285.418 77.712C285.569 77.6492 285.732 77.6169 285.895 77.6172H454.035C454.206 77.6176 454.374 77.6528 454.53 77.7207C454.687 77.7885 454.828 77.8875 454.945 78.0118C455.062 78.1348 455.153 78.281 455.211 78.4411C455.268 78.6013 455.293 78.7718 455.281 78.9418C450.255 179.472 450.255 286.949 455.281 407.518C455.287 407.686 455.259 407.854 455.199 408.012C455.139 408.169 455.048 408.313 454.931 408.434C454.819 408.561 454.681 408.664 454.527 408.734C454.372 408.805 454.205 408.842 454.035 408.842ZM214.201 406.32H452.733C447.777 286.738 447.763 180.022 452.733 80.1396H286.413L214.201 152.796C210.771 229.793 210.771 315.076 214.201 406.32Z" fill="#263238"/>
<path d="M283.992 327.491L286.624 327.266C286.744 328.207 287.085 329.105 287.618 329.887C288.194 330.627 288.959 331.197 289.83 331.536C290.863 331.968 291.973 332.184 293.092 332.17C294.047 332.19 294.997 332.027 295.892 331.691C296.594 331.442 297.204 330.985 297.642 330.38C298.009 329.848 298.191 329.209 298.16 328.562C298.145 327.922 297.913 327.305 297.502 326.815C296.974 326.226 296.296 325.793 295.542 325.561C294.288 325.144 293.012 324.796 291.72 324.518C290.3 324.227 288.916 323.783 287.59 323.194C286.652 322.742 285.843 322.058 285.238 321.207C284.704 320.425 284.403 319.506 284.37 318.557C284.309 317.458 284.598 316.368 285.194 315.446C285.791 314.523 286.665 313.816 287.688 313.428C288.903 312.921 290.209 312.671 291.524 312.695C292.96 312.669 294.387 312.927 295.724 313.456C296.851 313.918 297.823 314.695 298.524 315.697C299.219 316.685 299.635 317.844 299.728 319.051L297.054 319.262C296.933 318.071 296.355 316.974 295.444 316.204C294.352 315.452 293.041 315.09 291.72 315.175C290.43 315.055 289.139 315.389 288.066 316.119C287.721 316.38 287.445 316.722 287.262 317.115C287.079 317.508 286.994 317.941 287.016 318.374C287.024 318.736 287.11 319.092 287.267 319.418C287.424 319.744 287.649 320.032 287.926 320.262C289.24 321.047 290.697 321.56 292.21 321.77C293.83 322.101 295.418 322.573 296.956 323.179C298.062 323.637 299.028 324.381 299.756 325.335C300.385 326.223 300.74 327.276 300.778 328.365C300.831 329.489 300.548 330.603 299.966 331.564C299.329 332.597 298.397 333.413 297.292 333.903C296.025 334.474 294.648 334.758 293.26 334.735C291.607 334.778 289.962 334.496 288.416 333.903C287.145 333.374 286.049 332.495 285.252 331.367C284.49 330.214 284.055 328.874 283.992 327.491V327.491Z" fill="#263238"/>
<path d="M314.873 329.365L317.575 329.703C317.307 331.148 316.532 332.448 315.391 333.367C314.146 334.289 312.623 334.751 311.079 334.677C310.08 334.72 309.083 334.558 308.149 334.199C307.215 333.84 306.363 333.293 305.647 332.592C304.187 331.007 303.385 328.919 303.407 326.758C303.156 324.601 303.765 322.432 305.101 320.726C305.734 320.012 306.518 319.448 307.394 319.075C308.27 318.702 309.218 318.53 310.169 318.57C311.12 318.545 312.066 318.72 312.946 319.084C313.826 319.448 314.62 319.993 315.279 320.684C316.739 322.302 317.535 324.417 317.505 326.603C317.505 326.758 317.505 326.983 317.505 327.293H306.081C306.17 328.731 306.748 330.095 307.719 331.154C308.138 331.602 308.643 331.958 309.204 332.2C309.765 332.443 310.37 332.566 310.981 332.563C311.846 332.593 312.695 332.324 313.389 331.802C314.125 331.166 314.644 330.313 314.873 329.365V329.365ZM306.151 325.137H314.705C314.612 324.078 314.224 323.067 313.585 322.22C313.183 321.738 312.678 321.352 312.109 321.092C311.54 320.831 310.92 320.701 310.295 320.712C309.747 320.695 309.202 320.793 308.693 320.999C308.185 321.205 307.724 321.516 307.341 321.91C306.539 322.793 306.112 323.956 306.151 325.151V325.137Z" fill="#263238"/>
<path d="M321.017 334.325L320.289 318.923H322.613L322.725 321.262C323.074 320.43 323.605 319.688 324.279 319.092C324.757 318.749 325.33 318.567 325.917 318.57C326.878 318.595 327.813 318.888 328.619 319.416L327.849 321.84C327.266 321.483 326.599 321.288 325.917 321.276C325.375 321.267 324.846 321.446 324.419 321.783C323.969 322.136 323.653 322.633 323.523 323.192C323.265 324.185 323.166 325.212 323.229 326.236L323.607 334.297L321.017 334.325Z" fill="#263238"/>
<path d="M335.134 334.326L328.582 318.924H331.382L335.106 328.154C335.512 329.154 335.89 330.183 336.24 331.254C336.436 330.451 336.702 329.464 337.066 328.323L340.02 318.924H342.694L337.626 334.326H335.134Z" fill="#263238"/>
<path d="M344.791 316.062L344.637 313.061H347.199L347.339 316.062H344.791ZM345.659 334.381L344.917 318.979H347.521L348.249 334.381H345.659Z" fill="#263238"/>
<path d="M361.914 328.69L364.49 329.028C364.383 330.611 363.688 332.095 362.544 333.185C361.387 334.209 359.883 334.744 358.344 334.679C357.389 334.712 356.438 334.545 355.551 334.188C354.664 333.832 353.861 333.293 353.192 332.607C351.75 330.98 350.966 328.869 350.994 326.689C350.892 325.205 351.102 323.717 351.61 322.321C352.045 321.13 352.882 320.133 353.976 319.502C355.074 318.869 356.321 318.543 357.588 318.558C359.09 318.487 360.572 318.935 361.788 319.826C362.919 320.731 363.697 322.009 363.986 323.434L361.494 323.828C361.274 322.923 360.786 322.107 360.094 321.489C359.457 320.971 358.658 320.697 357.84 320.714C357.246 320.689 356.655 320.803 356.113 321.047C355.571 321.292 355.093 321.66 354.718 322.123C353.852 323.444 353.493 325.037 353.71 326.604C353.664 328.223 354.156 329.81 355.11 331.114C355.503 331.566 355.99 331.927 356.537 332.171C357.083 332.414 357.676 332.534 358.274 332.523C359.199 332.55 360.099 332.211 360.78 331.579C361.49 330.784 361.892 329.759 361.914 328.69Z" fill="#263238"/>
<path d="M377.198 329.365L379.9 329.703C379.632 331.148 378.857 332.449 377.716 333.367C376.47 334.289 374.948 334.752 373.404 334.677C372.405 334.721 371.408 334.558 370.474 334.199C369.539 333.841 368.688 333.294 367.972 332.592C366.518 331.003 365.717 328.918 365.732 326.758C365.606 325.689 365.693 324.605 365.986 323.57C366.279 322.535 366.773 321.568 367.44 320.727C368.07 320.011 368.85 319.447 369.725 319.074C370.599 318.701 371.545 318.529 372.494 318.571C373.445 318.545 374.39 318.72 375.27 319.084C376.15 319.448 376.945 319.993 377.604 320.684C379.064 322.302 379.86 324.417 379.83 326.603C379.83 326.758 379.83 326.983 379.83 327.293H368.406C368.481 328.738 369.049 330.112 370.016 331.183C370.437 331.63 370.945 331.987 371.508 332.229C372.072 332.471 372.679 332.595 373.292 332.592C374.153 332.621 374.998 332.353 375.686 331.831C376.437 331.191 376.967 330.328 377.198 329.365V329.365ZM368.476 325.137H377.03C376.946 324.076 376.557 323.062 375.91 322.22C375.507 321.738 375.003 321.353 374.434 321.092C373.865 320.831 373.245 320.701 372.62 320.712C372.074 320.694 371.53 320.791 371.023 320.997C370.517 321.204 370.059 321.515 369.68 321.91C368.869 322.788 368.436 323.953 368.476 325.151V325.137Z" fill="#263238"/>
<path d="M270.926 364.045L270.814 361.776C270.332 362.6 269.638 363.279 268.805 363.74C267.972 364.201 267.032 364.428 266.082 364.397C265.202 364.399 264.33 364.221 263.52 363.876C262.82 363.596 262.199 363.145 261.714 362.565C261.288 361.986 260.987 361.324 260.832 360.621C260.66 359.819 260.567 359.002 260.552 358.183L260.09 348.643H262.694L263.1 357.182C263.108 358.129 263.206 359.073 263.394 360C263.564 360.654 263.955 361.227 264.5 361.621C265.088 362.015 265.782 362.217 266.488 362.199C267.253 362.205 268.005 361.995 268.658 361.593C269.302 361.232 269.799 360.653 270.058 359.958C270.331 358.978 270.426 357.957 270.338 356.943L269.946 348.699H272.536L273.264 364.101L270.926 364.045Z" fill="#263238"/>
<path d="M277.308 364.046L276.566 348.644H278.904L279.016 350.828C279.503 350.01 280.202 349.341 281.038 348.894C281.875 348.447 282.817 348.238 283.762 348.291C284.64 348.285 285.511 348.452 286.324 348.784C287.034 349.054 287.658 349.512 288.13 350.109C288.558 350.683 288.863 351.341 289.026 352.04C289.191 352.875 289.28 353.724 289.292 354.576L289.74 364.046H287.15L286.702 354.675C286.702 353.862 286.56 353.056 286.282 352.293C286.056 351.755 285.656 351.309 285.148 351.025C284.596 350.702 283.967 350.537 283.328 350.546C282.293 350.529 281.291 350.912 280.528 351.617C280.086 352.176 279.766 352.823 279.59 353.515C279.414 354.207 279.385 354.929 279.506 355.633L279.912 364.088L277.308 364.046Z" fill="#263238"/>
<path d="M303.633 362.158C302.846 362.901 301.93 363.493 300.931 363.905C300.037 364.245 299.088 364.417 298.131 364.412C296.709 364.495 295.306 364.054 294.183 363.172C293.727 362.779 293.357 362.294 293.099 361.747C292.841 361.201 292.7 360.606 292.685 360.002C292.637 359.287 292.777 358.572 293.091 357.93C293.391 357.333 293.828 356.816 294.365 356.422C294.924 356.046 295.538 355.76 296.185 355.577C296.941 355.394 297.708 355.262 298.481 355.182C300.034 355.041 301.568 354.739 303.059 354.28C303.059 353.928 303.059 353.703 303.059 353.604C303.077 353.191 303.012 352.778 302.868 352.39C302.723 352.003 302.503 351.649 302.219 351.349C301.378 350.813 300.411 350.508 299.416 350.466C298.421 350.424 297.432 350.646 296.549 351.11C295.902 351.707 295.486 352.516 295.373 353.393L292.811 353.054C292.932 352.101 293.283 351.191 293.833 350.405C294.4 349.675 295.17 349.13 296.045 348.841C297.154 348.466 298.319 348.284 299.489 348.305C300.577 348.271 301.662 348.428 302.695 348.771C303.386 348.956 304.012 349.328 304.506 349.848C305 350.367 305.342 351.013 305.495 351.716C305.634 352.512 305.714 353.317 305.733 354.125L305.901 357.606C305.933 359.148 306.059 360.687 306.279 362.214C306.433 362.866 306.688 363.489 307.035 364.06H304.319C303.973 363.475 303.741 362.83 303.633 362.158V362.158ZM303.129 356.324C301.774 356.823 300.364 357.154 298.929 357.31C298.165 357.397 297.414 357.572 296.689 357.831C296.28 358.006 295.937 358.307 295.709 358.691C295.485 359.064 295.378 359.496 295.401 359.931C295.416 360.265 295.501 360.593 295.651 360.891C295.8 361.19 296.011 361.454 296.269 361.664C296.94 362.172 297.769 362.422 298.607 362.369C299.527 362.386 300.435 362.158 301.239 361.707C301.965 361.301 302.54 360.667 302.877 359.903C303.148 359.058 303.248 358.167 303.171 357.282L303.129 356.324Z" fill="#263238"/>
<path d="M314.4 364.045L307.848 348.643H310.648L314.302 357.929C314.708 358.93 315.086 359.972 315.436 361.043C315.632 360.226 315.898 359.254 316.262 358.112L319.216 348.713H321.876L316.822 364.115L314.4 364.045Z" fill="#263238"/>
<path d="M334.809 362.158C334.022 362.901 333.106 363.493 332.107 363.905C331.212 364.245 330.263 364.417 329.307 364.412C327.889 364.494 326.491 364.053 325.373 363.172C324.91 362.784 324.535 362.3 324.274 361.753C324.013 361.206 323.872 360.608 323.861 360.002C323.812 359.287 323.952 358.572 324.267 357.93C324.567 357.333 325.004 356.816 325.541 356.422C326.103 356.043 326.722 355.757 327.375 355.577C328.126 355.393 328.888 355.261 329.657 355.182C331.21 355.041 332.744 354.739 334.235 354.28C334.235 353.928 334.235 353.703 334.235 353.604C334.256 353.19 334.193 352.776 334.048 352.389C333.904 352.001 333.681 351.647 333.395 351.349C332.554 350.813 331.587 350.508 330.592 350.466C329.597 350.424 328.608 350.646 327.725 351.11C327.078 351.707 326.661 352.516 326.549 353.393L323.987 353.054C324.108 352.101 324.459 351.191 325.009 350.405C325.576 349.675 326.346 349.13 327.221 348.841C328.33 348.466 329.495 348.284 330.665 348.305C331.752 348.271 332.838 348.428 333.871 348.771C334.561 348.956 335.188 349.328 335.682 349.848C336.175 350.367 336.518 351.013 336.671 351.716C336.817 352.511 336.897 353.317 336.909 354.125L337.077 357.606C337.09 359.128 337.197 360.649 337.399 362.158C337.541 362.811 337.792 363.435 338.141 364.004H335.425C335.115 363.429 334.906 362.804 334.809 362.158ZM334.305 356.324C332.95 356.823 331.54 357.154 330.105 357.31C329.341 357.397 328.589 357.572 327.865 357.831C327.456 358.006 327.113 358.307 326.885 358.691C326.661 359.064 326.554 359.496 326.577 359.931C326.592 360.265 326.677 360.593 326.826 360.891C326.976 361.19 327.187 361.454 327.445 361.664C328.116 362.172 328.945 362.422 329.783 362.369C330.703 362.386 331.611 362.158 332.415 361.707C333.141 361.301 333.716 360.667 334.053 359.903C334.337 359.061 334.437 358.167 334.347 357.282L334.305 356.324Z" fill="#263238"/>
<path d="M340.464 345.783L340.324 342.781H342.914L343.068 345.783H340.464ZM341.332 364.102L340.604 348.7H343.194L343.936 364.102H341.332Z" fill="#263238"/>
<path d="M347.827 364.046L346.805 342.781H349.409L350.417 364.046H347.827Z" fill="#263238"/>
<path d="M364.336 362.157C363.553 362.9 362.642 363.492 361.648 363.905C360.753 364.245 359.804 364.417 358.848 364.412C357.43 364.493 356.032 364.052 354.914 363.172C354.457 362.779 354.088 362.293 353.829 361.747C353.571 361.201 353.43 360.606 353.416 360.001C353.369 359.31 353.499 358.618 353.793 357.991C354.087 357.365 354.535 356.825 355.096 356.422C355.653 356.043 356.267 355.757 356.916 355.576C357.671 355.394 358.438 355.262 359.212 355.182C360.764 355.039 362.298 354.737 363.79 354.28C363.79 353.928 363.79 353.702 363.79 353.604C363.808 353.19 363.743 352.777 363.598 352.39C363.454 352.003 363.233 351.648 362.95 351.349C362.087 350.704 361.025 350.39 359.954 350.461C359.017 350.389 358.081 350.616 357.28 351.109C356.632 351.709 356.211 352.516 356.09 353.392L353.542 353.054C353.665 352.103 354.01 351.195 354.55 350.405C355.125 349.677 355.898 349.134 356.776 348.841C357.885 348.465 359.05 348.284 360.22 348.305C361.307 348.272 362.392 348.429 363.426 348.77C364.116 348.955 364.742 349.328 365.236 349.847C365.73 350.367 366.072 351.013 366.226 351.715C366.364 352.512 366.444 353.317 366.464 354.125L366.632 357.606C366.664 359.148 366.79 360.687 367.01 362.214C367.158 362.865 367.408 363.488 367.752 364.06H365.05C364.699 363.474 364.457 362.83 364.336 362.157V362.157ZM363.846 356.323C362.49 356.821 361.08 357.152 359.646 357.31C358.882 357.397 358.13 357.572 357.406 357.831C356.994 358.002 356.65 358.304 356.426 358.691C356.202 359.064 356.094 359.496 356.118 359.931C356.13 360.266 356.214 360.594 356.363 360.893C356.513 361.192 356.725 361.455 356.986 361.664C357.657 362.171 358.486 362.421 359.324 362.369C360.244 362.386 361.152 362.157 361.956 361.706C362.681 361.304 363.253 360.669 363.58 359.903C363.864 359.06 363.964 358.166 363.874 357.282L363.846 356.323Z" fill="#263238"/>
<path d="M373.256 364.046H370.848L369.84 342.781H372.402L372.766 350.363C373.226 349.706 373.839 349.173 374.552 348.812C375.265 348.451 376.056 348.272 376.854 348.291C377.786 348.282 378.708 348.48 379.556 348.869C380.39 349.226 381.129 349.776 381.712 350.475C382.315 351.221 382.788 352.065 383.112 352.97C383.471 353.98 383.675 355.04 383.714 356.112C383.972 358.289 383.379 360.482 382.062 362.228C381.515 362.915 380.82 363.467 380.029 363.843C379.238 364.22 378.372 364.409 377.498 364.398C376.639 364.413 375.789 364.212 375.026 363.814C374.264 363.415 373.612 362.831 373.13 362.115L373.256 364.046ZM372.85 356.225C372.831 357.616 373.153 358.991 373.788 360.227C374.131 360.836 374.627 361.343 375.227 361.697C375.827 362.05 376.509 362.238 377.204 362.242C377.764 362.24 378.316 362.105 378.815 361.848C379.314 361.591 379.745 361.219 380.074 360.762C380.935 359.455 381.302 357.88 381.11 356.323C381.143 354.724 380.651 353.159 379.71 351.87C379.352 351.43 378.901 351.076 378.39 350.832C377.879 350.588 377.321 350.462 376.756 350.461C376.194 350.466 375.642 350.603 375.143 350.863C374.645 351.122 374.214 351.496 373.886 351.955C373.048 353.209 372.681 354.723 372.85 356.225V356.225Z" fill="#263238"/>
<path d="M387.225 364.046L386.203 342.781H388.807L389.815 364.046H387.225Z" fill="#263238"/>
<path d="M404.078 359.085L406.78 359.423C406.505 360.866 405.731 362.164 404.596 363.087C403.35 364.007 401.828 364.47 400.284 364.398C399.286 364.437 398.289 364.273 397.356 363.915C396.422 363.556 395.57 363.011 394.852 362.312C393.392 360.727 392.59 358.639 392.612 356.478C392.485 355.408 392.569 354.323 392.86 353.285C393.151 352.248 393.642 351.278 394.306 350.433C394.943 349.723 395.727 349.163 396.603 348.793C397.479 348.423 398.425 348.251 399.374 348.291C400.324 348.266 401.268 348.44 402.148 348.802C403.027 349.163 403.823 349.704 404.484 350.39C405.939 352.011 406.734 354.124 406.71 356.309C406.71 356.464 406.71 356.703 406.71 357.013H395.286C395.361 358.458 395.93 359.832 396.896 360.903C397.32 361.338 397.828 361.682 398.389 361.912C398.95 362.142 399.552 362.254 400.158 362.241C401.021 362.267 401.867 362.004 402.566 361.495C403.3 360.863 403.827 360.023 404.078 359.085V359.085ZM395.356 354.857H403.91C403.817 353.798 403.429 352.787 402.79 351.94C402.388 351.458 401.884 351.073 401.314 350.812C400.745 350.551 400.125 350.422 399.5 350.433C398.951 350.418 398.405 350.518 397.896 350.726C397.388 350.935 396.928 351.248 396.546 351.645C395.751 352.52 395.324 353.672 395.356 354.857V354.857Z" fill="#263238"/>
<path d="M410.816 372.669H384.524C384.275 372.669 384.037 372.57 383.861 372.393C383.685 372.216 383.586 371.975 383.586 371.725C383.586 371.602 383.61 371.48 383.658 371.366C383.705 371.252 383.774 371.149 383.862 371.062C383.949 370.976 384.052 370.908 384.166 370.862C384.28 370.816 384.401 370.793 384.524 370.795H410.816C410.938 370.793 411.06 370.816 411.174 370.862C411.288 370.908 411.391 370.976 411.478 371.062C411.566 371.149 411.635 371.252 411.682 371.366C411.73 371.48 411.754 371.602 411.754 371.725C411.754 371.849 411.73 371.972 411.683 372.086C411.635 372.201 411.566 372.305 411.479 372.393C411.392 372.48 411.289 372.55 411.175 372.597C411.061 372.645 410.939 372.669 410.816 372.669V372.669Z" fill="#0397D6"/>
<path d="M373.632 372.669H256.2C255.951 372.669 255.712 372.57 255.536 372.393C255.361 372.216 255.262 371.975 255.262 371.725C255.262 371.602 255.286 371.48 255.333 371.366C255.381 371.252 255.45 371.149 255.537 371.062C255.625 370.976 255.728 370.908 255.842 370.862C255.956 370.816 256.077 370.793 256.2 370.795H373.604C373.726 370.793 373.848 370.816 373.962 370.862C374.075 370.908 374.179 370.976 374.266 371.062C374.353 371.149 374.423 371.252 374.47 371.366C374.517 371.48 374.542 371.602 374.542 371.725C374.542 371.971 374.447 372.207 374.277 372.383C374.107 372.559 373.876 372.662 373.632 372.669V372.669Z" fill="#0397D6"/>
<path d="M299.985 231.371C299.705 225.227 296.247 220.38 292.243 220.521C288.239 220.661 285.243 225.749 285.495 231.893C285.747 238.037 289.233 242.884 293.237 242.729C297.241 242.574 300.265 237.501 299.985 231.371Z" fill="#0397D6"/>
<path d="M384.513 229.441C384.233 223.311 380.775 218.464 376.771 218.605C372.767 218.745 369.771 223.833 370.023 229.977C370.275 236.121 373.775 240.968 377.765 240.813C381.755 240.658 384.793 235.585 384.513 229.441Z" fill="#0397D6"/>
<path d="M321.091 256.469C327.55 254.041 334.43 252.951 341.318 253.266C348.206 253.581 354.959 255.293 361.173 258.301C361.379 258.416 361.56 258.57 361.707 258.756C361.853 258.942 361.961 259.155 362.025 259.383C362.089 259.611 362.107 259.849 362.079 260.085C362.05 260.32 361.975 260.547 361.859 260.753C361.621 261.167 361.232 261.472 360.774 261.601C360.316 261.73 359.826 261.673 359.409 261.444C359.199 261.331 339.249 250.508 315.435 262.853C315.01 263.069 314.519 263.11 314.064 262.968C313.609 262.826 313.227 262.512 312.999 262.092C312.89 261.882 312.824 261.653 312.803 261.417C312.783 261.181 312.81 260.944 312.881 260.718C312.953 260.493 313.068 260.284 313.221 260.104C313.373 259.923 313.559 259.775 313.769 259.668C316.134 258.435 318.581 257.366 321.091 256.469V256.469Z" fill="#0397D6"/>
<path d="M287.892 173.808C288.513 173.825 289.12 174 289.656 174.315C290.475 174.803 291.069 175.596 291.31 176.522C291.551 177.448 291.42 178.432 290.944 179.261C288.158 184.259 284.215 188.507 279.451 191.645C274.686 194.782 269.24 196.717 263.574 197.285C262.622 197.323 261.692 196.982 260.987 196.336C260.283 195.69 259.859 194.79 259.808 193.832C259.787 193.36 259.859 192.889 260.02 192.445C260.181 192.001 260.427 191.593 260.744 191.245C261.061 190.897 261.444 190.615 261.869 190.416C262.295 190.216 262.755 190.104 263.224 190.084V190.084C263.77 190.084 276.692 189.266 284.728 175.612C285.043 175.05 285.504 174.586 286.062 174.268C286.619 173.95 287.252 173.791 287.892 173.808V173.808Z" fill="#0397D6"/>
<path d="M372.466 171.736C373.051 171.62 373.655 171.652 374.224 171.829C374.794 172.007 375.31 172.323 375.728 172.751C386.928 184.024 399.724 181.756 400.256 181.657C401.182 181.489 402.137 181.689 402.92 182.214C403.703 182.74 404.254 183.55 404.456 184.475C404.55 184.938 404.552 185.415 404.462 185.878C404.371 186.342 404.191 186.783 403.931 187.176C403.67 187.569 403.335 187.906 402.945 188.168C402.555 188.43 402.117 188.612 401.656 188.703C400.956 188.83 384.66 191.958 370.562 177.782C370.102 177.323 369.775 176.746 369.616 176.114C369.457 175.482 369.473 174.818 369.662 174.195C369.851 173.571 370.205 173.011 370.687 172.575C371.169 172.14 371.76 171.845 372.396 171.722L372.466 171.736Z" fill="#0397D6"/>
<path opacity="0.2" d="M450.406 211.178L440.172 212.137C438.401 212.303 436.63 211.814 435.192 210.761C433.754 209.708 432.747 208.163 432.36 206.416L418.178 142.467C417.768 140.611 418.089 138.666 419.073 137.043C420.057 135.419 421.628 134.242 423.456 133.759L450.882 126.516L450.406 211.178Z" fill="black"/>
<path opacity="0.2" d="M292.598 158.799C285.472 139.225 278.346 107.9 285.864 78.8848L212.98 152.26C233.602 159.236 266.446 162.209 292.598 158.799Z" fill="black"/>
<path d="M285.896 152.26C277.902 128.502 281.164 96.2035 285.896 78.8848L213.012 152.26C235.076 156.305 259.73 155.656 285.896 152.26Z" fill="white"/>
<path d="M246.398 156.306C235.136 156.39 223.89 155.446 212.798 153.487C212.573 153.45 212.362 153.351 212.19 153.2C212.018 153.049 211.89 152.854 211.822 152.634C211.754 152.415 211.747 152.181 211.803 151.959C211.86 151.736 211.976 151.533 212.14 151.373L285.024 77.998C285.218 77.7991 285.473 77.671 285.747 77.6341C286.022 77.5972 286.301 77.6535 286.541 77.7942C286.78 77.9348 286.966 78.1518 287.069 78.4108C287.172 78.6697 287.186 78.9559 287.11 79.224C282.714 95.3449 279.06 127.981 287.11 151.853C287.165 152.03 287.183 152.217 287.161 152.402C287.14 152.586 287.079 152.764 286.984 152.924C286.888 153.082 286.757 153.216 286.602 153.316C286.447 153.416 286.271 153.48 286.088 153.501C272.931 155.289 259.674 156.226 246.398 156.306V156.306ZM215.598 151.43C234.974 154.657 257.472 154.586 284.198 151.204C277.604 130.151 279.102 102.292 283.526 83.0006L215.598 151.43Z" fill="#263238"/>
<path d="M536.343 259.442C535.882 259.441 535.435 259.288 535.07 259.005C534.706 258.722 534.444 258.325 534.327 257.877L508.651 159.405C508.51 158.865 508.588 158.29 508.867 157.808C509.147 157.326 509.605 156.975 510.142 156.833C510.678 156.691 511.249 156.769 511.728 157.051C512.207 157.332 512.556 157.794 512.697 158.334L538.373 256.806C538.442 257.074 538.459 257.352 538.421 257.626C538.383 257.9 538.292 258.164 538.153 258.402C538.014 258.64 537.829 258.848 537.61 259.015C537.391 259.181 537.141 259.302 536.875 259.371C536.702 259.423 536.523 259.447 536.343 259.442V259.442Z" fill="#263238"/>
<path d="M584.163 117.988L582.805 118.34L584.733 125.871L586.091 125.519L584.163 117.988Z" fill="#0397D6"/>
<path d="M579.754 107.224L574.364 86.5514C573.63 83.7527 571.824 81.3608 569.342 79.9001C566.859 78.4393 563.903 78.0289 561.12 78.7587L547.022 82.4789L546.672 81.0698L560.77 77.3355C563.909 76.5153 567.243 76.98 570.042 78.6279C572.842 80.2759 574.879 82.9728 575.708 86.1287L581.112 106.815L579.754 107.224Z" fill="#0397D6"/>
<path d="M562.018 82.205L428.537 117.452C424.618 118.487 422.275 122.524 423.303 126.469L440.196 191.281C441.224 195.226 445.234 197.585 449.153 196.55L582.634 161.302C586.553 160.268 588.897 156.231 587.868 152.286L570.976 87.4736C569.948 83.5289 565.937 81.1701 562.018 82.205Z" fill="#0397D6"/>
<path d="M555.367 157.704L471.151 179.943C467.232 180.977 464.888 185.014 465.916 188.959L471.195 209.214C472.224 213.158 476.234 215.517 480.153 214.482L564.369 192.244C568.288 191.209 570.631 187.172 569.603 183.228L564.324 162.973C563.296 159.028 559.286 156.669 555.367 157.704Z" fill="#0397D6"/>
<path d="M479.008 187.336L490.53 184.32L491.3 187.308L484.09 189.196L484.664 191.423L491.398 189.675L492.14 192.493L485.448 194.255L486.162 197.003L493.582 195.072L494.394 198.243L482.676 201.315L479.008 187.336Z" fill="white"/>
<path d="M496.731 197.651L493.105 183.644L500.273 181.77C501.291 181.464 502.348 181.312 503.409 181.319C504.16 181.358 504.875 181.651 505.439 182.15C505.998 182.683 506.407 183.353 506.628 184.095C506.85 184.837 506.874 185.623 506.699 186.377C506.521 187.034 506.173 187.632 505.691 188.111C505.279 188.501 504.806 188.819 504.291 189.055C504.68 189.037 505.069 189.098 505.435 189.234C505.8 189.369 506.135 189.577 506.419 189.844C506.717 190.057 506.998 190.292 507.259 190.549L510.381 194.057L505.523 195.34L502.149 191.648C501.865 191.285 501.507 190.987 501.099 190.774C500.726 190.654 500.325 190.654 499.951 190.774L499.573 190.873L501.043 196.509L496.731 197.651ZM498.887 188.181L500.707 187.716C501.085 187.585 501.451 187.42 501.799 187.223C502.064 187.099 502.27 186.877 502.373 186.603C502.517 186.276 502.532 185.906 502.415 185.569C502.298 185.231 502.058 184.951 501.743 184.785C501.192 184.609 500.601 184.609 500.049 184.785L498.159 185.278L498.887 188.181Z" fill="white"/>
<path d="M511.839 193.69L508.199 179.683L515.367 177.808C516.386 177.509 517.442 177.357 518.503 177.357C519.249 177.398 519.959 177.691 520.519 178.189C521.143 178.738 521.575 179.474 521.751 180.288C521.947 180.989 521.947 181.73 521.751 182.43C521.568 183.078 521.227 183.67 520.757 184.15C520.34 184.536 519.868 184.859 519.357 185.108C519.781 185.112 520.201 185.184 520.603 185.319C520.916 185.475 521.212 185.664 521.485 185.883C521.779 186.094 522.056 186.33 522.311 186.587L525.447 190.11L520.589 191.379L517.187 187.701C516.901 187.334 516.538 187.036 516.123 186.827C515.755 186.707 515.358 186.707 514.989 186.827L514.611 186.926L516.081 192.562L511.839 193.69ZM514.009 184.234L515.829 183.755C516.201 183.62 516.562 183.455 516.907 183.262C517.041 183.203 517.162 183.117 517.263 183.011C517.364 182.905 517.443 182.779 517.495 182.642C517.635 182.316 517.647 181.95 517.531 181.616C517.414 181.282 517.176 181.004 516.865 180.838C516.312 180.648 515.711 180.648 515.157 180.838L513.281 181.331L514.009 184.234Z" fill="white"/>
<path d="M524.233 182.98C523.885 182.031 523.751 181.016 523.839 180.009C523.927 179.001 524.236 178.026 524.743 177.153C525.251 176.28 525.944 175.531 526.773 174.96C527.602 174.388 528.546 174.009 529.539 173.849C530.494 173.533 531.503 173.414 532.506 173.496C533.508 173.578 534.484 173.861 535.377 174.328C536.206 174.862 536.92 175.559 537.476 176.377C538.032 177.196 538.418 178.119 538.611 179.091C539.015 180.462 539.092 181.911 538.835 183.318C538.569 184.495 537.96 185.565 537.085 186.39C536.051 187.321 534.798 187.971 533.445 188.278C532.119 188.674 530.721 188.761 529.357 188.532C528.168 188.289 527.079 187.69 526.235 186.813C525.244 185.735 524.553 184.413 524.233 182.98V182.98ZM528.531 181.881C528.713 182.975 529.268 183.971 530.099 184.699C530.449 184.92 530.84 185.068 531.248 185.132C531.657 185.196 532.074 185.177 532.475 185.074C532.875 184.971 533.251 184.787 533.579 184.534C533.907 184.281 534.18 183.963 534.383 183.6C534.735 182.472 534.706 181.257 534.299 180.148C534.121 179.098 533.574 178.148 532.759 177.47C532.413 177.237 532.02 177.085 531.608 177.024C531.196 176.963 530.776 176.995 530.379 177.118C529.979 177.207 529.605 177.386 529.285 177.642C528.964 177.899 528.706 178.225 528.531 178.597C528.155 179.659 528.155 180.819 528.531 181.881Z" fill="white"/>
<path d="M542.821 185.573L539.195 171.58L546.363 169.706C547.379 169.392 548.437 169.24 549.499 169.255C550.25 169.291 550.966 169.585 551.529 170.086C552.09 170.617 552.5 171.288 552.719 172.031C552.938 172.773 552.957 173.561 552.775 174.314C552.593 174.966 552.251 175.562 551.781 176.047C551.369 176.437 550.896 176.756 550.381 176.991C550.81 177.006 551.234 177.082 551.641 177.217C551.951 177.364 552.243 177.549 552.509 177.766C552.807 177.978 553.084 178.219 553.335 178.485L556.471 181.994L551.613 183.276L548.211 179.598C547.921 179.232 547.559 178.93 547.147 178.71C546.778 178.597 546.383 178.597 546.013 178.71L545.635 178.809L547.105 184.446L542.821 185.573ZM544.977 176.118L546.797 175.653C547.173 175.515 547.538 175.35 547.889 175.159C548.15 175.031 548.355 174.81 548.463 174.539C548.607 174.212 548.622 173.843 548.505 173.505C548.388 173.168 548.148 172.888 547.833 172.721C547.283 172.539 546.689 172.539 546.139 172.721L544.249 173.215L544.977 176.118Z" fill="white"/>
<path d="M446.234 131.39L475.214 123.725L477.762 133.589L458.162 138.775L458.848 145.694C459.976 144.727 461.2 143.881 462.502 143.171C463.711 142.522 464.988 142.011 466.31 141.649C468.248 141.052 470.285 140.848 472.302 141.052C474.318 141.255 476.275 141.86 478.056 142.833C479.743 143.784 481.214 145.079 482.376 146.634C483.537 148.189 484.365 149.971 484.804 151.866C485.533 154.751 485.533 157.774 484.804 160.659C484.122 163.585 482.581 166.237 480.38 168.268C477.678 170.586 474.453 172.202 470.986 172.975C468.492 173.678 465.919 174.062 463.328 174.116C461.303 174.142 459.293 173.774 457.406 173.031C455.758 172.36 454.238 171.407 452.912 170.213C451.499 168.864 450.287 167.317 449.314 165.619L461.312 160.997C461.922 162.663 463.078 164.069 464.588 164.985C465.909 165.718 467.462 165.9 468.914 165.492C469.722 165.299 470.476 164.923 471.119 164.393C471.761 163.863 472.276 163.194 472.624 162.434C473.416 160.439 473.471 158.224 472.778 156.192C472.41 154.071 471.273 152.162 469.586 150.837C468.858 150.377 468.039 150.08 467.186 149.968C466.333 149.857 465.466 149.932 464.644 150.189C463.452 150.508 462.355 151.118 461.452 151.964C460.575 152.826 459.863 153.844 459.352 154.966L448.558 156.206L446.234 131.39Z" fill="white"/>
<path d="M487.939 143.806C485.736 135.407 485.703 129.127 487.841 124.965C489.978 120.804 494.122 117.915 500.273 116.299C502.728 115.569 505.294 115.292 507.847 115.482C509.734 115.656 511.567 116.212 513.237 117.116C514.648 117.901 515.928 118.905 517.031 120.09C518.13 121.334 519.07 122.711 519.831 124.19C521.541 127.344 522.853 130.7 523.737 134.181C525.837 142.195 526.023 148.423 524.297 152.867C522.57 157.31 518.407 160.396 511.809 162.125C508.758 163.067 505.528 163.265 502.387 162.703C499.763 162.112 497.345 160.822 495.387 158.969C493.634 157.232 492.21 155.188 491.187 152.937C489.8 150.012 488.712 146.952 487.939 143.806ZM500.049 140.635C501.514 146.272 503.012 149.987 504.543 151.782C505.093 152.581 505.869 153.195 506.77 153.544C507.671 153.893 508.656 153.962 509.597 153.741C510.776 153.423 511.783 152.647 512.397 151.584C513.149 150.148 513.475 148.524 513.335 146.906C513.085 143.851 512.527 140.829 511.669 137.887C510.147 132.025 508.626 128.211 507.105 126.445C506.518 125.638 505.702 125.029 504.765 124.697C503.829 124.365 502.814 124.326 501.855 124.585C500.894 124.824 500.033 125.361 499.392 126.119C498.752 126.878 498.364 127.82 498.285 128.812C498.061 131.137 498.593 135.069 500.049 140.635V140.635Z" fill="white"/>
<path d="M538.328 120.723L526.246 121.696C526.131 118.082 527.308 114.546 529.564 111.733C531.776 109.041 535.374 107.026 540.372 105.716C546.112 104.194 550.541 104.194 553.658 105.716C555.118 106.355 556.414 107.322 557.445 108.544C558.477 109.765 559.216 111.208 559.608 112.761C560.109 114.618 560.036 116.585 559.398 118.398C558.62 120.435 557.373 122.256 555.758 123.711C557.2 123.643 558.645 123.795 560.042 124.162C561.693 124.656 563.185 125.58 564.368 126.839C565.637 128.249 566.529 129.961 566.958 131.813C567.627 134.418 567.603 137.155 566.888 139.747C566.168 142.484 564.646 144.939 562.52 146.793C559.773 149.015 556.553 150.568 553.112 151.33C549.941 152.301 546.616 152.664 543.312 152.401C540.867 152.118 538.535 151.211 536.536 149.766C534.409 148.16 532.631 146.131 531.314 143.805L543.088 138.958C543.798 140.801 545.042 142.387 546.658 143.51C547.95 144.196 549.457 144.348 550.858 143.932C551.634 143.742 552.359 143.384 552.982 142.882C553.606 142.381 554.114 141.749 554.47 141.029C555.267 139.393 555.402 137.509 554.848 135.773C554.51 134.015 553.506 132.459 552.048 131.433C551.348 131.004 550.564 130.731 549.75 130.634C548.936 130.537 548.111 130.617 547.33 130.869C546.006 131.294 544.74 131.886 543.564 132.631L541.912 123.697C542.458 123.641 543.001 123.551 543.536 123.429C544.277 123.255 544.976 122.935 545.594 122.487C546.211 122.04 546.735 121.474 547.134 120.822C547.525 120.229 547.786 119.559 547.9 118.857C548.013 118.155 547.976 117.436 547.792 116.749C547.665 116.151 547.418 115.586 547.066 115.086C546.715 114.587 546.266 114.166 545.748 113.847C545.2 113.548 544.597 113.364 543.976 113.306C543.356 113.248 542.73 113.317 542.136 113.508C541.487 113.651 540.873 113.923 540.33 114.308C539.787 114.693 539.325 115.183 538.972 115.749C538.246 117.298 538.02 119.038 538.328 120.723V120.723Z" fill="white"/>
<path d="M407.047 132.767C404.26 122.079 410.664 111.154 421.353 108.367L552.951 74.0467C563.639 71.2592 574.563 77.6641 577.351 88.3523L588.454 130.928C591.242 141.616 584.837 152.541 574.149 155.328L442.551 189.648C431.862 192.436 420.938 186.031 418.151 175.343L407.047 132.767Z" fill="#0397D6"/>
<path d="M472.434 147.188L471.546 143.782L477.892 126.65L482.939 125.334L486.621 139.454L489.346 138.743L490.331 142.521L487.607 143.231L488.753 147.628L484.418 148.759L483.272 144.362L472.434 147.188ZM480.094 131.037L476.217 142.167L482.565 140.512L480.094 131.037ZM491.218 134.617C490.286 131.046 490.197 128.082 490.949 125.725C491.722 123.363 493.605 121.792 496.598 121.011C499.592 120.231 501.992 120.685 503.799 122.374C505.627 124.058 507.007 126.685 507.939 130.257C508.875 133.849 508.96 136.836 508.192 139.219C507.446 141.596 505.575 143.175 502.582 143.956C499.589 144.736 497.176 144.274 495.342 142.57C493.529 140.86 492.155 138.209 491.218 134.617ZM503.665 131.371C503.267 129.843 502.83 128.591 502.355 127.612C501.894 126.608 501.279 125.853 500.508 125.349C499.757 124.839 498.804 124.735 497.648 125.037C496.492 125.338 495.701 125.897 495.275 126.714C494.869 127.525 494.7 128.484 494.768 129.591C494.852 130.671 495.093 131.975 495.491 133.503C495.9 135.072 496.338 136.369 496.803 137.394C497.264 138.398 497.879 139.152 498.65 139.657C499.416 140.141 500.376 140.232 501.532 139.93C502.688 139.629 503.482 139.08 503.914 138.284C504.34 137.467 504.509 136.508 504.42 135.407C504.326 134.285 504.075 132.94 503.665 131.371ZM512.923 136.629L512.035 133.223L518.381 116.091L523.428 114.775L527.111 128.894L529.836 128.184L530.821 131.961L528.096 132.672L529.243 137.069L524.908 138.199L523.761 133.803L512.923 136.629ZM520.583 120.477L516.707 131.608L523.054 129.952L520.583 120.477Z" fill="white"/>
</svg>
