<svg width="615" height="500" viewBox="0 0 615 500" fill="none" xmlns="http://www.w3.org/2000/svg">
<g clip-path="url(#clip0_629_1381)">
<path d="M124.56 312.561H119.205V430.362H124.56V312.561Z" fill="#F3F5FD"/>
<path d="M118.882 233.067C136.131 233.067 150.115 216.098 150.115 195.165C150.115 174.233 136.131 157.264 118.882 157.264C101.632 157.264 87.6484 174.233 87.6484 195.165C87.6484 216.098 101.632 233.067 118.882 233.067Z" fill="#F3F5FD"/>
<path d="M137.123 338.771C152.527 338.771 165.014 323.617 165.014 304.924C165.014 286.232 152.527 271.078 137.123 271.078C121.719 271.078 109.231 286.232 109.231 304.924C109.231 323.617 121.719 338.771 137.123 338.771Z" fill="#F3F5FD"/>
<path d="M103.881 341.059C120.327 341.059 133.659 324.881 133.659 304.924C133.659 284.967 120.327 268.789 103.881 268.789C87.4353 268.789 74.1035 284.967 74.1035 304.924C74.1035 324.881 87.4353 341.059 103.881 341.059Z" fill="#F3F5FD"/>
<path d="M140.993 263.442C154.818 263.442 166.025 249.842 166.025 233.065C166.025 216.288 154.818 202.688 140.993 202.688C127.167 202.688 115.96 216.288 115.96 233.065C115.96 249.842 127.167 263.442 140.993 263.442Z" fill="#F3F5FD"/>
<path d="M121.882 281.692C135.707 281.692 146.915 268.092 146.915 251.315C146.915 234.538 135.707 220.938 121.882 220.938C108.057 220.938 96.8496 234.538 96.8496 251.315C96.8496 268.092 108.057 281.692 121.882 281.692Z" fill="#F3F5FD"/>
<path d="M151.702 293.821C165.527 293.821 176.734 280.221 176.734 263.444C176.734 246.667 165.527 233.066 151.702 233.066C137.876 233.066 126.669 246.667 126.669 263.444C126.669 280.221 137.876 293.821 151.702 293.821Z" fill="#F3F5FD"/>
<path d="M90.9272 262.364C104.752 262.364 115.96 248.764 115.96 231.987C115.96 215.21 104.752 201.609 90.9272 201.609C77.102 201.609 65.8945 215.21 65.8945 231.987C65.8945 248.764 77.102 262.364 90.9272 262.364Z" fill="#F3F5FD"/>
<path d="M90.9272 300.053C104.752 300.053 115.96 286.453 115.96 269.676C115.96 252.899 104.752 239.299 90.9272 239.299C77.102 239.299 65.8945 252.899 65.8945 269.676C65.8945 286.453 77.102 300.053 90.9272 300.053Z" fill="#F3F5FD"/>
<path d="M474.378 295.889H467.292V451.781H474.378V295.889Z" fill="#F3F5FD"/>
<path d="M466.864 190.69C489.691 190.69 508.196 168.234 508.196 140.533C508.196 112.833 489.691 90.377 466.864 90.377C444.037 90.377 425.532 112.833 425.532 140.533C425.532 168.234 444.037 190.69 466.864 190.69Z" fill="#F3F5FD"/>
<path d="M491.003 330.573C511.388 330.573 527.913 310.52 527.913 285.783C527.913 261.046 511.388 240.992 491.003 240.992C470.618 240.992 454.093 261.046 454.093 285.783C454.093 310.52 470.618 330.573 491.003 330.573Z" fill="#F3F5FD"/>
<path d="M447.014 333.603C468.778 333.603 486.421 312.194 486.421 285.783C486.421 259.373 468.778 237.963 447.014 237.963C425.25 237.963 407.607 259.373 407.607 285.783C407.607 312.194 425.25 333.603 447.014 333.603Z" fill="#F3F5FD"/>
<path d="M496.125 230.889C514.421 230.889 529.253 212.891 529.253 190.689C529.253 168.487 514.421 150.488 496.125 150.488C477.829 150.488 462.998 168.487 462.998 190.689C462.998 212.891 477.829 230.889 496.125 230.889Z" fill="#F3F5FD"/>
<path d="M470.835 255.04C489.131 255.04 503.962 237.041 503.962 214.839C503.962 192.637 489.131 174.639 470.835 174.639C452.539 174.639 437.707 192.637 437.707 214.839C437.707 237.041 452.539 255.04 470.835 255.04Z" fill="#F3F5FD"/>
<path d="M510.296 271.091C528.592 271.091 543.424 253.092 543.424 230.89C543.424 208.688 528.592 190.689 510.296 190.689C492 190.689 477.168 208.688 477.168 230.89C477.168 253.092 492 271.091 510.296 271.091Z" fill="#F3F5FD"/>
<path d="M429.87 229.46C448.166 229.46 462.997 211.461 462.997 189.259C462.997 167.057 448.166 149.059 429.87 149.059C411.574 149.059 396.742 167.057 396.742 189.259C396.742 211.461 411.574 229.46 429.87 229.46Z" fill="#F3F5FD"/>
<path d="M429.87 279.339C448.166 279.339 462.997 261.34 462.997 239.138C462.997 216.936 448.166 198.938 429.87 198.938C411.574 198.938 396.742 216.936 396.742 239.138C396.742 261.34 411.574 279.339 429.87 279.339Z" fill="#F3F5FD"/>
<path d="M396.921 499.999H611.64C623.415 461.38 588.031 442.335 576.781 467.361C583.492 452.431 585.277 433.509 571.338 421.327C556.73 411.671 539.144 422.71 536.452 440.175C540.034 416.919 522.974 393.741 503.989 388.471C455.261 374.954 444.398 435.526 448.814 445.049C435.938 417.302 382.727 451.551 396.921 499.999Z" fill="#F3F5FD"/>
<path d="M9.73926 499.999H226.843C238.619 461.38 203.235 442.334 191.985 467.36C198.696 452.431 200.481 433.509 186.542 421.327C171.934 411.671 154.348 422.709 151.656 440.175C155.238 416.918 138.178 393.74 119.193 388.471C70.4648 374.956 59.6016 435.527 64.0208 445.05C36.3256 427.437 9.73926 450.304 9.73926 499.999Z" fill="#F3F5FD"/>
<path d="M320.749 499.999H450.685C460.216 490.769 460.873 469.971 450.994 460.684C443.382 453.527 431.868 455.441 424.71 462.885C426.048 457.343 426.074 451.456 424.787 445.896C422.459 435.884 417.286 425.712 409.387 421.663C389.23 411.34 374.907 432.966 372.037 445.058C366.878 435.848 355.331 430.98 348.084 437.18C338.905 445.032 339.32 457.412 346.646 466.297C336.89 464.09 329.542 465.793 322.775 474.611C317.62 481.317 316.832 492.75 320.749 499.999Z" fill="#F3F5FD"/>
<path d="M331.884 499.999H200.42C193.21 476.355 214.874 464.692 221.762 480.017C217.654 470.876 216.56 459.291 225.095 451.833C234.038 445.921 244.806 452.68 246.454 463.373C244.261 449.133 254.706 434.943 266.33 431.716C296.165 423.44 302.816 460.526 300.112 466.357C307.992 449.367 340.571 470.336 331.884 499.999Z" fill="#F3F5FD"/>
<path d="M127.933 500H7.40181C-1.44001 491.437 -2.04898 472.146 7.11424 463.532C14.1791 456.892 24.8571 458.668 31.4965 465.574C30.2558 460.433 30.2312 454.972 31.4254 449.814C33.5839 440.523 38.3829 431.089 45.7099 427.337C64.4085 417.763 77.6966 437.822 80.3566 449.039C85.1437 440.496 95.8538 435.98 102.575 441.732C111.09 449.019 110.705 460.499 103.912 468.741C112.962 466.689 119.779 468.273 126.056 476.449C130.837 482.67 131.566 493.276 127.933 500Z" fill="#8DDBE0"/>
<path d="M612.276 500.001H538.082C532.639 494.73 532.265 482.854 537.905 477.551C542.254 473.464 548.827 474.557 552.915 478.808C552.151 475.643 552.136 472.282 552.871 469.107C554.199 463.387 557.154 457.581 561.667 455.269C573.177 449.375 581.357 461.723 582.994 468.628C585.942 463.369 592.534 460.589 596.671 464.13C601.915 468.613 601.677 475.682 597.495 480.757C603.066 479.497 607.261 480.469 611.126 485.502C614.062 489.333 614.513 495.861 612.276 500.001Z" fill="#8DDBE0"/>
<path fill-rule="evenodd" clip-rule="evenodd" d="M413.012 247.668L423.038 499.999H423.706H520.686L530.713 247.668H413.012Z" fill="#8DDBE0"/>
<path d="M471.861 394.993C494.885 394.993 513.549 372.344 513.549 344.404C513.549 316.464 494.885 293.814 471.861 293.814C448.837 293.814 430.172 316.464 430.172 344.404C430.172 372.344 448.837 394.993 471.861 394.993Z" fill="white"/>
<path fill-rule="evenodd" clip-rule="evenodd" d="M481.105 341.744L491.695 333.9L496.44 345.239C497.585 351.434 491.305 353.707 486.263 353.338L481.105 341.744Z" fill="#8DDBE0"/>
<path fill-rule="evenodd" clip-rule="evenodd" d="M478.699 349.844L473.125 362.034L478.695 374.395L478.833 369.451H483.921C484.962 369.493 485.992 369.189 486.901 368.573C487.81 367.957 488.564 367.052 489.081 365.956L495.613 351.123C493.459 353.764 490.688 354.447 487.499 354.447H478.906L478.699 349.844Z" fill="#8DDBE0"/>
<path fill-rule="evenodd" clip-rule="evenodd" d="M466.257 334.811L455.586 327.14L461.278 316.494C465.09 312.245 469.742 317.948 471.929 323.594L466.257 334.811Z" fill="#8DDBE0"/>
<path fill-rule="evenodd" clip-rule="evenodd" d="M473.135 333.49L484.435 333.61L490.448 321.573L486.896 323.824L484.426 318.308C483.966 317.174 483.261 316.213 482.386 315.527C481.511 314.841 480.499 314.456 479.458 314.414L465.827 314.533C468.737 315.586 470.564 318.258 472.11 321.718L476.282 331.035L473.136 333.493L473.135 333.49Z" fill="#8DDBE0"/>
<path fill-rule="evenodd" clip-rule="evenodd" d="M447.42 334.178L450.726 337.312L447.614 344.546C446.059 347.882 448.731 351.131 450.435 352.262C452.111 353.375 454.713 353.507 457.144 353.467L461.52 344.787L464.826 346.957L459.086 334.057L447.42 334.178Z" fill="#8DDBE0"/>
<path fill-rule="evenodd" clip-rule="evenodd" d="M447.906 350.936L455.005 366.85C456.431 369.061 459.122 369.584 461.909 369.502H469.397V354.432L455.2 354.312C453.852 354.467 452.493 354.243 451.228 353.658C449.963 353.072 448.826 352.141 447.906 350.936Z" fill="#8DDBE0"/>
<path fill-rule="evenodd" clip-rule="evenodd" d="M273.178 247.668L283.204 499.999H283.873H380.853L390.879 247.668H273.178Z" fill="#4AAA42"/>
<path fill-rule="evenodd" clip-rule="evenodd" d="M390.876 247.665H273.177L282.134 179.945H381.505L390.876 247.665Z" fill="#4AAA42"/>
<path opacity="0.12" fill-rule="evenodd" clip-rule="evenodd" d="M377.508 236.324H286.546L292.503 191.287H371.276L377.508 236.324Z" fill="#0F1011"/>
<path d="M332.029 394.993C355.053 394.993 373.717 372.344 373.717 344.404C373.717 316.464 355.053 293.814 332.029 293.814C309.005 293.814 290.34 316.464 290.34 344.404C290.34 372.344 309.005 394.993 332.029 394.993Z" fill="white"/>
<path fill-rule="evenodd" clip-rule="evenodd" d="M341.273 341.744L351.863 333.9L356.607 345.239C357.753 351.434 351.473 353.707 346.431 353.338L341.273 341.744Z" fill="#4AAA42"/>
<path fill-rule="evenodd" clip-rule="evenodd" d="M338.867 349.843L333.298 362.033L338.867 374.395L339.004 369.451H344.093C345.133 369.492 346.164 369.188 347.073 368.572C347.982 367.956 348.735 367.051 349.252 365.955L355.783 351.119C353.628 353.761 350.857 354.443 347.669 354.443H339.074L338.867 349.84V349.843Z" fill="#4AAA42"/>
<path fill-rule="evenodd" clip-rule="evenodd" d="M326.424 334.811L315.753 327.14L321.446 316.494C325.258 312.245 329.91 317.948 332.096 323.594L326.424 334.811Z" fill="#4AAA42"/>
<path fill-rule="evenodd" clip-rule="evenodd" d="M333.303 333.49L344.603 333.61L350.616 321.573L347.064 323.824L344.594 318.308C344.134 317.174 343.429 316.213 342.554 315.527C341.679 314.841 340.667 314.456 339.626 314.414L325.995 314.533C328.905 315.586 330.732 318.258 332.278 321.718L336.45 331.035L333.304 333.493L333.303 333.49Z" fill="#4AAA42"/>
<path fill-rule="evenodd" clip-rule="evenodd" d="M307.588 334.178L310.894 337.312L307.782 344.546C306.227 347.882 308.899 351.131 310.602 352.262C312.279 353.375 314.881 353.507 317.312 353.467L321.688 344.787L324.994 346.957L319.257 334.057L307.588 334.178Z" fill="#4AAA42"/>
<path fill-rule="evenodd" clip-rule="evenodd" d="M308.074 350.936L315.173 366.85C316.599 369.061 319.29 369.584 322.077 369.502H329.565V354.432L315.368 354.312C314.02 354.467 312.661 354.243 311.396 353.658C310.131 353.072 308.994 352.141 308.074 350.936Z" fill="#4AAA42"/>
<path d="M131.578 36.4358C131.448 21.1748 138.11 9.66516 144.849 4.47278C151.498 -0.650821 170.658 -5.11037 178.564 13.4884C183.723 25.6251 181.686 29.9635 183.148 49.4018C184.609 68.8401 190.224 70.8805 195.919 94.4417C200.385 112.923 175.367 122.734 153.705 121.887C132.042 121.039 118.308 115.215 117.052 98.4989C115.245 74.5036 131.833 66.343 131.578 36.4358Z" fill="#0F1011"/>
<path d="M168.37 72.9738L144.484 76.5764C144.484 76.5764 148.34 74.0413 149.373 63.0386C149.686 61.3143 149.999 59.3437 150.303 57.1678C150.6 55.0638 150.878 52.7545 151.106 50.2912L162.855 47.5098C162.855 47.5098 161.484 66.8988 168.37 72.9738Z" fill="#E98862"/>
<g opacity="0.15">
<path opacity="0.15" d="M165.571 68.9578L154.266 58.6623L163.081 58.457C163.365 62.1149 164.209 65.6762 165.571 68.9578Z" fill="black"/>
</g>
<path d="M141.639 42.4064C142.625 48.9526 145.62 55.1333 150.402 57.1932C155.616 59.6378 161.244 60.4969 166.794 59.6955C181.576 58.0585 178.341 17.277 171.258 9.42734C164.176 1.57771 143.601 6.82756 141.195 20.1159C139.951 26.9925 140.702 36.1754 141.639 42.4064Z" fill="#E98862"/>
<path d="M162.75 37.1189C163.427 37.1189 163.976 36.4531 163.976 35.6317C163.976 34.8104 163.427 34.1445 162.75 34.1445C162.073 34.1445 161.524 34.8104 161.524 35.6317C161.524 36.4531 162.073 37.1189 162.75 37.1189Z" fill="#0F1011"/>
<path d="M172.411 36.0525C173.088 36.0525 173.637 35.3867 173.637 34.5653C173.637 33.744 173.088 33.0781 172.411 33.0781C171.734 33.0781 171.186 33.744 171.186 34.5653C171.186 35.3867 171.734 36.0525 172.411 36.0525Z" fill="#0F1011"/>
<path d="M174.505 31.3712L171.258 31.3578C171.109 31.3509 170.968 31.2743 170.865 31.1441C170.762 31.0138 170.704 30.8401 170.704 30.6594C170.704 30.4786 170.762 30.3049 170.865 30.1747C170.968 30.0445 171.109 29.9679 171.258 29.9609L174.505 29.9743C174.654 29.9812 174.795 30.0578 174.898 30.188C175.001 30.3183 175.059 30.492 175.059 30.6727C175.059 30.8535 175.001 31.0272 174.898 31.1574C174.795 31.2876 174.654 31.3642 174.505 31.3712Z" fill="#0F1011"/>
<path d="M160.079 32.9686C159.939 32.9687 159.803 32.9064 159.698 32.7934C159.593 32.6805 159.525 32.5247 159.508 32.3555C159.491 32.1863 159.526 32.0154 159.605 31.8749C159.685 31.7345 159.804 31.6344 159.941 31.5933L163.134 30.6224C163.28 30.5825 163.434 30.6138 163.562 30.7096C163.69 30.8054 163.782 30.958 163.818 31.135C163.855 31.312 163.833 31.4993 163.757 31.6568C163.681 31.8143 163.558 31.9297 163.413 31.9782L160.22 32.9481C160.174 32.962 160.127 32.9688 160.079 32.9686Z" fill="#0F1011"/>
<path d="M163.405 47.3402C163.405 47.3402 167.934 47.8687 171.094 46.4883C171.094 46.4883 171.094 50.1042 167.519 50.5003C163.944 50.8965 163.405 47.3402 163.405 47.3402Z" fill="white"/>
<path d="M151.757 30.6987C151.699 28.9231 151.597 27.127 151.462 25.3103L148.629 31.294C148.629 31.294 149.83 31.0888 151.758 30.6987C151.962 37.2404 151.744 43.7914 151.107 50.292C150.879 52.7553 150.599 55.0646 150.304 57.1686C150 59.3445 149.687 61.3152 149.374 63.0394C148.503 67.9968 137.237 49.4812 135.494 31.5301C133.854 14.708 144.012 4.64965 150.904 2.69956C177.106 -4.71079 178.925 18.4737 178.925 18.4737C177.58 24.7664 159.235 29.1592 151.757 30.6987Z" fill="#0F1011"/>
<path d="M151.757 30.7009C149.83 31.0909 148.628 31.2962 148.628 31.2962L151.461 25.3125C151.598 27.1292 151.699 28.9253 151.757 30.7009Z" fill="#0F1011"/>
<path d="M156.611 42.1113C156.727 43.7711 156.298 45.4195 155.416 46.6964C154.535 47.9733 153.273 48.775 151.906 48.9263C150.538 49.0777 149.178 48.5663 148.12 47.504C147.063 46.4417 146.395 44.9147 146.262 43.2567C146.188 42.4296 146.252 41.5929 146.451 40.7965C146.649 40 146.977 39.2601 147.416 38.6208C147.854 37.9815 148.395 37.4558 149.004 37.0751C149.614 36.6944 150.28 36.4664 150.964 36.4047C154.666 36.2169 156.349 38.6432 156.611 42.1113Z" fill="#E98862"/>
<g opacity="0.15">
<path opacity="0.15" d="M168.248 43.8254C168.147 43.8251 168.05 43.7813 167.974 43.7017C167.897 43.6221 167.847 43.512 167.831 43.3912C167.816 43.2704 167.836 43.1469 167.889 43.0428C167.942 42.9388 168.024 42.8611 168.12 42.8237L170.605 41.8661L168.829 37.1746C168.804 37.1131 168.789 37.0461 168.786 36.9776C168.783 36.9091 168.791 36.8405 168.809 36.7758C168.828 36.7111 168.858 36.6516 168.896 36.6009C168.934 36.5502 168.98 36.5093 169.031 36.4806C169.083 36.4519 169.138 36.436 169.195 36.4339C169.251 36.4317 169.308 36.4433 169.36 36.468C169.413 36.4927 169.461 36.53 169.502 36.5777C169.543 36.6253 169.575 36.6824 169.597 36.7455L171.576 41.9656C171.602 42.0315 171.615 42.1032 171.616 42.1758C171.616 42.2485 171.604 42.3204 171.58 42.387C171.556 42.4536 171.521 42.5132 171.476 42.5619C171.432 42.6106 171.38 42.6474 171.323 42.6697L168.381 43.7987C168.338 43.8162 168.293 43.8252 168.248 43.8254Z" fill="black"/>
</g>
<path d="M200.937 487.28L183.3 484.735C184.094 476.634 184.991 466.903 185.053 465.307C185.053 465.409 185.053 465.493 185.053 465.558H202.815C202.814 466.205 202.814 468.171 200.937 487.28Z" fill="#E98862"/>
<path d="M130.165 489.857L112.403 489.786C112.403 489.786 112.463 467.53 112.463 465.559H130.225C130.225 467.536 130.165 489.857 130.165 489.857Z" fill="#E98862"/>
<path d="M207.49 479.824C206.02 434.655 205.93 387.214 205.471 341.926C199.362 293.077 196.151 239.501 188.61 190.999L188.386 191.08L187.724 185.61L123.379 180.791L121.116 231.801C117.877 300.137 111.615 409.993 107.827 479.245L139.009 482.442C144.579 414.334 152.814 305.831 157.847 238.704C163.37 272.908 169.424 311.428 174.327 346.038C175.4 390.252 176.298 436.327 176.2 480.468L207.49 479.824Z" fill="#262626"/>
<path d="M151.757 498.196C152.235 498.193 152.707 498.071 153.144 497.837C153.581 497.603 153.973 497.262 154.297 496.836C154.621 496.409 154.868 495.906 155.025 495.359C155.181 494.811 155.243 494.23 155.206 493.652C155.154 492.851 154.915 492.085 154.516 491.443C154.118 490.801 153.577 490.311 152.957 490.03L132.283 481.627C131.883 481.466 131.458 481.412 131.039 481.469C130.62 481.526 130.216 481.691 129.854 481.955C127.012 484.348 123.612 485.571 120.155 485.444C117.462 485.212 114.877 484.066 112.695 482.137C112.503 481.946 112.27 481.826 112.024 481.789C111.778 481.752 111.528 481.802 111.304 481.931C111.08 482.06 110.891 482.264 110.758 482.518C110.626 482.773 110.556 483.068 110.557 483.369V495.636C110.557 495.998 110.616 496.356 110.73 496.691C110.844 497.025 111.012 497.328 111.223 497.584C111.435 497.839 111.685 498.041 111.961 498.179C112.237 498.316 112.533 498.386 112.831 498.385L151.757 498.196Z" fill="#C1D8ED"/>
<path d="M222.578 498.196C223.055 498.193 223.527 498.071 223.964 497.837C224.401 497.603 224.794 497.262 225.117 496.836C225.441 496.409 225.688 495.906 225.844 495.359C226.001 494.811 226.062 494.23 226.025 493.652C225.974 492.851 225.735 492.085 225.337 491.443C224.938 490.801 224.397 490.311 223.777 490.03L203.103 481.627C202.703 481.466 202.279 481.412 201.859 481.469C201.44 481.526 201.036 481.691 200.674 481.955C197.832 484.348 194.433 485.571 190.975 485.444C188.282 485.212 185.697 484.067 183.514 482.137C183.323 481.946 183.09 481.826 182.844 481.789C182.597 481.752 182.348 481.801 182.124 481.93C181.9 482.06 181.71 482.263 181.578 482.518C181.446 482.773 181.376 483.068 181.377 483.369V495.636C181.377 495.998 181.436 496.356 181.55 496.691C181.665 497.025 181.832 497.328 182.044 497.584C182.255 497.839 182.506 498.041 182.782 498.179C183.058 498.316 183.353 498.386 183.651 498.385L222.578 498.196Z" fill="#C1D8ED"/>
<path d="M94.6564 213.586L104.787 209.48V215.688L105.025 215.239C105.025 218.379 106.391 228.869 104.195 229.62C103.359 229.905 102.429 226.868 101.86 224.605C99.6771 229.07 98.8609 239.769 98.5691 245.801C98.5491 246.201 98.4304 246.583 98.2284 246.899C98.0265 247.215 97.7507 247.45 97.4371 247.573C97.1235 247.696 96.7866 247.702 96.4704 247.589C96.1542 247.476 95.8734 247.25 95.6646 246.941C87.4849 234.769 94.6564 213.586 94.6564 213.586Z" fill="#E98862"/>
<path d="M264.829 158.893C267.282 159.591 275.791 160.35 275.889 163.046C275.947 164.662 269.488 164.715 269.488 164.715" fill="#E98862"/>
<path d="M289.503 176.128C290.336 171.816 282.788 165.985 272.643 163.104C262.498 160.223 253.599 161.383 252.766 165.695C251.933 170.006 259.482 175.838 269.626 178.719C279.771 181.6 288.67 180.44 289.503 176.128Z" fill="#E98862"/>
<path d="M220.676 136.149L189.181 79.0297L188.994 79.1816C186.288 74.1709 181.64 70.9707 173.962 70.5725C173.429 70.5417 172.575 70.5211 171.475 70.5006C171.256 76.1456 142.448 76.1251 141.839 70.3672C133.703 70.3775 127.03 73.4052 123.164 78.0957C121.367 80.2549 119.988 82.8729 119.128 85.7596L119.025 85.7041L98.5808 141.566C98.226 142.537 97.9868 143.564 97.8704 144.616L89.9268 216.285L108.204 219.269L115.971 149.186L124.027 127.175C125.318 132.437 126.046 137.879 126.192 143.366C126.192 164.93 118.157 174.588 118.749 185.652C119.68 203.039 189.313 198.934 192.857 189.05C196.511 178.868 189.093 172.587 189.423 139.271C189.556 133.424 189.939 127.59 190.569 121.791L207.038 151.658C208.135 153.648 209.728 155.158 211.584 155.969L263.141 178.446L269.375 157.384L220.676 136.149Z" fill="#367CFF"/>
<path d="M171.476 70.5045C171.256 76.1495 168.727 84.4528 160.92 85.0789C150.517 85.9102 142.448 76.129 141.839 70.3711H141.864C152.107 70.3711 165.504 70.3916 171.476 70.5045Z" fill="#E98862"/>
<path d="M283.888 194.028L273.268 192.084C272.459 191.936 271.722 191.43 271.2 190.665C270.678 189.9 270.407 188.928 270.438 187.935L271.588 151.43L295.377 155.787L287.596 191.078C287.384 192.037 286.889 192.867 286.206 193.411C285.522 193.955 284.697 194.175 283.888 194.028Z" fill="#F3F5FD"/>
<path d="M270.967 148.76C271.48 144.631 273.324 140.919 276.093 138.44C278.862 135.961 282.329 134.918 285.732 135.542C289.134 136.165 292.193 138.402 294.236 141.762C296.278 145.122 297.138 149.33 296.624 153.458" fill="#F3F5FD"/>
<path d="M283.888 194.028L273.268 192.084C272.459 191.936 271.722 191.43 271.2 190.665C270.678 189.9 270.407 188.928 270.438 187.935L271.588 151.43L295.377 155.787L287.596 191.078C287.384 192.037 286.889 192.867 286.206 193.411C285.522 193.955 284.697 194.175 283.888 194.028Z" fill="#262626"/>
<path d="M270.967 148.76C271.48 144.631 273.324 140.919 276.093 138.44C278.862 135.961 282.329 134.918 285.732 135.542C289.134 136.165 292.193 138.402 294.236 141.762C296.278 145.122 297.138 149.33 296.624 153.458" fill="#262626"/>
<g opacity="0.59">
<path opacity="0.59" d="M283.888 194.028L273.268 192.084C272.459 191.936 271.722 191.43 271.2 190.665C270.678 189.9 270.407 188.928 270.438 187.935L271.588 151.43L295.377 155.787L287.596 191.078C287.384 192.037 286.889 192.867 286.206 193.411C285.522 193.955 284.697 194.175 283.888 194.028Z" fill="white"/>
</g>
<g opacity="0.59">
<path opacity="0.59" d="M270.967 148.76C271.48 144.631 273.324 140.919 276.093 138.44C278.862 135.961 282.329 134.918 285.732 135.542C289.134 136.165 292.193 138.402 294.236 141.762C296.278 145.122 297.138 149.33 296.624 153.458" fill="white"/>
</g>
<path d="M274.113 191.383C274.081 191.377 274.049 191.369 274.017 191.359C273.904 191.322 273.798 191.26 273.705 191.174C273.612 191.087 273.534 190.98 273.475 190.857C273.416 190.735 273.378 190.599 273.362 190.459C273.347 190.318 273.354 190.175 273.384 190.038L284.887 137.436C284.948 137.159 285.096 136.923 285.301 136.779C285.505 136.635 285.748 136.595 285.976 136.669C286.204 136.742 286.399 136.923 286.517 137.171C286.636 137.418 286.668 137.713 286.608 137.99L275.105 190.594C275.048 190.85 274.916 191.072 274.733 191.218C274.55 191.364 274.33 191.422 274.113 191.383Z" fill="#262626"/>
<g opacity="0.25">
<path opacity="0.25" d="M274.113 191.383C274.081 191.377 274.049 191.369 274.017 191.359C273.904 191.322 273.798 191.26 273.705 191.174C273.612 191.087 273.534 190.98 273.475 190.857C273.416 190.735 273.378 190.599 273.362 190.459C273.347 190.318 273.354 190.175 273.384 190.038L284.887 137.436C284.948 137.159 285.096 136.923 285.301 136.779C285.505 136.635 285.748 136.595 285.976 136.669C286.204 136.742 286.399 136.923 286.517 137.171C286.636 137.418 286.668 137.713 286.608 137.99L275.105 190.594C275.048 190.85 274.916 191.072 274.733 191.218C274.55 191.364 274.33 191.422 274.113 191.383Z" fill="white"/>
</g>
<path d="M297.111 153.522L270.485 148.645C270.265 148.605 270.059 148.789 270.026 149.056L269.83 150.63C269.797 150.898 269.948 151.147 270.169 151.188L296.795 156.064C297.015 156.105 297.221 155.921 297.254 155.653L297.45 154.079C297.483 153.812 297.331 153.562 297.111 153.522Z" fill="#262626"/>
<path d="M285.858 137.649C285.826 137.643 285.794 137.636 285.762 137.625C285.534 137.552 285.339 137.371 285.22 137.123C285.102 136.875 285.069 136.58 285.129 136.303L287.272 126.506C287.317 126.295 287.415 126.106 287.55 125.964C287.686 125.822 287.855 125.733 288.033 125.709L302.276 123.718C302.392 123.702 302.51 123.713 302.622 123.752C302.735 123.791 302.84 123.857 302.931 123.945C303.023 124.033 303.099 124.142 303.156 124.266C303.213 124.39 303.249 124.527 303.262 124.667C303.276 124.808 303.266 124.951 303.234 125.087C303.202 125.224 303.148 125.351 303.075 125.462C303.003 125.574 302.913 125.666 302.811 125.735C302.708 125.804 302.596 125.848 302.48 125.864L288.839 127.771L286.853 136.858C286.797 137.115 286.664 137.338 286.481 137.485C286.297 137.631 286.075 137.689 285.858 137.649Z" fill="#262626"/>
<path d="M287.425 137.445C287.368 137.898 286.478 138.112 285.436 137.921C284.394 137.73 283.594 137.208 283.65 136.754C283.698 136.373 284.327 136.162 285.148 136.215L285.087 136.494C285.02 136.791 285.318 137.241 285.801 137.353C286.527 137.524 286.739 137.283 286.808 137.046C286.832 136.967 286.88 136.719 286.88 136.719C287.242 136.942 287.455 137.204 287.425 137.445Z" fill="#F0F6FF"/>
<path d="M397.888 241.045H266.167V259.341H397.888V241.045Z" fill="#6E8867"/>
<path fill-rule="evenodd" clip-rule="evenodd" d="M530.708 247.665H413.009L421.966 179.945H521.337L530.708 247.665Z" fill="#8DDBE0"/>
<path opacity="0.12" fill-rule="evenodd" clip-rule="evenodd" d="M517.34 236.324H426.378L432.335 191.287H511.109L517.34 236.324Z" fill="#0F1011"/>
<path d="M537.722 241.045H406V259.341H537.722V241.045Z" fill="#8DDBE0"/>
<path opacity="0.12" d="M537.721 241.045H405.999V259.341H537.721V241.045Z" fill="#0F1011"/>
<path d="M310.895 236.323H301.036L299.124 224.708L308.602 222.402L310.895 236.323Z" fill="#FAFAFA"/>
<path d="M308.601 222.406L299.121 224.705L302.485 215.197L308.601 222.406Z" fill="#FAFAFA"/>
<path d="M332.027 236.323H310.896L308.603 222.403L328.922 217.482L332.027 236.323Z" fill="#F3F5FD"/>
<path d="M328.92 217.479L308.601 222.406L302.485 215.197L322.804 210.27L328.92 217.479Z" fill="#FAFAFA"/>
<path d="M322.282 206.437L301.965 211.363L302.608 215.269L322.925 210.343L322.282 206.437Z" fill="#FAFAFA"/>
<path d="M310.895 236.323H301.036L299.124 224.708L308.602 222.402L310.895 236.323Z" fill="#DEE8F5"/>
<path d="M308.601 222.406L299.121 224.705L302.485 215.197L308.601 222.406Z" fill="#C1D8ED"/>
<path d="M328.92 217.479L308.601 222.406L302.485 215.197L322.804 210.27L328.92 217.479Z" fill="#DEE8F5"/>
<path d="M322.282 206.437L301.965 211.363L302.608 215.269L322.925 210.343L322.282 206.437Z" fill="#C1D8ED"/>
</g>
<defs>
<clipPath id="clip0_629_1381">
<rect width="613.502" height="500" fill="white" transform="translate(0.501953)"/>
</clipPath>
</defs>
</svg>
