<svg width="43" height="40" viewBox="0 0 43 40" fill="none" xmlns="http://www.w3.org/2000/svg">
<g clip-path="url(#clip0_848_3144)">
<path d="M5.66797 17.4283C5.66797 17.0873 5.7944 16.7603 6.01944 16.5192C6.24448 16.278 6.54971 16.1426 6.86797 16.1426H28.468C28.7862 16.1426 29.0915 16.278 29.3165 16.5192C29.5415 16.7603 29.668 17.0873 29.668 17.4283C29.668 17.7693 29.5415 18.0963 29.3165 18.3374C29.0915 18.5785 28.7862 18.714 28.468 18.714H6.86797C6.54971 18.714 6.24448 18.5785 6.01944 18.3374C5.7944 18.0963 5.66797 17.7693 5.66797 17.4283ZM5.66797 22.5711C5.66797 22.2302 5.7944 21.9031 6.01944 21.662C6.24448 21.4209 6.54971 21.2854 6.86797 21.2854H28.468C28.7862 21.2854 29.0915 21.4209 29.3165 21.662C29.5415 21.9031 29.668 22.2302 29.668 22.5711C29.668 22.9121 29.5415 23.2392 29.3165 23.4803C29.0915 23.7214 28.7862 23.8569 28.468 23.8569H6.86797C6.54971 23.8569 6.24448 23.7214 6.01944 23.4803C5.7944 23.2392 5.66797 22.9121 5.66797 22.5711ZM6.86797 26.4283C6.54971 26.4283 6.24448 26.5638 6.01944 26.8049C5.7944 27.046 5.66797 27.373 5.66797 27.714C5.66797 28.055 5.7944 28.382 6.01944 28.6231C6.24448 28.8643 6.54971 28.9997 6.86797 28.9997H21.268C21.5862 28.9997 21.8915 28.8643 22.1165 28.6231C22.3415 28.382 22.468 28.055 22.468 27.714C22.468 27.373 22.3415 27.046 22.1165 26.8049C21.8915 26.5638 21.5862 26.4283 21.268 26.4283H6.86797Z" fill="#0397D6"/>
</g>
<g clip-path="url(#clip1_848_3144)">
<path d="M31.4695 19.4375C30.4949 19.4375 29.5601 19.0227 28.8709 18.2842C28.1817 17.5458 27.7945 16.5443 27.7945 15.5C27.7945 14.4557 28.1817 13.4542 28.8709 12.7158C29.5601 11.9773 30.4949 11.5625 31.4695 11.5625C32.4442 11.5625 33.379 11.9773 34.0681 12.7158C34.7573 13.4542 35.1445 14.4557 35.1445 15.5C35.1445 16.5443 34.7573 17.5458 34.0681 18.2842C33.379 19.0227 32.4442 19.4375 31.4695 19.4375ZM31.4695 20C32.5834 20 33.6517 19.5259 34.4394 18.682C35.227 17.8381 35.6695 16.6935 35.6695 15.5C35.6695 14.3065 35.227 13.1619 34.4394 12.318C33.6517 11.4741 32.5834 11 31.4695 11C30.3556 11 29.2873 11.4741 28.4997 12.318C27.712 13.1619 27.2695 14.3065 27.2695 15.5C27.2695 16.6935 27.712 17.8381 28.4997 18.682C29.2873 19.5259 30.3556 20 31.4695 20Z" fill="#0397D6"/>
<path d="M31.9574 14.7057L30.7551 14.8672L30.7121 15.0809L30.9483 15.1276C31.1027 15.167 31.1331 15.2266 31.0995 15.3914L30.7121 17.3422C30.6102 17.8467 30.7672 18.0841 31.1363 18.0841C31.4224 18.0841 31.7547 17.9424 31.9054 17.7477L31.9516 17.5137C31.8466 17.6127 31.6933 17.6521 31.5914 17.6521C31.4471 17.6521 31.3946 17.5436 31.4318 17.3523L31.9574 14.7057ZM31.9941 13.5312C31.9941 13.6804 31.9388 13.8235 31.8403 13.929C31.7419 14.0345 31.6084 14.0937 31.4691 14.0937C31.3299 14.0937 31.1963 14.0345 31.0979 13.929C30.9994 13.8235 30.9441 13.6804 30.9441 13.5312C30.9441 13.3821 30.9994 13.239 31.0979 13.1335C31.1963 13.028 31.3299 12.9688 31.4691 12.9688C31.6084 12.9688 31.7419 13.028 31.8403 13.1335C31.9388 13.239 31.9941 13.3821 31.9941 13.5312Z" fill="#0397D6"/>
</g>
<rect x="1.66797" y="1" width="39.6667" height="38" rx="9" stroke="#0397D6" stroke-width="2"/>
<defs>
<clipPath id="clip0_848_3144">
<rect width="24" height="12.8571" fill="white" transform="translate(5.66797 16.1426)"/>
</clipPath>
<clipPath id="clip1_848_3144">
<rect width="8.4" height="9" fill="white" transform="translate(27.2695 11)"/>
</clipPath>
</defs>
</svg>
