<svg width="625" height="482" viewBox="0 0 625 482" fill="none" xmlns="http://www.w3.org/2000/svg">
<path d="M226.625 208.715C243.075 151.433 194.712 81.3291 239.775 31.0806C275.675 -8.95033 359.025 -6.28489 399.05 22.1094C422.087 38.4599 437.512 63.8557 461.975 80.2308C488.225 97.7783 523.312 95.0388 545.512 123.236C575.512 161.206 558.65 231.828 517.875 262.11C486.912 285.075 461.025 284.026 428.075 294.515C380.175 309.767 359.675 327.833 317.575 351.55C258.55 384.868 179 406.278 113.2 367.963C77.175 346.985 42.65 291.455 97.1 263.788C142.95 240.478 201.95 294.601 226.625 208.715Z" fill="#4AAA42"/>
<path opacity="0.9" d="M226.625 208.715C243.075 151.433 194.712 81.3291 239.775 31.0806C275.675 -8.95033 359.025 -6.28489 399.05 22.1094C422.087 38.4599 437.512 63.8557 461.975 80.2308C488.225 97.7783 523.312 95.0388 545.512 123.236C575.512 161.206 558.65 231.828 517.875 262.11C486.912 285.075 461.025 284.026 428.075 294.515C380.175 309.767 359.675 327.833 317.575 351.55C258.55 384.868 179 406.278 113.2 367.963C77.175 346.985 42.65 291.455 97.1 263.788C142.95 240.478 201.95 294.601 226.625 208.715Z" fill="white"/>
<path d="M312.5 481.196C446.353 481.196 554.862 474.941 554.862 467.227C554.862 459.512 446.353 453.258 312.5 453.258C178.647 453.258 70.1372 459.512 70.1372 467.227C70.1372 474.941 178.647 481.196 312.5 481.196Z" fill="#F5F5F5"/>
<path d="M439.924 187.787L440.587 188.342L441.374 188.959C441.899 189.379 442.462 189.799 443.012 190.193C444.137 190.996 445.287 191.785 446.487 192.501C448.865 193.987 451.342 195.314 453.899 196.475C456.47 197.614 459.104 198.611 461.787 199.461C463.149 199.819 464.487 200.263 465.874 200.534L467.949 200.979H468.199C468.199 200.979 468.199 200.979 468.137 200.979C468.074 200.979 468.012 201.114 468.137 200.979C468.392 200.709 468.595 200.395 468.737 200.053C469.22 198.965 469.56 197.82 469.749 196.647C470.194 193.892 470.424 191.108 470.437 188.318C470.437 185.443 470.437 182.518 470.262 179.593C470.087 176.669 469.899 173.695 469.649 170.795L474.024 170.018C475.538 175.956 476.558 182.006 477.074 188.108C477.368 191.285 477.368 194.482 477.074 197.659C476.901 199.456 476.506 201.226 475.899 202.928C475.51 203.988 474.957 204.983 474.262 205.878C473.357 207.059 472.123 207.955 470.712 208.457C469.631 208.836 468.479 208.979 467.337 208.876L466.824 208.815H466.524L464.137 208.432C462.537 208.198 460.974 207.778 459.387 207.445C456.255 206.658 453.188 205.639 450.212 204.397C447.232 203.147 444.349 201.683 441.587 200.016C440.199 199.189 438.862 198.276 437.537 197.326C436.874 196.845 436.224 196.351 435.574 195.833C435.249 195.574 434.937 195.302 434.612 195.018C434.287 194.735 433.999 194.488 433.574 194.093L439.924 187.787Z" fill="#9F5B53"/>
<path d="M427.387 182.603C440.05 180.901 450.275 191.007 450.275 191.007L440.825 206.876C440.825 206.876 426.25 200.817 424.05 195.449C421.775 189.896 420.887 183.467 427.387 182.603Z" fill="#4AAA42"/>
<path opacity="0.3" d="M427.387 182.603C440.05 180.901 450.275 191.007 450.275 191.007L440.825 206.876C440.825 206.876 426.25 200.817 424.05 195.449C421.775 189.896 420.887 183.467 427.387 182.603Z" fill="black"/>
<path d="M470.837 173.127L463.899 166.809L474.187 162.848C474.187 162.848 477.449 168.277 474.812 173.707L470.837 173.127Z" fill="#9F5B53"/>
<path d="M462.5 157.751L470.687 156.209L474.187 162.848L463.9 166.809L462.5 157.751Z" fill="#9F5B53"/>
<path d="M382.5 457.762L392.7 458.749L403.325 434.772L393.125 433.785L382.5 457.762Z" fill="#9F5B53"/>
<path d="M316.787 422.321L324.45 429.429L340.987 411.474L333.325 404.379L316.787 422.321Z" fill="#9F5B53"/>
<path d="M327.987 426.023L322.224 415.781C322.128 415.603 321.97 415.466 321.779 415.396C321.588 415.326 321.377 415.326 321.187 415.398L312.324 418.73C312.104 418.82 311.905 418.955 311.741 419.127C311.578 419.299 311.453 419.502 311.375 419.725C311.297 419.948 311.268 420.185 311.289 420.419C311.311 420.654 311.382 420.882 311.499 421.087C313.574 424.629 314.749 426.233 317.274 430.737C318.837 433.501 321.874 439.856 324.024 443.681C326.174 447.507 330.124 445.619 329.574 443.83C327.074 435.833 327.574 431.378 328.324 427.849C328.431 427.22 328.311 426.574 327.987 426.023Z" fill="#7B9873"/>
<path d="M394.062 455.639H381.562C381.337 455.642 381.119 455.717 380.94 455.852C380.762 455.988 380.634 456.177 380.574 456.392L377.849 466.177C377.782 466.409 377.771 466.653 377.818 466.889C377.864 467.125 377.967 467.347 378.116 467.537C378.266 467.727 378.459 467.88 378.68 467.982C378.901 468.085 379.143 468.134 379.387 468.127C383.799 468.127 385.887 468.127 391.399 468.127H408.237C412.824 468.127 413.774 463.561 411.887 463.191C403.387 461.34 398.487 458.773 395.874 456.342C395.387 455.883 394.736 455.63 394.062 455.639Z" fill="#7B9873"/>
<path d="M403.312 434.784L397.849 447.136H387.199L393.112 433.797L403.312 434.784Z" fill="#8A4743"/>
<path d="M333.312 404.379L340.987 411.487L332.45 420.729L324.787 413.622L333.312 404.379Z" fill="#8A4743"/>
<path d="M438.224 183.764C438.224 183.764 442.8 185.763 427.425 245.859L384.687 242.157C386.912 225.041 387.862 214.453 382.625 178.507C388.718 177.805 394.855 177.537 400.987 177.705C407.487 177.815 413.97 178.384 420.387 179.408C426.403 180.564 432.356 182.018 438.224 183.764Z" fill="#4AAA42"/>
<path opacity="0.3" d="M438.224 183.764C438.224 183.764 442.8 185.763 427.425 245.859L384.687 242.157C386.912 225.041 387.862 214.453 382.625 178.507C388.718 177.805 394.855 177.537 400.987 177.705C407.487 177.815 413.97 178.384 420.387 179.408C426.403 180.564 432.356 182.018 438.224 183.764Z" fill="black"/>
<path d="M400.987 177.755C400.987 177.755 398.562 177.496 395.699 177.496C393.974 180.125 399.212 190.108 408.462 197.61C410.534 194.159 413.165 191.066 416.249 188.454L400.987 177.755Z" fill="#FAFAFA"/>
<path d="M420.387 179.408C421.624 179.485 422.85 179.679 424.049 179.988C425.774 182.617 429.112 191.909 424.049 197.61C421.977 194.158 419.347 191.065 416.262 188.453L420.387 179.408Z" fill="#FAFAFA"/>
<path d="M417.637 195.141C417.637 195.894 417.425 196.511 417.062 196.535C416.7 196.56 416.387 195.955 416.337 195.215C416.287 194.475 416.55 193.833 416.912 193.821C417.275 193.808 417.6 194.388 417.637 195.141Z" fill="#FAFAFA"/>
<path d="M417.5 200.855C417.5 201.595 417.175 202.2 416.812 202.2C416.45 202.2 416.187 201.57 416.2 200.818C416.212 200.065 416.525 199.473 416.887 199.473C417.25 199.473 417.562 200.102 417.5 200.855Z" fill="#FAFAFA"/>
<path d="M404.799 156.344C405.487 162.612 405.712 174.015 401.049 177.754C405.625 181.955 410.734 185.552 416.249 188.452C423.674 183.393 420.387 179.407 420.387 179.407C413.574 177.174 414.199 172.09 415.824 167.4L404.799 156.344Z" fill="#9F5B53"/>
<path d="M409.299 160.898L415.824 167.439C415.43 168.526 415.129 169.645 414.924 170.783C412.299 170.178 408.499 167.488 408.462 164.711C408.505 163.401 408.789 162.109 409.299 160.898Z" fill="#8A4743"/>
<path d="M417.274 137.772C417.274 137.772 424.199 144.485 425.724 147.755C429.924 149.298 428.787 138.377 425.599 132.059C419.999 136.982 417.274 137.772 417.274 137.772Z" fill="#3A3A3A"/>
<path d="M399.212 146.546C401.862 156.566 402.762 160.86 408.987 165.056C418.337 171.362 430.237 165.957 430.65 155.369C431.05 145.83 426.65 131.059 415.8 128.986C413.41 128.513 410.937 128.652 408.616 129.388C406.295 130.125 404.204 131.436 402.542 133.196C400.879 134.956 399.701 137.107 399.118 139.443C398.535 141.78 398.567 144.225 399.212 146.546Z" fill="#9F5B53"/>
<path d="M422.225 133.75C426.875 134.429 431.512 130.134 423.987 125.531C426.4 125.285 428.987 116.893 420.237 117.35C419.812 113.364 411.15 109.81 406.487 116.116C401.1 112.611 393.45 116.19 395.162 121.632C388.975 122.015 385.75 130.356 390.862 131.714C384.712 135.416 383.637 141.401 389.612 142.487C390.437 149.409 404.175 146.312 403.112 139.871C405.612 141.191 413.462 138.353 411.862 134.935C414.4 138.155 422.225 136.687 422.225 133.75Z" fill="#3A3A3A"/>
<path d="M393.749 142.561C393.749 142.561 398.849 150.705 399.524 154.247C403.274 156.715 404.787 145.868 403.274 138.982C396.562 142.388 393.749 142.561 393.749 142.561Z" fill="#3A3A3A"/>
<path d="M398.375 155.591C399.323 157.361 400.94 158.691 402.874 159.293C405.449 160.046 406.787 157.788 406.124 155.369C405.512 153.185 403.449 150.162 400.849 150.433C400.281 150.509 399.74 150.725 399.276 151.059C398.813 151.394 398.442 151.838 398.196 152.35C397.95 152.862 397.838 153.427 397.869 153.993C397.9 154.559 398.074 155.108 398.375 155.591Z" fill="#9F5B53"/>
<path d="M427.424 245.86C427.424 245.86 441.887 309.003 432.224 353.514C425.762 383.327 402.449 443.596 402.449 443.596L384.224 443.127C384.224 443.127 401.874 379.921 405.474 355.069C411.724 312.545 396.074 243.219 396.074 243.219L427.424 245.86Z" fill="#4AAA42"/>
<path opacity="0.6" d="M427.424 245.86C427.424 245.86 441.887 309.003 432.224 353.514C425.762 383.327 402.449 443.596 402.449 443.596L384.224 443.127C384.224 443.127 401.874 379.921 405.474 355.069C411.724 312.545 396.074 243.219 396.074 243.219L427.424 245.86Z" fill="#FAFAFA"/>
<path d="M410.749 258.605L401.637 272.796C404.38 289.624 406.121 306.596 406.849 323.625C419.662 300.969 413.599 270.6 410.749 258.605Z" fill="#4AAA42"/>
<path opacity="0.4" d="M410.749 258.605L401.637 272.796C404.38 289.624 406.121 306.596 406.849 323.625C419.662 300.969 413.599 270.6 410.749 258.605Z" fill="#FAFAFA"/>
<path d="M405.024 444.483L382.5 443.928L383.812 437.092L408.387 438.239L405.024 444.483Z" fill="#4AAA42"/>
<path opacity="0.3" d="M405.024 444.483L382.5 443.928L383.812 437.092L408.387 438.239L405.024 444.483Z" fill="black"/>
<path d="M418.075 245.181C418.075 245.181 409.6 312.15 391.212 348.701C376.362 378.231 336.725 420.273 336.725 420.273L326.6 409.969C326.6 409.969 353.362 364.311 364.4 344.666C391.462 296.54 369.4 259.866 384.687 242.244L418.075 245.181Z" fill="#4AAA42"/>
<path opacity="0.6" d="M418.075 245.181C418.075 245.181 409.6 312.15 391.212 348.701C376.362 378.231 336.725 420.273 336.725 420.273L326.6 409.969C326.6 409.969 353.362 364.311 364.4 344.666C391.462 296.54 369.4 259.866 384.687 242.244L418.075 245.181Z" fill="#FAFAFA"/>
<path d="M337.749 421.642L324.674 409.067L329.012 403.23L343.262 417.779L337.749 421.642Z" fill="#4AAA42"/>
<path opacity="0.3" d="M337.749 421.642L324.674 409.067L329.012 403.23L343.262 417.779L337.749 421.642Z" fill="black"/>
<path d="M384.262 239.676L381.999 243.279C381.824 243.563 382.162 243.896 382.649 243.933L427.462 247.759C427.849 247.759 428.187 247.635 428.237 247.401L428.949 243.699C428.949 243.44 428.687 243.181 428.262 243.144L384.987 239.442C384.856 239.417 384.721 239.425 384.594 239.466C384.467 239.507 384.353 239.58 384.262 239.676Z" fill="#7B9873"/>
<path d="M389.662 244.945L388.499 244.846C388.262 244.846 388.099 244.698 388.124 244.55L389.099 239.688C389.099 239.552 389.349 239.454 389.574 239.466L390.737 239.565C390.962 239.565 391.124 239.725 391.099 239.861L390.124 244.723C390.099 244.871 389.887 244.97 389.662 244.945Z" fill="#4AAA42"/>
<path opacity="0.6" d="M389.662 244.945L388.499 244.846C388.262 244.846 388.099 244.698 388.124 244.55L389.099 239.688C389.099 239.552 389.349 239.454 389.574 239.466L390.737 239.565C390.962 239.565 391.124 239.725 391.099 239.861L390.124 244.723C390.099 244.871 389.887 244.97 389.662 244.945Z" fill="#FAFAFA"/>
<path d="M424.174 247.896L423.012 247.797C422.787 247.797 422.624 247.649 422.649 247.501L423.624 242.639C423.624 242.503 423.862 242.405 424.087 242.417L425.249 242.516C425.487 242.516 425.649 242.676 425.624 242.812L424.649 247.674C424.605 247.757 424.535 247.823 424.449 247.863C424.364 247.903 424.267 247.915 424.174 247.896Z" fill="#4AAA42"/>
<path opacity="0.6" d="M424.174 247.896L423.012 247.797C422.787 247.797 422.624 247.649 422.649 247.501L423.624 242.639C423.624 242.503 423.862 242.405 424.087 242.417L425.249 242.516C425.487 242.516 425.649 242.676 425.624 242.812L424.649 247.674C424.605 247.757 424.535 247.823 424.449 247.863C424.364 247.903 424.267 247.915 424.174 247.896Z" fill="#FAFAFA"/>
<path d="M406.912 246.426L405.762 246.327C405.525 246.327 405.362 246.167 405.387 246.031L406.362 241.169C406.362 241.021 406.6 240.922 406.837 240.947L407.987 241.046C408.225 241.046 408.387 241.194 408.362 241.342L407.387 246.192C407.362 246.34 407.15 246.438 406.912 246.426Z" fill="#4AAA42"/>
<path opacity="0.6" d="M406.912 246.426L405.762 246.327C405.525 246.327 405.362 246.167 405.387 246.031L406.362 241.169C406.362 241.021 406.6 240.922 406.837 240.947L407.987 241.046C408.225 241.046 408.387 241.194 408.362 241.342L407.387 246.192C407.362 246.34 407.15 246.438 406.912 246.426Z" fill="#FAFAFA"/>
<path d="M415.349 146.362C415.512 147.188 416.087 147.768 416.599 147.657C417.112 147.546 417.449 146.806 417.287 145.979C417.124 145.152 416.549 144.572 416.037 144.671C415.524 144.77 415.187 145.535 415.349 146.362Z" fill="#3A3A3A"/>
<path d="M424.799 144.522C424.962 145.349 425.537 145.929 426.049 145.83C426.562 145.731 426.9 144.966 426.737 144.14C426.575 143.313 426 142.733 425.487 142.906C424.975 143.078 424.624 143.695 424.799 144.522Z" fill="#3A3A3A"/>
<path d="M425.25 142.931L427.149 141.969C427.149 141.969 426.425 143.721 425.25 142.931Z" fill="#3A3A3A"/>
<path d="M422.574 146.436C423.699 148.168 425.057 149.742 426.612 151.112C426.245 151.497 425.798 151.797 425.302 151.994C424.805 152.19 424.271 152.276 423.737 152.248L422.574 146.436Z" fill="#892B29"/>
<path d="M419.874 156.184C418.114 156.207 416.411 155.567 415.112 154.394C415.075 154.354 415.054 154.301 415.054 154.246C415.054 154.192 415.075 154.139 415.112 154.098C415.152 154.059 415.206 154.037 415.262 154.037C415.318 154.037 415.372 154.059 415.412 154.098C416.213 154.791 417.167 155.289 418.198 155.553C419.229 155.816 420.308 155.838 421.349 155.616C421.404 155.605 421.461 155.616 421.508 155.646C421.554 155.676 421.587 155.723 421.599 155.777C421.605 155.803 421.605 155.829 421.599 155.855C421.594 155.881 421.584 155.906 421.568 155.928C421.553 155.95 421.534 155.968 421.511 155.983C421.489 155.997 421.463 156.007 421.437 156.011C420.923 156.12 420.4 156.178 419.874 156.184Z" fill="#3A3A3A"/>
<path d="M410.699 141.154C410.629 141.169 410.557 141.169 410.487 141.154C410.394 141.095 410.327 141.003 410.302 140.897C410.276 140.791 410.293 140.68 410.349 140.586C410.733 139.917 411.274 139.349 411.927 138.931C412.579 138.512 413.325 138.254 414.099 138.18C414.208 138.18 414.312 138.22 414.391 138.294C414.47 138.367 414.518 138.468 414.524 138.575C414.526 138.628 414.517 138.681 414.498 138.731C414.479 138.781 414.45 138.827 414.412 138.866C414.375 138.905 414.331 138.937 414.281 138.958C414.232 138.98 414.178 138.993 414.124 138.994C413.486 139.066 412.873 139.286 412.337 139.635C411.8 139.985 411.355 140.454 411.037 141.006C410.997 141.055 410.945 141.095 410.886 141.12C410.828 141.146 410.763 141.158 410.699 141.154Z" fill="#3A3A3A"/>
<path d="M428.45 139.698C428.384 139.715 428.315 139.715 428.25 139.698C427.69 139.363 427.057 139.166 426.404 139.125C425.751 139.085 425.097 139.201 424.5 139.464C424.401 139.512 424.288 139.521 424.183 139.489C424.078 139.457 423.99 139.386 423.937 139.291C423.888 139.194 423.879 139.082 423.911 138.978C423.944 138.875 424.016 138.788 424.112 138.736C424.823 138.418 425.601 138.275 426.38 138.318C427.159 138.361 427.916 138.589 428.587 138.982C428.635 139.008 428.677 139.043 428.711 139.085C428.745 139.127 428.77 139.175 428.785 139.227C428.801 139.278 428.805 139.332 428.799 139.386C428.793 139.439 428.776 139.491 428.75 139.538C428.715 139.585 428.67 139.623 428.618 139.651C428.566 139.679 428.508 139.695 428.45 139.698Z" fill="#3A3A3A"/>
<path d="M385.875 193.661C384.137 197.083 382.209 200.408 380.099 203.619C377.999 206.803 375.775 209.888 373.387 212.887C370.97 215.879 368.373 218.726 365.612 221.413C364.199 222.746 362.787 224.079 361.262 225.313L360.137 226.263C359.609 226.691 359.049 227.078 358.462 227.423C357.021 228.262 355.372 228.689 353.7 228.657C351.998 228.587 350.357 228.015 348.987 227.016C347.927 226.256 346.992 225.34 346.212 224.301C344.936 222.578 343.874 220.709 343.05 218.736C341.558 215.17 340.383 211.483 339.537 207.716C337.874 200.43 336.775 193.029 336.25 185.578L340.662 185.035C341.375 188.54 342.137 192.118 343.025 195.623C343.912 199.127 344.812 202.62 345.9 206.001C346.912 209.326 348.166 212.576 349.65 215.725C350.326 217.113 351.165 218.417 352.15 219.612C352.509 220.03 352.931 220.391 353.4 220.685C353.75 220.883 353.862 220.846 353.875 220.821C354.054 220.768 354.224 220.685 354.375 220.574C354.537 220.463 354.737 220.303 354.95 220.13L355.9 219.242C357.15 218.094 358.4 216.835 359.65 215.54C362.05 212.985 364.275 210.246 366.45 207.469C368.625 204.693 370.612 201.731 372.512 198.733C373.475 197.252 374.4 195.734 375.312 194.204C376.225 192.674 377.087 191.094 377.812 189.663L385.875 193.661Z" fill="#9F5B53"/>
<path d="M342.625 186.553L341.512 177.311L332.237 183.209C332.237 183.209 335.275 188.145 339.475 189.478L342.625 186.553Z" fill="#9F5B53"/>
<path d="M338.074 173.559L332.012 179.21L332.237 183.208L341.512 177.31L338.074 173.559Z" fill="#9F5B53"/>
<path d="M382.625 178.557C377.387 179.483 370.05 194.315 370.05 194.315L383.262 206.1C383.262 206.1 393.762 194.797 393.2 188.059C392.725 182.333 389.3 177.397 382.625 178.557Z" fill="#4AAA42"/>
<path opacity="0.3" d="M382.625 178.557C377.387 179.483 370.05 194.315 370.05 194.315L383.262 206.1C383.262 206.1 393.762 194.797 393.2 188.059C392.725 182.333 389.3 177.397 382.625 178.557Z" fill="black"/>
<path d="M330 431.527C329.863 431.527 329.727 431.502 329.6 431.453C328.35 431.045 327.525 428.75 327.1 427.417C327.092 427.379 327.095 427.339 327.109 427.303C327.122 427.266 327.144 427.233 327.175 427.208C327.208 427.187 327.247 427.176 327.287 427.176C327.327 427.176 327.366 427.187 327.4 427.208C327.787 427.405 331.15 429.17 331.237 430.478C331.25 430.619 331.225 430.761 331.163 430.889C331.102 431.017 331.006 431.127 330.887 431.206C330.634 431.404 330.323 431.517 330 431.527ZM327.687 427.825C328.262 429.651 329.012 430.873 329.725 431.107C329.888 431.153 330.061 431.157 330.226 431.121C330.392 431.084 330.546 431.007 330.675 430.897C330.737 430.859 330.788 430.804 330.821 430.738C330.854 430.673 330.869 430.6 330.862 430.527C330.8 429.688 328.837 428.429 327.687 427.788V427.825Z" fill="#4AAA42"/>
<path d="M330.524 428.306C329.384 428.301 328.259 428.039 327.237 427.541C327.206 427.523 327.181 427.498 327.163 427.468C327.146 427.437 327.136 427.403 327.137 427.368C327.137 427.331 327.146 427.295 327.163 427.263C327.181 427.231 327.206 427.203 327.237 427.183C327.349 427.121 329.999 425.69 331.424 426.183C331.604 426.24 331.767 426.336 331.904 426.465C332.04 426.593 332.145 426.75 332.212 426.924C332.299 427.089 332.327 427.278 332.293 427.461C332.26 427.645 332.165 427.811 332.024 427.936C331.576 428.212 331.051 428.342 330.524 428.306ZM327.799 427.368C328.937 427.849 331.137 428.145 331.749 427.615C331.849 427.528 331.962 427.393 331.824 427.072C331.779 426.954 331.707 426.848 331.614 426.763C331.521 426.677 331.409 426.614 331.287 426.578C330.324 426.208 328.549 426.998 327.799 427.368Z" fill="#4AAA42"/>
<path d="M399.624 457.637C398.471 457.61 397.323 457.465 396.199 457.205C396.157 457.198 396.118 457.177 396.089 457.146C396.06 457.114 396.041 457.075 396.037 457.033C396.032 456.991 396.04 456.948 396.06 456.911C396.08 456.873 396.111 456.843 396.149 456.823C396.674 456.576 401.224 454.515 402.399 455.268C402.502 455.339 402.584 455.436 402.637 455.549C402.69 455.662 402.711 455.786 402.699 455.91C402.69 456.137 402.629 456.359 402.521 456.56C402.412 456.761 402.26 456.935 402.074 457.07C401.337 457.505 400.481 457.704 399.624 457.637ZM396.912 456.934C398.262 457.181 400.762 457.502 401.787 456.736C401.925 456.64 402.038 456.513 402.116 456.365C402.195 456.216 402.236 456.052 402.237 455.885C402.237 455.712 402.237 455.651 402.124 455.614C401.487 455.182 398.749 456.107 396.912 456.934Z" fill="#4AAA42"/>
<path d="M396.249 457.217C396.204 457.229 396.157 457.229 396.112 457.217C396.082 457.192 396.059 457.159 396.046 457.122C396.033 457.086 396.03 457.046 396.037 457.008C396.037 456.822 397.149 452.38 399.587 452.676C400.199 452.75 400.374 453.059 400.399 453.293C400.562 454.429 397.687 456.699 396.324 457.242L396.249 457.217ZM399.362 453.022C397.787 453.022 396.862 455.601 396.562 456.637C398.037 455.872 400.087 454.021 399.987 453.306C399.987 453.306 399.987 453.083 399.537 453.034L399.362 453.022Z" fill="#4AAA42"/>
<path d="M415.812 144.769L417.7 143.807C417.7 143.807 416.975 145.559 415.812 144.769Z" fill="#3A3A3A"/>
<path d="M154.412 147.324C165.493 136.352 178.663 127.652 193.162 121.722C207.661 115.793 223.205 112.751 238.899 112.772H255.812C255.812 112.772 335.599 133.392 335.599 217.773C335.599 300.253 280.362 373.257 255.824 397.517H238.924L154.412 314.086C132.024 291.966 119.448 261.975 119.448 230.705C119.448 199.435 132.024 169.444 154.412 147.324ZM238.912 285.532C249.884 285.532 260.61 282.319 269.733 276.301C278.856 270.283 285.967 261.729 290.165 251.721C294.364 241.714 295.461 230.702 293.32 220.078C291.178 209.454 285.894 199.696 278.134 192.038C270.374 184.379 260.489 179.164 249.727 177.053C238.965 174.941 227.81 176.027 217.674 180.174C207.537 184.321 198.874 191.342 192.78 200.35C186.686 209.358 183.434 219.947 183.437 230.779C183.467 245.284 189.324 259.185 199.725 269.432C210.125 279.678 224.218 285.433 238.912 285.433V285.532Z" fill="#7B9873"/>
<path d="M342.499 145.09C337.552 140.211 332.2 135.749 326.499 131.75L327.212 130.739C332.976 134.779 338.387 139.291 343.387 144.226L342.499 145.09ZM319.024 126.925C316.087 125.173 313.037 123.52 309.974 121.989L310.524 120.879C313.624 122.397 316.699 124.063 319.674 125.815L319.024 126.925Z" fill="#4AAA42"/>
<path opacity="0.2" d="M342.499 145.09C337.552 140.211 332.2 135.749 326.499 131.75L327.212 130.739C332.976 134.779 338.387 139.291 343.387 144.226L342.499 145.09ZM319.024 126.925C316.087 125.173 313.037 123.52 309.974 121.989L310.524 120.879C313.624 122.397 316.699 124.063 319.674 125.815L319.024 126.925Z" fill="black"/>
<path d="M171.312 147.323C193.856 125.895 224.016 114.055 255.309 114.345C286.602 114.636 316.531 127.034 338.663 148.877C360.795 170.719 373.363 200.261 373.667 231.154C373.971 262.046 361.985 291.824 340.287 314.086L255.824 397.479L171.312 314.049C148.929 291.932 136.356 261.949 136.356 230.686C136.356 199.423 148.929 169.439 171.312 147.323ZM255.812 285.531C266.784 285.531 277.51 282.319 286.633 276.3C295.756 270.282 302.867 261.728 307.065 251.721C311.263 241.713 312.361 230.701 310.22 220.077C308.078 209.454 302.793 199.695 295.034 192.037C287.274 184.378 277.388 179.163 266.627 177.052C255.865 174.94 244.71 176.026 234.574 180.173C224.437 184.32 215.774 191.341 209.68 200.349C203.586 209.357 200.334 219.946 200.337 230.778C200.366 245.284 206.224 259.185 216.625 269.431C227.025 279.677 241.118 285.432 255.812 285.432V285.531Z" fill="#4AAA42"/>
<path opacity="0.2" d="M171.312 147.323C193.856 125.895 224.016 114.055 255.309 114.345C286.602 114.636 316.531 127.034 338.663 148.877C360.795 170.719 373.363 200.261 373.667 231.154C373.971 262.046 361.985 291.824 340.287 314.086L255.824 397.479L171.312 314.049C148.929 291.932 136.356 261.949 136.356 230.686C136.356 199.423 148.929 169.439 171.312 147.323ZM255.812 285.531C266.784 285.531 277.51 282.319 286.633 276.3C295.756 270.282 302.867 261.728 307.065 251.721C311.263 241.713 312.361 230.701 310.22 220.077C308.078 209.454 302.793 199.695 295.034 192.037C287.274 184.378 277.388 179.163 266.627 177.052C255.865 174.94 244.71 176.026 234.574 180.173C224.437 184.32 215.774 191.341 209.68 200.349C203.586 209.357 200.334 219.946 200.337 230.778C200.366 245.284 206.224 259.185 216.625 269.431C227.025 279.677 241.118 285.432 255.812 285.432V285.531Z" fill="black"/>
<g style="mix-blend-mode:color-dodge" opacity="0.4">
<path d="M255.824 390.805C255.782 390.804 255.74 390.795 255.702 390.778C255.663 390.761 255.628 390.737 255.599 390.706L174.624 310.78C158.578 294.932 147.651 274.742 143.226 252.765C138.802 230.787 141.077 208.007 149.766 187.306C158.454 166.605 173.165 148.911 192.039 136.463C210.912 124.015 233.101 117.371 255.799 117.371C278.498 117.371 300.686 124.015 319.56 136.463C338.434 148.911 353.145 166.605 361.833 187.306C370.522 208.007 372.797 230.787 368.373 252.765C363.948 274.742 353.021 294.932 336.974 310.78L256.037 390.669C256.014 390.706 255.983 390.738 255.947 390.761C255.91 390.785 255.868 390.8 255.824 390.805ZM255.824 117.98C233.25 117.983 211.183 124.595 192.415 136.979C173.646 149.362 159.018 166.961 150.381 187.551C141.743 208.141 139.484 230.797 143.888 252.654C148.292 274.511 159.163 294.589 175.124 310.348L255.874 390.052L336.587 310.385L336.799 310.595L336.587 310.385C352.547 294.617 363.414 274.532 367.813 252.669C372.212 230.805 369.947 208.145 361.303 187.552C352.66 166.96 338.025 149.359 319.251 136.976C300.476 124.592 278.404 117.982 255.824 117.98ZM255.824 290.74C243.801 290.74 232.048 287.22 222.051 280.625C212.055 274.031 204.263 264.658 199.663 253.692C195.062 242.726 193.859 230.659 196.206 219.018C198.552 207.377 204.343 196.685 212.846 188.293C221.348 179.901 232.181 174.186 243.973 171.872C255.766 169.558 267.988 170.748 279.095 175.292C290.203 179.836 299.696 187.53 306.374 197.4C313.051 207.27 316.614 218.873 316.612 230.743C316.576 246.642 310.155 261.879 298.759 273.114C287.362 284.349 271.918 290.665 255.812 290.678L255.824 290.74ZM255.824 171.35C243.925 171.35 232.294 174.833 222.4 181.36C212.506 187.886 204.795 197.161 200.242 208.014C195.688 218.867 194.497 230.808 196.818 242.329C199.139 253.85 204.869 264.433 213.283 272.739C221.697 281.045 232.417 286.702 244.087 288.994C255.758 291.285 267.854 290.109 278.848 285.614C289.841 281.119 299.237 273.506 305.848 263.739C312.458 253.972 315.987 242.489 315.987 230.743C315.987 214.983 309.649 199.868 298.365 188.72C287.082 177.571 271.776 171.301 255.812 171.288L255.824 171.35Z" fill="#FAFAFA"/>
</g>
</svg>
