<svg width="24" height="30" viewBox="0 0 24 30" fill="none" xmlns="http://www.w3.org/2000/svg">
<path d="M6 22.5C5.70333 22.5 5.41332 22.588 5.16665 22.7528C4.91997 22.9176 4.72771 23.1519 4.61418 23.426C4.50065 23.7001 4.47094 24.0017 4.52882 24.2926C4.5867 24.5836 4.72956 24.8509 4.93934 25.0607C5.14912 25.2704 5.41639 25.4133 5.70736 25.4712C5.99834 25.5291 6.29994 25.4993 6.57403 25.3858C6.84811 25.2723 7.08238 25.08 7.2472 24.8334C7.41203 24.5867 7.5 24.2967 7.5 24C7.5 23.6022 7.34196 23.2206 7.06066 22.9393C6.77936 22.658 6.39782 22.5 6 22.5ZM6 13.5C5.70333 13.5 5.41332 13.588 5.16665 13.7528C4.91997 13.9176 4.72771 14.1519 4.61418 14.426C4.50065 14.7001 4.47094 15.0017 4.52882 15.2926C4.5867 15.5836 4.72956 15.8509 4.93934 16.0607C5.14912 16.2704 5.41639 16.4133 5.70736 16.4712C5.99834 16.5291 6.29994 16.4993 6.57403 16.3858C6.84811 16.2723 7.08238 16.08 7.2472 15.8334C7.41203 15.5867 7.5 15.2967 7.5 15C7.5 14.6022 7.34196 14.2206 7.06066 13.9393C6.77936 13.658 6.39782 13.5 6 13.5ZM18 0H6C4.4087 0 2.88258 0.632141 1.75736 1.75736C0.632141 2.88258 0 4.4087 0 6V24C0 25.5913 0.632141 27.1174 1.75736 28.2426C2.88258 29.3679 4.4087 30 6 30H18C19.5913 30 21.1174 29.3679 22.2426 28.2426C23.3679 27.1174 24 25.5913 24 24V6C24 4.4087 23.3679 2.88258 22.2426 1.75736C21.1174 0.632141 19.5913 0 18 0ZM21 24C21 24.7956 20.6839 25.5587 20.1213 26.1213C19.5587 26.6839 18.7956 27 18 27H6C5.20435 27 4.44129 26.6839 3.87868 26.1213C3.31607 25.5587 3 24.7956 3 24V20.16C3.90599 20.7053 4.94256 20.9956 6 21H18C19.0574 20.9956 20.094 20.7053 21 20.16V24ZM21 15C21 15.7956 20.6839 16.5587 20.1213 17.1213C19.5587 17.6839 18.7956 18 18 18H6C5.20435 18 4.44129 17.6839 3.87868 17.1213C3.31607 16.5587 3 15.7956 3 15V11.16C3.90599 11.7053 4.94256 11.9956 6 12H18C19.0574 11.9956 20.094 11.7053 21 11.16V15ZM18 9H6C5.20435 9 4.44129 8.68393 3.87868 8.12132C3.31607 7.55871 3 6.79565 3 6C3 5.20435 3.31607 4.44129 3.87868 3.87868C4.44129 3.31607 5.20435 3 6 3H18C18.7956 3 19.5587 3.31607 20.1213 3.87868C20.6839 4.44129 21 5.20435 21 6C21 6.79565 20.6839 7.55871 20.1213 8.12132C19.5587 8.68393 18.7956 9 18 9Z" fill="white"/>
</svg>
